SplineFontDB: 3.0
FontName: Annaheim
FullName: Annaheim
FamilyName: Annaheim
Weight: Book
Copyright: Copyright (c) 2010 by vernon adams. All rights reserved.
Version: 1.000
ItalicAngle: 0
UnderlinePosition: -103
UnderlineWidth: 102
Ascent: 1638
Descent: 410
sfntRevision: 0x00010000
LayerCount: 2
Layer: 0 0 "Back"  1
Layer: 1 0 "Fore"  0
NeedsXUIDChange: 1
XUID: [1021 713 972677256 7741469]
FSType: 0
OS2Version: 3
OS2_WeightWidthSlopeOnly: 0
OS2_UseTypoMetrics: 1
CreationTime: 1305321000
ModificationTime: 1305980772
PfmFamily: 17
TTFWeight: 400
TTFWidth: 5
LineGap: 106
VLineGap: 0
Panose: 2 0 5 6 0 0 0 2 0 4
OS2TypoAscent: -252
OS2TypoAOffset: 1
OS2TypoDescent: 21
OS2TypoDOffset: 1
OS2TypoLinegap: 106
OS2WinAscent: 0
OS2WinAOffset: 1
OS2WinDescent: 485
OS2WinDOffset: 1
HheadAscent: -494
HheadAOffset: 1
HheadDescent: 73
HheadDOffset: 1
OS2SubXSize: 1434
OS2SubYSize: 1331
OS2SubXOff: 0
OS2SubYOff: 287
OS2SupXSize: 1434
OS2SupYSize: 1331
OS2SupXOff: 0
OS2SupYOff: 977
OS2StrikeYSize: 102
OS2StrikeYPos: 512
OS2FamilyClass: 2048
OS2Vendor: 'newt'
OS2CodePages: 20000193.00000000
OS2UnicodeRanges: a000008f.4000204a.00000000.00000000
MarkAttachClasses: 1
DEI: 91125
TtTable: prep
PUSHW_1
 0
CALL
SVTCA[y-axis]
PUSHW_3
 1
 4
 7
CALL
PUSHW_1
 0
DUP
RCVT
RDTG
ROUND[Black]
RTG
WCVTP
EndTTInstrs
TtTable: fpgm
PUSHW_1
 0
FDEF
MPPEM
PUSHW_1
 9
LT
IF
PUSHB_2
 1
 1
INSTCTRL
EIF
PUSHW_1
 511
SCANCTRL
PUSHW_1
 68
SCVTCI
PUSHW_2
 9
 3
SDS
SDB
ENDF
PUSHW_1
 1
FDEF
DUP
DUP
RCVT
ROUND[Black]
WCVTP
PUSHB_1
 1
ADD
ENDF
PUSHW_1
 2
FDEF
PUSHW_1
 1
LOOPCALL
POP
ENDF
PUSHW_1
 3
FDEF
DUP
GC[cur]
PUSHB_1
 3
CINDEX
GC[cur]
GT
IF
SWAP
EIF
DUP
ROLL
DUP
ROLL
MD[grid]
ABS
ROLL
DUP
GC[cur]
DUP
ROUND[Grey]
SUB
ABS
PUSHB_1
 4
CINDEX
GC[cur]
DUP
ROUND[Grey]
SUB
ABS
GT
IF
SWAP
NEG
ROLL
EIF
MDAP[rnd]
DUP
PUSHB_1
 0
GTEQ
IF
ROUND[Black]
DUP
PUSHB_1
 0
EQ
IF
POP
PUSHB_1
 64
EIF
ELSE
ROUND[Black]
DUP
PUSHB_1
 0
EQ
IF
POP
PUSHB_1
 64
NEG
EIF
EIF
MSIRP[no-rp0]
ENDF
PUSHW_1
 4
FDEF
DUP
GC[cur]
PUSHB_1
 4
CINDEX

StartChar: exclam
Encoding: 33 33 1
Width: 854
Flags: HW
LayerCount: 2
Fore
SplineSet
463 1194 m 1
 451 369 l 1
 344 369 l 1
 332 1194 l 1
 332 1395 l 1
 463 1395 l 1
 463 1194 l 1
317 182 m 1
 492 182 l 1
 492 -8 l 1
 317 -8 l 1
 317 182 l 1
EndSplineSet
EndChar

StartChar: quotedbl
Encoding: 34 34 2
Width: 950
Flags: HW
LayerCount: 2
Fore
SplineSet
365 1229 m 1
 355 950 l 1
 240 950 l 1
 230 1229 l 1
 230 1411 l 1
 365 1411 l 1
 365 1229 l 1
658 1217 m 5
 650 950 l 5
 535 950 l 5
 523 1249 l 5
 523 1411 l 5
 658 1411 l 5
 658 1217 l 5
EndSplineSet
EndChar

StartChar: numbersign
Encoding: 35 35 3
Width: 999
Flags: HW
LayerCount: 2
Fore
SplineSet
82 1030 m 1
 303 1030 l 1
 346 1364 l 1
 463 1364 l 1
 420 1030 l 1
 659 1030 l 1
 702 1364 l 1
 817 1364 l 1
 776 1030 l 1
 961 1030 l 1
 961 928 l 1
 762 928 l 1
 717 553 l 1
 922 553 l 1
 922 449 l 1
 702 449 l 1
 657 92 l 1
 539 92 l 1
 586 449 l 1
 346 449 l 1
 301 92 l 1
 182 92 l 1
 229 449 l 1
 43 449 l 1
 43 553 l 1
 244 553 l 1
 291 928 l 1
 80 928 l 1
 82 1030 l 1
403 928 m 1
 356 553 l 1
 602 553 l 1
 651 928 l 1
 403 928 l 1
EndSplineSet
EndChar

StartChar: dollar
Encoding: 36 36 4
Width: 1044
Flags: HW
LayerCount: 2
Fore
SplineSet
840 1149 m 1
 740.278395868 1185.2624015 637.430486556 1212 516 1212 c 0
 329.333333333 1212 236 1137 236 987 c 0
 236 857.259696412 292.112178806 806.219893984 388.5 767.5 c 128
 466.99314565 735.968565423 615.651170542 707.56168655 693.5 672.5 c 128
 814.524476206 617.992793159 887 529.145742085 887 356 c 0
 887 183.22968728 796.529863912 74.4106230531 674 21.5 c 128
 630 2.5 581.333333333 -9.33333333333 528 -14 c 1
 528 -188 l 1
 426 -188 l 1
 426 -16 l 1
 314.604396214 -7.92785479811 214.605299118 12.9802525335 113 43 c 1
 139 145 l 1
 245.186882425 113.253406285 343.125979071 86 461 86 c 0
 600.754001685 86 699.800670347 144.890378549 743.5 242 c 128
 758.5 275.333333333 766 313.333333333 766 356 c 0
 766 494.162842856 718.37981369 543.732569866 615 582.5 c 128
 536.656829861 611.878688802 379.602881402 645.516303512 301.5 679.5 c 128
 183.156186581 730.993109655 113 812.403890235 113 979 c 0
 113 1186.9756331 252.698932104 1294.33651443 442 1313 c 1
 442 1485 l 1
 547 1485 l 1
 547 1315 l 1
 656.333333333 1311 763.333333333 1289.66666667 868 1251 c 1
 840 1149 l 1
EndSplineSet
EndChar

StartChar: percent
Encoding: 37 37 5
Width: 1184
Flags: HW
LayerCount: 2
Fore
SplineSet
899 586 m 0
 1027.44734815 586 1105.43657954 512.413751802 1140 416 c 128
 1152.66666667 380.666666667 1159 341.666666667 1159 299 c 0
 1159 165.560634501 1098.16963138 72.9258409133 1004.5 32.5 c 128
 972.833333333 18.8333333333 937.666666667 12 899 12 c 0
 729.746374414 12 637 129.502199631 637 299 c 0
 637 432.823953809 696.774677584 525.461461659 791.5 565.5 c 128
 823.833333333 579.166666667 859.666666667 586 899 586 c 0
1051 299 m 256
 1051 403.406407776 1000.15283036 489 897 489 c 0
 795.047154354 489 745 405.530937657 745 303 c 0
 745 196.446750109 791.961291312 109 897 109 c 0
 1000.15525654 109 1051 194.600563247 1051 299 c 256
285 1358 m 0
 451.680731559 1358 545 1238.10208628 545 1071 c 256
 545 937.934875853 484.787918135 844.555256704 391 804.5 c 128
 359 790.833333333 323.666666667 784 285 784 c 0
 116.800693942 784 23 902.364471278 23 1071 c 0
 23 1204.82395381 82.7746775837 1297.46146166 177.5 1337.5 c 128
 209.833333333 1351.16666667 245.666666667 1358 285 1358 c 0
436 1071 m 256
 436 1174.41136057 387.042451874 1262 285 1262 c 0
 182.049576314 1262 133 1176.53820696 133 1073 c 0
 133 965.710171487 179.150099979 881 285 881 c 0
 386.60521855 881 436 968.049672708 436 1071 c 256
815 1370 m 1
 928 1358 l 1
 356 -23 l 1
 246 -8 l 1
 815 1370 l 1
EndSplineSet
EndChar

StartChar: ampersand
Encoding: 38 38 6
Width: 1161
Flags: HW
LayerCount: 2
Fore
SplineSet
1001 731 m 1
 968.349528039 545.980658889 912.659333349 385.3892281 838 240 c 1
 858.736712636 207.413737286 880.570074075 174.758903702 905 143 c 2
 1001 23 l 1
 922 -43 l 1
 864.00567513 23.1135303515 813.339138237 87.9912926448 768 156 c 1
 664 38.6666666667 548.666666667 -20 422 -20 c 0
 220.528470769 -20 93.9662032823 74.7121738737 39 223.5 c 128
 19.6666666667 275.833333333 10 335.666666667 10 403 c 0
 10 597.666666667 116.666666667 737 330 821 c 1
 262.666666667 929 229 1020.66666667 229 1096 c 0
 229 1224.49686598 304.473950452 1305.79960017 399.5 1342 c 128
 434.5 1355.33333333 473.333333333 1362 516 1362 c 256
 650.240830937 1362 740.616031561 1297.33241237 780.5 1202 c 128
 794.166666667 1169.33333333 801 1133.33333333 801 1094 c 256
 801 951.223337776 736.066472517 883.255149519 643.5 825.5 c 128
 604.5 801.166666667 556 776 498 750 c 1
 770 326 l 1
 828.090870033 446.891810608 866.889390974 589.209233844 901 748 c 1
 1001 731 l 1
518 1262 m 0
 415.382073238 1262 344 1199.85901094 344 1098 c 256
 344 975.519725923 395.524134011 906.603810536 449 831 c 1
 566.136549988 876.756464839 686 931.636699998 686 1087 c 0
 686 1198.8068956 627.160120892 1262 518 1262 c 0
127 403 m 0
 127 207.716836554 226.194609088 80 420 80 c 0
 515.661315663 80 591.930839777 126.595041555 647.5 172.5 c 128
 670.5 191.5 691 212.666666667 709 236 c 1
 377 741 l 1
 210.333333333 671.666666667 127 559 127 403 c 0
EndSplineSet
EndChar

StartChar: quotesingle
Encoding: 39 39 7
Width: 842
Flags: HW
LayerCount: 2
Fore
SplineSet
485 1212 m 1
 475 950 l 1
 360 950 l 1
 348 1239 l 1
 348 1411 l 1
 485 1411 l 1
 485 1212 l 1
EndSplineSet
EndChar

StartChar: parenleft
Encoding: 40 40 8
Width: 885
Flags: HW
LayerCount: 2
Fore
SplineSet
616 -307 m 1
 416.319360374 -69.1781146031 279 217.874538002 279 647 c 0
 279 1077.15368636 417.262093026 1364.42824913 616 1602 c 1
 688 1526 l 1
 519.896691798 1297.37950085 410 1037.73358459 410 647 c 0
 410 260.495365056 519.981986721 -6.21914439653 688 -231 c 1
 616 -307 l 1
EndSplineSet
EndChar

StartChar: parenright
Encoding: 41 41 9
Width: 883
Flags: HW
LayerCount: 2
Fore
SplineSet
195 -229 m 1
 362.778686447 -4.53932488846 475 259.286758373 475 645 c 256
 475 1034.09024031 362.73586187 1295.87922786 195 1524 c 1
 266 1597 l 1
 466.383654446 1360.18295384 604 1074.82816145 604 645 c 0
 604 218.156868916 462.178994024 -66.4641777211 266 -305 c 1
 195 -229 l 1
EndSplineSet
EndChar

StartChar: asterisk
Encoding: 42 42 10
Width: 1010
Flags: HWO
LayerCount: 2
Fore
SplineSet
446 1135 m 1
 379 1423 l 1
 483 1446 l 1
 537 1153 l 1
 786 1329 l 1
 844 1239 l 1
 586 1077 l 1
 844 915 l 1
 784 823 l 1
 537 1001 l 1
 479 711 l 1
 373 733 l 1
 446 1022 l 1
 158 967 l 1
 137 1067 l 1
 388.807962321 1128.52126352 451 1136 446 1135 c 1
EndSplineSet
EndChar

StartChar: plus
Encoding: 43 43 11
Width: 997
Flags: HW
LayerCount: 2
Fore
SplineSet
557 541 m 1
 557 176 l 1
 440 176 l 1
 440 541 l 1
 68 541 l 1
 68 645 l 1
 440 645 l 1
 440 1010 l 1
 557 1010 l 1
 557 645 l 1
 928 645 l 1
 928 541 l 1
 557 541 l 1
EndSplineSet
EndChar

StartChar: comma
Encoding: 44 44 12
Width: 848
Flags: HW
LayerCount: 2
Fore
SplineSet
289 215 m 1
 477 215 l 1
 477 39 l 2
 477 -104.382317633 398.243192165 -199.426382281 326 -274 c 1
 274 -221 l 1
 315.786977813 -161.618505213 364.244909162 -89.5916350854 369 -4 c 1
 289 -4 l 1
 289 215 l 1
EndSplineSet
EndChar

StartChar: hyphen
Encoding: 45 45 13
Width: 967
Flags: HW
LayerCount: 2
Fore
SplineSet
199 565 m 1
 776 565 l 1
 776 449 l 1
 199 449 l 1
 199 565 l 1
EndSplineSet
EndChar

StartChar: period
Encoding: 46 46 14
Width: 854
Flags: HW
LayerCount: 2
Fore
SplineSet
289 240 m 1
 510 240 l 1
 510 0 l 1
 289 0 l 1
 289 240 l 1
EndSplineSet
EndChar

StartChar: slash
Encoding: 47 47 15
Width: 924
Flags: HW
LayerCount: 2
Fore
SplineSet
768 1497 m 1
 858 1458 l 1
 154 -121 l 1
 66 -84 l 1
 768 1497 l 1
EndSplineSet
EndChar

StartChar: zero
Encoding: 48 48 16
Width: 1081
Flags: HW
LayerCount: 2
Fore
SplineSet
543 1208 m 0
 351.721193319 1208 294.991013231 1077.6139898 275.5 900.5 c 128
 267.833333333 830.833333333 264 749 264 655 c 0
 264 378.349871072 268.848430133 96 539 96 c 0
 730.38102506 96 786.140244363 234.895285242 805.5 412.5 c 128
 813.166666667 482.833333333 817 565 817 659 c 0
 817 934.956320053 812.764532717 1208 543 1208 c 0
123 655 m 0
 123 1022.19525273 180.662635068 1323 541 1323 c 0
 896.575110179 1323 958 1020.29933589 958 655 c 0
 958 288.231374961 896.170115577 -18 541 -18 c 0
 184.6707424 -18 123 287.686482732 123 655 c 0
EndSplineSet
EndChar

StartChar: one
Encoding: 49 49 17
Width: 911
Flags: HW
LayerCount: 2
Fore
SplineSet
102 1114 m 1
 231.633905955 1176.47417154 341.323846905 1231.50352732 469 1311 c 1
 584 1303 l 1
 584 115 l 1
 786 111 l 5
 786 0 l 1
 215 0 l 1
 215 117 l 1
 453 117 l 1
 453 1157 l 1
 344.499433221 1100.10336132 254.280734623 1054.94871709 145 1001 c 1
 102 1114 l 1
EndSplineSet
EndChar

StartChar: two
Encoding: 50 50 18
Width: 1036
Flags: HW
LayerCount: 2
Fore
SplineSet
508 1206 m 0
 370.003597121 1206 275.508340377 1125.42046415 207 1032 c 1
 133 1104 l 1
 157.023834005 1125.49500937 180.837023775 1145.1010784 205 1165 c 1
 270.559876514 1253.62724047 378.672676542 1321 526 1321 c 0
 703.448675278 1321 813.686904806 1228.20325684 862.5 1096.5 c 128
 880.166666667 1048.83333333 889 994.666666667 889 934 c 0
 889 860 871.333333333 793.5 836 734.5 c 128
 800.666666667 675.5 752.666666667 619.666666667 692 567 c 1
 592.350485189 483.572499228 502.598100911 413.278511687 419 330.5 c 128
 357.505945561 269.608828448 307.575372839 210.726118517 279 125 c 1
 926 125 l 1
 926 0 l 1
 133 0 l 1
 138.597298633 139.932465829 192.639528796 245.488702791 257.5 330.5 c 128
 322.993694663 416.341250286 409.840062194 489.550558019 492 555 c 1
 582 629 l 2
 675.083148613 705.847715716 752.701689992 796.874359628 756 942 c 1
 756 1101.37210816 666.458605673 1206 508 1206 c 0
EndSplineSet
EndChar

StartChar: three
Encoding: 51 51 19
Width: 1049
Flags: HW
LayerCount: 2
Fore
SplineSet
500 1208 m 0
 369.580166536 1208 272.913880882 1158.6412736 188 1092 c 1
 123 1169 l 1
 183.494579223 1243.60998104 296.294869558 1292.12867955 409 1313 c 128
 445 1319.66666667 477.333333333 1323 506 1323 c 0
 733.748891754 1323 885 1216.08417321 885 989 c 0
 885 816.687154547 788.888534146 748.49057815 670 694 c 1
 670 692 l 1
 826.39278331 662.339299717 930 552.780105507 930 367 c 0
 930 98.0443987206 769.346001218 -20 492 -20 c 0
 320.057071778 -20 186.618683459 36.101877503 100 125 c 1
 113 164 l 1
 166 215 l 1
 246.595338724 137.762800389 353.1058639 92 494 92 c 0
 682.647869135 92 784 176.270909036 784 365 c 0
 784 553.256286949 681.459520437 621.758299416 498 627 c 1
 434.071828409 620.340815459 368.927804346 616.659146286 305 610 c 1
 295 713 l 1
 432 729 l 2
 597.890120587 748.90681447 745 798.642864126 745 981 c 0
 745 1133.96302659 652.250198918 1208 500 1208 c 0
EndSplineSet
EndChar

StartChar: four
Encoding: 52 52 20
Width: 1028
Flags: HW
LayerCount: 2
Fore
SplineSet
940 367 m 1
 940 260 l 1
 756 260 l 1
 756 -20 l 1
 643 -20 l 1
 643 260 l 1
 88 260 l 1
 88 356 l 1
 424 1298 l 1
 541 1298 l 1
 215 367 l 1
 643 367 l 1
 643 797 l 1
 756 797 l 1
 756 367 l 1
 940 367 l 1
EndSplineSet
EndChar

StartChar: five
Encoding: 53 53 21
Width: 1049
Flags: HW
LayerCount: 2
Fore
SplineSet
524 719 m 0
 406.352592972 719 317.935517468 661.935517468 254 598 c 1
 174 627 l 1
 178.07950143 822.816068619 184.351230433 1035.96196939 186.5 1231.5 c 128
 186.833333333 1261.83333333 187.333333333 1284.66666667 188 1300 c 1
 874 1300 l 1
 874 1178 l 1
 297 1178 l 1
 279 745 l 1
 342.721976716 791.566059908 432.718476782 834 539 834 c 0
 802.651908656 834 938 682.816307763 938 418 c 0
 938 202.709947905 842.021830178 65.5266037697 684 7 c 128
 630 -13 569.333333333 -23 502 -23 c 0
 340.319191436 -23 216.613758695 38.5698196755 119 109 c 1
 176 207 l 1
 265.559861834 151.68361475 360.969516987 92 504 92 c 0
 703.434726112 92 807 217.620543867 807 418 c 0
 807 613.949953649 718.609195093 719 524 719 c 0
EndSplineSet
EndChar

StartChar: six
Encoding: 54 54 22
Width: 1063
Flags: HW
LayerCount: 2
Fore
SplineSet
266 705 m 1
 337.495324268 779.745111735 428.777854093 840 557 840 c 0
 788.658870031 840 906.728342485 734.877677749 951.5 547.5 c 128
 960.5 509.833333333 965 467.333333333 965 420 c 0
 965 182.480480889 856.224309254 34.5872153327 664.5 -12 c 128
 628.833333333 -20.6666666667 589 -25 545 -25 c 0
 220.657180044 -25 113.224554032 200.003147547 120 532 c 128
 120.666666667 564.666666667 123 597.666666667 127 631 c 1
 145.552437744 930.931076858 263.292489901 1119.10459836 470 1227.5 c 128
 497.333333333 1241.83333333 527 1254 559 1264 c 1
 644.964648335 1286.68511553 719.838718779 1288.40407566 811 1298 c 1
 819 1194 l 1
 754.351543096 1160.27037031 655.013370899 1163.81442457 578 1143 c 1
 390.696588809 1084.13321363 293.706386637 923.18779477 266 705 c 1
252 453 m 1
 252 230.520335799 324.943487209 90 545 90 c 0
 748.828174373 90 831 217.576293223 831 422 c 0
 831 617.487763326 745.353654182 727 551 727 c 0
 420.59851953 727 330.946891519 650.635644376 284.5 563 c 128
 266.833333333 529.666666667 256 493 252 453 c 1
EndSplineSet
EndChar

StartChar: seven
Encoding: 55 55 23
Width: 983
Flags: HW
LayerCount: 2
Fore
SplineSet
129 1300 m 1
 866 1300 l 1
 866 1180 l 2
 866 1166 862 1148.66666667 854 1128 c 1
 716.786568976 835.278013815 537.795211376 543.396440382 456.5 194 c 128
 440.833333333 126.666666667 432.666666667 62.6666666667 432 2 c 1
 297 2 l 1
 300.006933995 165.877902724 348.351512928 315.293898016 398.5 444.5 c 128
 478.546334413 650.73702631 587.473269062 845.082033303 679 1035 c 128
 705.666666667 1090.33333333 725.666666667 1140 739 1184 c 1
 128 1184 l 1
 127.968 1184 129 1299 129 1300 c 1
EndSplineSet
EndChar

StartChar: eight
Encoding: 56 56 24
Width: 1061
Flags: HW
LayerCount: 2
Fore
SplineSet
924 991 m 0
 924 826.400159597 824.120511698 734.795435381 705 680 c 1
 873.666666667 621.333333333 958 507.333333333 958 338 c 0
 958 86.4021855868 781.416433982 -25 528 -25 c 0
 273.909852411 -25 109 91.9834068003 109 338 c 0
 109 500.666666667 192 613.333333333 358 676 c 1
 243.180223289 734.58151873 143 826.532581006 143 989 c 0
 143 1219.96988463 302.107794543 1327 535 1327 c 0
 718.099547753 1327 845.480952897 1258.9090557 898.5 1130 c 128
 915.5 1088.66666667 924 1042.33333333 924 991 c 0
532 88 m 0
 709.748312487 88 825 168.120040793 825 344 c 0
 825 519.643323851 700.646604633 603.821833594 535 621 c 1
 371.671150033 603.935791795 242 522.346250946 242 344 c 0
 242 164.930774863 351.669587576 88 532 88 c 0
532 735 m 1
 690.842098819 751.59544316 795 823.832888379 795 987 c 0
 795 1141.66666667 707.333333333 1219 532 1219 c 0
 367.9521596 1219 270 1147.78508284 270 989 c 0
 270 828.923695429 376.792282692 750.520771731 532 735 c 1
EndSplineSet
EndChar

StartChar: nine
Encoding: 57 57 25
Width: 1063
Flags: HW
LayerCount: 2
Fore
SplineSet
338 59 m 1
 381.003858393 104.870782286 464.329125196 115.133707111 528 141 c 1
 688.748716162 225.839600196 781.579906967 396.113488289 807 614 c 1
 719.666666667 522.666666667 624.666666667 477 522 477 c 0
 296.19334134 477 180.602780791 587.717547579 135 768.5 c 128
 125.666666667 805.5 121 847 121 893 c 0
 121 1133.10387765 240.828651976 1269.93762906 433 1317 c 128
 465.666666667 1325 501.666666667 1329 541 1329 c 0
 657.404069354 1329 751.590855259 1294.73300165 813 1241 c 1
 900.428086562 1172.57801921 943.616223394 1048.52638313 954 899 c 1
 956 817.666666667 952 738.666666667 942 662 c 1
 930.289795736 504.748685593 892.542192388 380.788191639 831 279.5 c 128
 791.511344544 214.508254562 763.436813996 167.020556103 709 115.5 c 128
 669.783386065 78.3842760971 622.182263815 43.3248875308 569 18 c 1
 539.573969486 10.0776071692 511.756043266 7 478.5 7 c 128
 459 7 459 7 442 7 c 128
 430.666666667 7 420 6.66666666667 410 6 c 1
 338 59 l 1
821 866 m 1
 821 1081.14323348 754.76668718 1214 539 1214 c 0
 388.163525524 1214 311.086746955 1140.47394139 271.5 1028.5 c 128
 259.833333333 995.5 254 951.666666667 254 897 c 0
 254 784.717640423 281.339296256 698.286821792 342 649 c 0
 384.094067732 615.324745814 464.743104079 584.920326745 551 594 c 1
 671.192247471 600.677347082 753.664642523 671.578871016 794 760.5 c 128
 808.666666667 792.833333333 817.666666667 828 821 866 c 1
EndSplineSet
EndChar

StartChar: colon
Encoding: 58 58 26
Width: 854
Flags: HW
LayerCount: 2
Fore
SplineSet
287 841 m 1
 508 841 l 1
 508 601 l 1
 287 601 l 1
 287 841 l 1
287 287 m 5
 508 287 l 5
 508 47 l 5
 287 47 l 5
 287 287 l 5
EndSplineSet
EndChar

StartChar: semicolon
Encoding: 59 59 27
Width: 854
Flags: HW
LayerCount: 2
Fore
SplineSet
287 862 m 1
 481 862 l 1
 481 649 l 1
 287 649 l 1
 287 862 l 1
293 305 m 1
 483 305 l 1
 483 129 l 2
 483 -15.2762614034 402.699842435 -110.955001358 330 -186 c 1
 279 -133 l 1
 321.497828404 -72.6083491104 367.12395231 0.938684942923 375 86 c 1
 293 86 l 1
 293 305 l 1
EndSplineSet
EndChar

StartChar: less
Encoding: 60 60 28
Width: 1038
Flags: HW
LayerCount: 2
Fore
SplineSet
872 61 m 1
 82 563 l 1
 82 629 l 1
 872 1116 l 1
 936 1030 l 1
 221 596 l 1
 934 150 l 1
 872 61 l 1
EndSplineSet
EndChar

StartChar: equal
Encoding: 61 61 29
Width: 1028
Flags: HW
LayerCount: 2
Fore
SplineSet
84 371 m 1
 84 467 l 1
 944 467 l 1
 944 371 l 1
 84 371 l 1
84 684 m 1
 84 780 l 1
 944 780 l 1
 944 684 l 1
 84 684 l 1
EndSplineSet
EndChar

StartChar: greater
Encoding: 62 62 30
Width: 1040
Flags: HW
LayerCount: 2
Fore
SplineSet
158 61 m 1
 96 150 l 1
 811 596 l 1
 96 1030 l 1
 158 1116 l 1
 950 629 l 1
 950 563 l 1
 158 61 l 1
EndSplineSet
EndChar

StartChar: question
Encoding: 63 63 31
Width: 983
Flags: HW
LayerCount: 2
Fore
SplineSet
393 334 m 1
 383.375615615 367.685345348 379 424.02363728 379 471 c 0
 379 491 379 491 379 508 c 128
 379 599.970527105 427.079859568 654.624905638 474.5 709 c 128
 548.661616284 794.03865334 642.568964497 873.540462504 696.5 977 c 128
 712.833333333 1008.33333333 721 1040.33333333 721 1073 c 0
 721 1168.284039 680.852816577 1212.21406039 616.5 1245.5 c 128
 587.5 1260.5 550.666666667 1268 506 1268 c 0
 388.311177844 1268 333.616951739 1230.71415658 263 1183 c 128
 238.333333333 1166.33333333 212 1144.66666667 184 1118 c 1
 117 1208 l 1
 155.712631807 1251.94406854 211.920257954 1292.94925506 256 1321 c 1
 319.374836403 1359.31966852 395.42860012 1389 502 1389 c 0
 688.569486591 1389 811.273296665 1300.3006009 846.5 1150 c 128
 851.5 1128.66666667 854 1105.66666667 854 1081 c 0
 854 894.870090882 770.207660739 819.069681943 672 727 c 1
 632.666666667 692.333333333 601.833333333 664 579.5 642 c 128
 523.922274326 587.25179262 504 548.254463608 504 442 c 0
 504 407.010219596 505.555110278 370.228456103 508 336 c 1
 469.897825988 333.372263861 430.782664017 336.698761715 393 334 c 1
360 193 m 1
 547 193 l 1
 547 -8 l 1
 360 -8 l 1
 360 193 l 1
EndSplineSet
EndChar

StartChar: at
Encoding: 64 64 32
Width: 1257
Flags: HW
LayerCount: 2
Fore
SplineSet
533 436.5 m 128
 533 306.366478253 573.844400971 197 702 197 c 0
 762.731669605 197 809.87537906 220.95292809 852 246 c 1
 876.143154653 268.418643607 884.947656953 328.598703308 891 375 c 128
 902.384869649 462.284000641 905.327636835 569.538583614 906.5 664.5 c 128
 906.833333333 691.5 907.666666667 712.333333333 909 727 c 1
 862.844636605 747.513494842 795.937142766 760 729 760 c 0
 567.098261414 760 533 608.348873511 533 436.5 c 128
815 860 m 0
 820.333333333 860 825.666666667 859 831 859 c 0
 833.666666667 858.333333333 836.666666667 858 840 858 c 1
 851.175002857 802.124985717 862.356907442 750.92178584 874 694 c 1
 897.050444269 686.796736166 916.581241364 678.079415829 938 668 c 1
 938 674.666666667 940.5 682 945.5 690 c 128
 950.5 698 959.666666667 711.666666667 973 731 c 1
 1017.56359222 734.713632685 1014.32997952 837.680081913 1004 879 c 1
 974.011890224 978.50600062 875.128546153 1035.00227675 762 1053 c 1
 644.512138379 1070.05468959 554.565697072 1041.33867391 478 995.5 c 128
 320.761973471 901.364076223 225 717.252520103 225 465 c 0
 225 212.025583552 307.227238425 22.6420617481 477 -58 c 128
 530.333333333 -83.3333333333 590.333333333 -96 657 -96 c 0
 778.570035764 -96 881.989105124 -70.0036316254 981 -37 c 1
 1018 -143 l 1
 896.231996898 -186.711590857 784.694367597 -208.958079411 649.5 -206.5 c 128
 374.515406473 -201.500280118 214.358125198 -35.7337666293 143 182 c 128
 117 261.333333333 104 353.666666667 104 459 c 0
 104 789.419931553 236.587237689 1023.79448116 466 1123 c 128
 540 1155 621 1171 709 1171 c 0
 889.689060639 1173.00765623 1040.59169473 1112.30522771 1120 1012 c 128
 1145.33333333 980 1159.66666667 945.666666667 1163 909 c 1
 1163 613.622957531 1115.90187833 348.705635004 1042 127 c 1
 936.683861709 97.9999039487 844.583698084 122.015270888 776 172 c 1
 719.956931859 126.25055662 656.526291508 93.6173150309 567 127 c 0
 451.9855412 171.017879294 401 304.012845982 401 469 c 0
 401 622.297443497 454.818722143 741.771173851 542 810 c 128
 572.666666667 834 607.666666667 850 647 858 c 1
 702.425962846 866.987993975 753.814917309 856.474033076 795 840 c 1
 799.703821395 851.289171348 803.298005424 860 815 860 c 0
EndSplineSet
EndChar

StartChar: A
Encoding: 65 65 33
Width: 1120
Flags: HW
LayerCount: 2
Fore
SplineSet
575 1268 m 1
 535 1214 l 1
 303 440 l 1
 815 440 l 1
 575 1268 l 1
465 1374 m 1
 664 1374 l 1
 1090 0 l 1
 950 0 l 1
 850 328 l 1
 268 328 l 1
 166 0 l 1
 29 0 l 1
 465 1374 l 1
EndSplineSet
EndChar

StartChar: B
Encoding: 66 66 34
Width: 1130
Flags: HW
LayerCount: 2
Fore
SplineSet
510 762 m 2
 721.617091933 762 854 814.708216281 854 1026 c 0
 854 1168.0101446 795.423199768 1231.43409184 673 1250.5 c 128
 632.333333333 1256.83333333 584.666666667 1260 530 1260 c 2
 287 1260 l 1
 287 762 l 1
 510 762 l 2
895 389 m 0
 895 594.852286014 762.557579167 651 555 651 c 2
 287 651 l 1
 287 113 l 1
 506 113 l 2
 682.995086219 113 824.233564871 129.906777701 873.5 252.5 c 128
 887.833333333 288.166666667 895 333.666666667 895 389 c 0
752 715 m 1
 925.290971806 682.507942786 1032 594.620910419 1032 387 c 0
 1032 116.335339173 892.565454424 19.9411309873 639.5 4 c 128
 597.166666667 1.33333333333 550 0 498 0 c 2
 156 0 l 1
 156 1374 l 1
 502 1374 l 2
 560.126426978 1374 611.917347532 1372.95592395 662 1366 c 1
 874.268970654 1344.64749999 983 1242.43246674 983 1018 c 0
 983 839.036301417 886.50605375 758.920344082 752 715 c 1
EndSplineSet
EndChar

StartChar: C
Encoding: 67 67 35
Width: 1147
Flags: HW
LayerCount: 2
Fore
SplineSet
637 96 m 0
 794.178934056 96 912.356974088 142.244737227 994 220 c 1
 1053 123 l 1
 962.78577732 28.0376603367 816.298897223 -27 635 -27 c 0
 351.21890991 -27 222.892056513 110.72689301 156.5 335.5 c 128
 128.833333333 429.166666667 115 543.333333333 115 678 c 0
 115 1096.81806368 220.887753651 1397 637 1397 c 0
 790.605743863 1397 919.750481105 1361.15422781 1030 1319 c 1
 1030 1059 l 1
 907 1034 l 1
 907 1231 l 1
 832.733715908 1258.36126256 742.926508849 1278 639 1278 c 0
 313.422151779 1278 254 1013.59568268 254 686 c 0
 254 362.841317384 317.363017204 96 637 96 c 0
EndSplineSet
EndChar

StartChar: D
Encoding: 68 68 36
Width: 1157
Flags: HW
LayerCount: 2
Fore
SplineSet
145 0 m 1
 145 1374 l 1
 481 1374 l 2
 654.242175914 1374 797.02654707 1337.77113346 891 1260 c 1
 1021.11349007 1147.00670599 1061 936.482459575 1061 688 c 0
 1061 432.448368365 1016.79343344 225.902135984 881 111 c 1
 790.879403503 37.6815486129 655.30073003 0 481 0 c 2
 145 0 l 1
276 1257 m 1
 276 117 l 1
 449 117 l 2
 631.215842875 117 762.480233799 145.289955374 834 254 c 1
 900.607012335 357.610908077 922 511.194427947 922 686 c 0
 922 857.691142756 904.234735414 1005.83486312 842 1112 c 0
 779.691676346 1218.81426912 656.448791757 1257 477 1257 c 2
 276 1257 l 1
EndSplineSet
EndChar

StartChar: E
Encoding: 69 69 37
Width: 1069
Flags: HW
LayerCount: 2
Fore
SplineSet
176 1374 m 1
 926 1374 l 1
 920 1260 l 1
 307 1260 l 1
 307 762 l 1
 864 762 l 1
 864 649 l 1
 307 649 l 1
 307 115 l 1
 924 115 l 1
 930 0 l 1
 176 0 l 1
 176 1374 l 1
EndSplineSet
EndChar

StartChar: F
Encoding: 70 70 38
Width: 1040
Flags: HW
LayerCount: 2
Fore
SplineSet
182 1374 m 1
 924 1374 l 1
 913 1255 l 1
 313 1255 l 1
 313 705 l 1
 831 705 l 1
 831 590 l 1
 313 590 l 1
 313 0 l 1
 182 0 l 1
 182 1374 l 1
EndSplineSet
EndChar

StartChar: G
Encoding: 71 71 39
Width: 1171
Flags: HW
LayerCount: 2
Fore
SplineSet
618 94 m 0
 742.388467269 94 830.465494287 130.451921299 915 174 c 1
 915 551 l 1
 618 551 l 1
 618 666 l 1
 1049 666 l 1
 1049 -1 l 1
 935 0 l 1
 925 78 l 1
 840.513603063 13.5235391797 715.84276987 -23 561 -23 c 0
 254.1108993 -23 139.12680635 211.783703696 102 482.5 c 128
 94 540.833333333 90 606 90 678 c 0
 90 1005.61345259 161.975151189 1263.76099735 395 1356 c 128
 460.628973531 1381.97813536 538.229354729 1397 631 1397 c 0
 812.141124372 1397 946.894433139 1340.24672899 1038 1245 c 1
 977 1147 l 1
 899.72367413 1226.54915898 781.808796713 1278 629 1278 c 0
 400.885478111 1278 310.940519258 1176.15566476 261 992 c 128
 239.666666667 913.333333333 229 810 229 682 c 0
 229 482.961750852 256.837855457 309.994573451 346 203 c 1
 399.381789619 132.760803133 490.703078749 94 618 94 c 0
EndSplineSet
EndChar

StartChar: H
Encoding: 72 72 40
Width: 1212
Flags: HW
LayerCount: 2
Fore
SplineSet
147 1374 m 1
 278 1374 l 1
 278 750 l 1
 943 750 l 1
 943 1374 l 1
 1075 1374 l 1
 1075 0 l 1
 943 0 l 1
 943 635 l 1
 278 635 l 1
 278 0 l 1
 147 0 l 1
 147 1374 l 1
EndSplineSet
EndChar

StartChar: I
Encoding: 73 73 41
Width: 920
Flags: HW
LayerCount: 2
Fore
SplineSet
186 1374 m 1
 737 1374 l 1
 735 1272 l 1
 530 1272 l 1
 530 102 l 1
 733 102 l 1
 733 0 l 1
 186 0 l 1
 186 102 l 1
 399 102 l 1
 399 1272 l 1
 186 1272 l 1
 186 1374 l 1
EndSplineSet
EndChar

StartChar: J
Encoding: 74 74 42
Width: 956
Flags: HW
LayerCount: 2
Fore
SplineSet
158 160 m 1
 211.191300131 109.226486239 264.134429706 86 360 86 c 0
 468.509926466 86 489.373375432 143.61786984 499.5 248 c 128
 503.833333333 292.666666667 506 352 506 426 c 2
 506 1243 l 1
 281 1274 l 1
 281 1374 l 1
 709 1374 l 1
 709 1245 l 1
 637 1186 l 1
 637 406 l 2
 637 250.842140114 629.996460463 129.151272526 573 49 c 1
 533.552645092 -13.8235652237 457.641433622 -33 350 -33 c 0
 275.794701493 -33 219.032456583 2.97004007681 180 39 c 1
 152.916768644 47.3333019556 112.911847562 62.7793371943 96 78 c 1
 158 160 l 1
EndSplineSet
EndChar

StartChar: K
Encoding: 75 75 43
Width: 1104
Flags: HW
LayerCount: 2
Fore
SplineSet
885 0 m 1
 751.81072317 242.675377275 628.622608147 460.488858856 500 668 c 1
 293 600 l 1
 293 0 l 1
 160 0 l 1
 160 1374 l 1
 293 1374 l 1
 293 715 l 1
 487 774 l 1
 597.78109362 932.459032647 699.412255681 1093.35375947 803 1266 c 2
 868 1374 l 1
 1022 1374 l 1
 885.904236743 1143.12325876 754.018256019 931.210598459 608 731 c 1
 662.228240462 647.333571858 718.594534996 559.943048896 772 465 c 1
 1040 0 l 1
 885 0 l 1
EndSplineSet
EndChar

StartChar: L
Encoding: 76 76 44
Width: 1030
Flags: HW
LayerCount: 2
Fore
SplineSet
188 0 m 1
 188 1374 l 1
 322 1374 l 1
 322 117 l 1
 903 117 l 1
 903 0 l 1
 188 0 l 1
EndSplineSet
EndChar

StartChar: M
Encoding: 77 77 45
Width: 1253
Flags: HW
LayerCount: 2
Fore
SplineSet
969 1374 m 1
 1124 1374 l 1
 1124 0 l 1
 999 0 l 1
 999 1118 l 1
 993 1118 l 1
 707 350 l 1
 545 350 l 1
 258 1120 l 1
 254 1120 l 1
 254 0 l 1
 129 0 l 1
 129 1374 l 1
 285 1374 l 1
 623 474 l 1
 630 473 l 1
 969 1374 l 1
EndSplineSet
EndChar

StartChar: N
Encoding: 78 78 46
Width: 1196
Flags: HW
LayerCount: 2
Fore
SplineSet
133 1374 m 1
 276 1374 l 1
 493.999931423 990.999931423 712.006579836 608.006579836 930 225 c 1
 934 225 l 1
 934 1374 l 1
 1063 1374 l 1
 1063 0 l 1
 924 0 l 1
 741.454996244 323.602506658 568.871719518 626.800500861 389 948 c 1
 264 1167 l 1
 260 1167 l 1
 260 0 l 1
 133 0 l 1
 133 1374 l 1
EndSplineSet
EndChar

StartChar: O
Encoding: 79 79 47
Width: 1190
Flags: HW
LayerCount: 2
Fore
SplineSet
956 688 m 0
 956 1008.98259165 912.094082976 1278 596 1278 c 0
 381.80376739 1278 297.670612213 1163.0786171 257.5 986 c 128
 241.166666667 914 233 823.666666667 233 715 c 0
 233 581.666666667 241.666666667 473 259 389 c 128
 287.738253622 249.730001677 326.827762252 173.520960843 434.5 123.5 c 128
 476.833333333 103.833333333 530 94 594 94 c 0
 724.767182606 94 818.14523178 142.180381755 866 221 c 1
 936.893059487 330.562001026 956 491.490328715 956 688 c 0
594 -27 m 0
 185.833186107 -27 94 287.411452181 94 698 c 0
 94 1111.53496313 194.200135997 1397 596 1397 c 0
 793.485720644 1397 925.595719465 1319.24118098 995 1192 c 1
 1064.52628836 1076.12285273 1096 918.335241078 1096 729 c 0
 1096 463.921245035 1063.16931804 230.043335231 936 96 c 1
 858.517052534 21.4971658984 747.206616097 -27 594 -27 c 0
EndSplineSet
EndChar

StartChar: P
Encoding: 80 80 48
Width: 1096
Flags: HW
LayerCount: 2
Fore
SplineSet
864 950 m 0
 864 1189.41933831 748.622193149 1257 506 1257 c 2
 291 1257 l 1
 291 637 l 1
 477 637 l 2
 732.398647258 637 864 699.407157964 864 950 c 0
1004 952 m 0
 1004 635.039590664 822.453634669 522 502 522 c 2
 291 522 l 1
 291 0 l 1
 158 0 l 1
 158 1374 l 1
 481 1374 l 2
 814.277100496 1374 1004 1280.90213309 1004 952 c 0
EndSplineSet
EndChar

StartChar: Q
Encoding: 81 81 49
Width: 1190
Flags: HW
LayerCount: 2
Fore
SplineSet
725 125 m 1
 682.148087991 175.88664551 640.872446224 223.127553776 594 270 c 1
 670 360 l 1
 723.266969931 301.125980603 768.908368595 250.509957686 821 188 c 1
 844.961880034 205.656122131 863.237308437 225.639476675 879 250 c 1
 936.407628499 364.815256999 956 523.0350742 956 700 c 256
 956 941.299835006 929.388721804 1167.87996929 767 1244.5 c 128
 719.666666667 1266.83333333 662.666666667 1278 596 1278 c 0
 363.178287693 1278 280.736908531 1151.71406578 250 946.5 c 128
 238.666666667 870.833333333 233 782 233 680 c 0
 233 510.423740627 255.706037582 379.938725207 299 262 c 1
 343.924954608 145.19511802 448.068871021 92 612 92 c 0
 660.378942671 92 696.126845391 103.65897268 725 125 c 1
901 86 m 1
 947.194180417 18.6884799638 989.315487452 -40.3566739287 1040 -102 c 1
 956 -186 l 1
 900.532005976 -115.27830762 855.801416038 -55.2420178548 803 20 c 1
 751.352466492 -9.69733176688 680.350165853 -27 600 -27 c 0
 190.095171828 -27 94 290.709685679 94 700 c 0
 94 1008.06060786 154.122650406 1245.1330505 355.5 1351 c 128
 413.833333333 1381.66666667 487 1397 575 1397 c 0
 992.314760388 1397 1096 1121.31394539 1096 702 c 0
 1096 489.554685427 1069.12483045 305.39176031 991 174 c 1
 967.67298203 139.78704031 939.115363538 109.822102211 901 86 c 1
EndSplineSet
EndChar

StartChar: R
Encoding: 82 82 50
Width: 1124
Flags: HW
LayerCount: 2
Fore
SplineSet
479 688 m 2
 687.205392739 688 829.373455855 734.159328823 852 918 c 1
 864.123749279 957.065414344 866.007088832 998.243541455 862 1049 c 1
 846.048202707 1182.59630233 771.0048916 1235.084586 635.5 1249.5 c 128
 588.5 1254.5 533 1257 469 1257 c 2
 279 1257 l 1
 279 688 l 1
 479 688 l 2
588 578 m 1
 534.206668513 573.780915177 490.509871974 573 442 573 c 2
 279 573 l 1
 279 0 l 1
 147 0 l 1
 147 1374 l 1
 494 1374 l 2
 730.779458083 1374 909.415439834 1333.85165775 976 1168.5 c 128
 996 1118.83333333 1006 1057 1006 983 c 0
 1006 747.449282233 902.156298351 650.388234171 715 600 c 1
 836.468727194 426.907063749 933.464955006 210.350530129 1024 6 c 1
 893 -12 l 1
 797.721839773 190.175608287 699.207635154 396.023869747 588 578 c 1
EndSplineSet
EndChar

StartChar: S
Encoding: 83 83 51
Width: 1083
Flags: HW
LayerCount: 2
Fore
SplineSet
551 1278 m 0
 374.958280583 1278 254 1212.73620613 254 1044 c 0
 254 853.043407995 403.957277919 812.836013532 563 774 c 1
 788.039154011 716.000218038 961 650.32503245 961 369 c 0
 961 167.723997443 849.05011863 50.7973758855 694.5 0.5 c 128
 638.166666667 -17.8333333333 574.666666667 -27 504 -27 c 0
 349.030091188 -27 215.41449415 19.7221427997 111 78 c 1
 150 195 l 1
 242.544515064 142.795401759 374.662878916 94 512 94 c 0
 698.896778349 94 821 184.482231923 821 365 c 0
 821 504.702682199 770.947995869 565.193484432 669 606.5 c 128
 583.164035389 641.278364972 428.570564111 670.414927431 343.5 706 c 128
 208.04133756 762.662447034 115 854.275291427 115 1042 c 0
 115 1288.35068812 296.051490154 1399 543 1399 c 0
 701.897864026 1399 815.463326018 1353.05694749 926 1307 c 1
 887 1186 l 1
 791.119073811 1229.58223918 690.294270962 1278 551 1278 c 0
EndSplineSet
EndChar

StartChar: T
Encoding: 84 84 52
Width: 1063
Flags: HW
LayerCount: 2
Fore
SplineSet
80 1374 m 1
 981 1374 l 1
 981 1255 l 1
 594 1255 l 1
 594 0 l 1
 463 0 l 1
 463 1255 l 1
 80 1255 l 1
 80 1374 l 1
EndSplineSet
EndChar

StartChar: U
Encoding: 85 85 53
Width: 1180
Flags: HW
LayerCount: 2
Fore
SplineSet
592 90 m 0
 835.506797713 90 915 223.63025283 915 471 c 2
 915 1374 l 1
 1049 1374 l 1
 1049 668 l 2
 1049 497.815854499 1044.02801919 334.706436452 1002.5 209 c 128
 990.166666667 171.666666667 974 140.333333333 954 115 c 1
 884.446965136 20.1549524584 753.747274088 -29 588 -29 c 0
 371.810881606 -29 224.104614493 49.8396511786 172.5 213.5 c 128
 133.547729331 337.034344121 131 501.130543964 131 666 c 2
 131 1374 l 1
 264 1374 l 1
 264 674 l 2
 264 560.472367915 268.381620193 466.038937496 276 367 c 1
 285.366844362 176.540831299 388.828788924 90 592 90 c 0
EndSplineSet
EndChar

StartChar: V
Encoding: 86 86 54
Width: 1090
Flags: HW
LayerCount: 2
Fore
SplineSet
457 0 m 1
 374.383198756 299.072820504 291.612379598 583.318099927 197 911 c 1
 66 1374 l 1
 205 1374 l 1
 319 950 l 1
 390.412843835 678.631193426 473.561162009 403.572411822 541 129 c 1
 553 129 l 1
 569.666666667 193 587.833333333 261.333333333 607.5 334 c 128
 637 443 637 443 666.5 552 c 128
 701.854283991 682.631083219 740.650294949 824.601179797 772 950 c 1
 887 1374 l 1
 1024 1374 l 1
 858 778 l 1
 779.979935459 514.418700873 710.236614066 261.559335949 637 0 c 1
 457 0 l 1
EndSplineSet
EndChar

StartChar: W
Encoding: 87 87 55
Width: 1270
Flags: HW
LayerCount: 2
Fore
SplineSet
375 221 m 1
 393.905138824 296.620555296 413.543374433 369.346211402 436 442 c 1
 480.890436728 618.442896606 523.652053075 797.014613591 571 971 c 1
 700 971 l 1
 768.038597579 724.705264245 828.412072475 470.745405809 893 221 c 1
 928 131 l 1
 975 475 l 1
 1024.26417611 775.910913513 1075.12044159 1071.29199426 1122 1374 c 1
 1253 1374 l 1
 1026 0 l 1
 831 0 l 1
 674 631 l 1
 637 795 l 1
 633 795 l 1
 569.967401868 526.699264799 500.213035327 265.120298007 434 0 c 1
 242 0 l 1
 14 1374 l 1
 147 1374 l 1
 195.153069565 1071.70572995 243.65583407 776.399500006 293 475 c 1
 340 131 l 1
 375 221 l 1
EndSplineSet
EndChar

StartChar: X
Encoding: 88 88 56
Width: 1077
Flags: HW
LayerCount: 2
Fore
SplineSet
444 707 m 1
 325.16724818 927.833914847 209.003858774 1151.33719211 92 1374 c 1
 252 1374 l 1
 336.972299122 1210.12485169 419.74493808 1010.27957326 507.5 849 c 128
 519.833333333 826.333333333 528 815 532 815 c 1
 809 1374 l 1
 963 1374 l 1
 882.345700672 1216.72411631 801.255943503 1063.55163441 719 907 c 1
 610 707 l 1
 729 494 l 1
 817.494246275 327.738082757 904.567086303 164.907077918 995 0 c 1
 831 0 l 1
 526 596 l 1
 522 596 l 1
 233 0 l 1
 76 0 l 1
 162.844580368 165.672737933 245.154509991 328.325526752 332 494 c 2
 444 707 l 1
EndSplineSet
EndChar

StartChar: Y
Encoding: 89 89 57
Width: 1063
Flags: HW
LayerCount: 2
Fore
SplineSet
463 586 m 1
 329.227900081 847.463649842 172.778658651 1110.49658145 39 1374 c 1
 190 1374 l 1
 275.696707092 1199.92856372 378.898597309 1012.20763408 463 840 c 1
 528 711 l 1
 530 711 l 1
 598 840 l 1
 681.96791432 1011.93430075 783.093851351 1202.82122236 870 1374 c 1
 1022 1374 l 1
 902.365616784 1145.28720856 771.452440543 912.294892411 647.5 688 c 128
 626.5 650 608.666666667 616.666666667 594 588 c 1
 594 0 l 1
 463 0 l 1
 463 586 l 1
EndSplineSet
EndChar

StartChar: Z
Encoding: 90 90 58
Width: 1075
Flags: HW
LayerCount: 2
Fore
SplineSet
145 1374 m 1
 934 1374 l 1
 940 1266 l 1
 717.89240841 891.193439193 495.18983395 492.493602913 276 115 c 1
 971 115 l 1
 971 0 l 1
 125 0 l 1
 113 88 l 1
 341.412354868 472.694492409 571.956168504 869.097684355 795 1257 c 1
 145 1257 l 1
 145 1374 l 1
EndSplineSet
EndChar

StartChar: bracketleft
Encoding: 91 91 59
Width: 895
Flags: HW
LayerCount: 2
Fore
SplineSet
295 1591 m 1
 707 1591 l 1
 707 1487 l 1
 420 1487 l 1
 426 1298 l 1
 426 133 l 1
 420 -184 l 1
 707 -184 l 1
 707 -287 l 1
 295 -287 l 1
 295 1591 l 1
EndSplineSet
EndChar

StartChar: backslash
Encoding: 92 92 60
Width: 913
Flags: HW
LayerCount: 2
Fore
SplineSet
139 1473 m 1
 834 -55 l 1
 750 -96 l 1
 55 1432 l 1
 139 1473 l 1
EndSplineSet
EndChar

StartChar: bracketright
Encoding: 93 93 61
Width: 895
Flags: HW
LayerCount: 2
Fore
SplineSet
188 1591 m 1
 600 1591 l 1
 600 -287 l 1
 188 -287 l 1
 188 -184 l 1
 475 -184 l 1
 469 137 l 1
 469 1178 l 1
 475 1487 l 1
 188 1487 l 1
 188 1591 l 1
EndSplineSet
EndChar

StartChar: underscore
Encoding: 95 95 62
Width: 1044
Flags: HW
LayerCount: 2
Fore
SplineSet
39 -219 m 1
 39 -125 l 1
 1004 -125 l 1
 1004 -219 l 1
 39 -219 l 1
EndSplineSet
EndChar

StartChar: a
Encoding: 97 97 63
Width: 1047
Flags: HW
LayerCount: 2
Fore
SplineSet
520 889 m 0
 391.633295591 889 272.951272716 864.480363624 213 793 c 1
 152 879 l 1
 220.73143979 971.43193627 355.55953916 1001 514 1001 c 0
 722.598660987 1001 841.023844404 945.103648773 866 768 c 128
 873.333333333 716 877 654.666666667 877 584 c 2
 877 211 l 2
 877 134.51521806 889.715163252 65.536659909 907 6 c 1
 813 -4 l 1
 779.525385881 21.1059605892 764.665858916 61.2308382335 760 111 c 1
 708.53110932 59.5311093199 628.226987618 16.5270996463 545.5 -6.5 c 128
 513.166666667 -15.5 480 -20 446 -20 c 0
 236.467342368 -20 115 73.8261020042 115 279 c 0
 115 364.61079456 135.445935119 420.427129943 170 467 c 1
 232.444379304 543.494364648 342.541452956 584.456648055 489 588 c 1
 587.472183503 588 663.678252485 584 754 584 c 1
 754 729.0218199 750.023818415 842.627237466 642.5 875 c 128
 611.5 884.333333333 570.666666667 889 520 889 c 0
244 287 m 0
 244 140.814627318 308.309819383 92 459 92 c 0
 564.330312063 92 654.599694338 142.79971981 711 194.5 c 128
 731 212.833333333 745.333333333 230.666666667 754 248 c 1
 754 483 l 1
 557.245923429 483 293.658215569 519.085846878 251 351.5 c 128
 246.333333333 333.166666667 244 311.666666667 244 287 c 0
EndSplineSet
EndChar

StartChar: b
Encoding: 98 98 64
Width: 1067
Flags: HW
LayerCount: 2
Fore
SplineSet
561 887 m 0
 441.859656195 887 366.503278531 843.323723953 301 784 c 1
 288.028596143 686.714471075 281 586.474349663 281 473 c 0
 281 353.865462294 288.629362666 256.773520535 297 158 c 1
 354.196922701 119.868718199 446.12859166 92 539 92 c 0
 638.195180637 92 702.271837482 123.984822246 748 174 c 1
 810.728128786 246.137348104 838 352.418594214 838 498 c 0
 838 729.496673103 786.117709417 887 561 887 c 0
553 -20 m 0
 426.88303806 -20 351.538848813 31.4766907123 274 78 c 1
 266 0 l 1
 158 0 l 1
 158 1386 l 1
 281 1386 l 1
 281 868 l 1
 354.719797412 934.585623469 440.555149046 999 578 999 c 0
 872.932202158 999 967 795.506871246 967 502 c 0
 967 231.827952823 882.689336827 46.9223342067 667 -7 c 128
 632.333333333 -15.6666666667 594.333333333 -20 553 -20 c 0
EndSplineSet
EndChar

StartChar: c
Encoding: 99 99 65
Width: 1038
Flags: HW
LayerCount: 2
Fore
SplineSet
571 90 m 0
 690.685806629 90 785.454149017 128.817686271 840 197 c 1
 899 115 l 1
 838.175145414 29.8452035792 717.178066841 -20 574 -20 c 0
 430.217822199 -20 314.007727415 32.4568786071 252 111 c 1
 179.137021439 196.265187678 147 326.166867409 147 496 c 0
 147 806.384454185 265.987564487 1001 578 1001 c 0
 696.653847801 1001 790.577087954 973.828277353 870 940 c 1
 870 682 l 1
 754 672 l 1
 754 859 l 1
 699.566733707 877.586968978 645.252105142 889 573 889 c 0
 337.260355626 889 276 735.554198552 276 494 c 0
 276 260.510833736 338.055725781 90 571 90 c 0
EndSplineSet
EndChar

StartChar: d
Encoding: 100 100 66
Width: 1069
Flags: HW
LayerCount: 2
Fore
SplineSet
537 889 m 1
 304.188043972 884.046554127 238 730.964467046 238 489 c 0
 238 301.497059867 271.465726745 175.657105839 390.5 115.5 c 128
 421.5 99.8333333333 462.666666667 92 514 92 c 0
 633.427260364 92 707.493021612 137.882685878 774 197 c 1
 783.780552449 298.065708636 795 394.737760938 795 510 c 0
 795 624.740447301 787.10405002 718.023049621 782 815 c 1
 729.701016198 858.582486501 629.391226027 889 537 889 c 1
522 999 m 0
 644.440430769 999 724.868080649 959.547048384 795 905 c 1
 795 1386 l 1
 918 1386 l 1
 918 158 l 1
 932 -6 l 1
 821 -14 l 1
 801 113 l 1
 724.504298788 46.7037256167 639.235601335 -20 498 -20 c 0
 338.889188242 -20 241.321425799 47.4431862281 180 145 c 1
 130.434523055 234.217858502 109 349.464182928 109 492 c 0
 109 795.573994129 220.079681666 999 522 999 c 0
EndSplineSet
EndChar

StartChar: e
Encoding: 101 101 67
Width: 1047
Flags: HW
LayerCount: 2
Fore
SplineSet
791 551 m 1
 784.165249903 756.042502908 737.448374354 891 535 891 c 0
 447.064638192 891 384.170022055 867.47395299 344 823 c 1
 288.089687585 765.445266632 263.690458337 672.499625078 258 553 c 1
 414.333333333 553 570.666666667 553 727 553 c 1
 791 551 l 1
555 90 m 0
 686.811700883 90 772.016299674 130.887793212 838 199 c 1
 899 119 l 1
 858.961948659 44.9296050199 790.294909632 22.1739749749 703 -2 c 128
 659.666666667 -14 609.666666667 -20 553 -20 c 0
 244.147382095 -20 129 176.047572327 129 492 c 0
 129 730.749840061 194.178662716 895.635599185 358.5 970 c 128
 404.166666667 990.666666667 461.333333333 1001 530 1001 c 0
 673.252412924 1001 770.574218897 953.574804489 831 872 c 1
 889.00254843 800.612248086 920 689.485247622 920 553 c 1
 917.540473067 525.945203732 915 475.438114788 915 446 c 1
 258 446 l 1
 260.041164577 311.283137932 298.068266455 212.065266852 369 150 c 1
 408.113693105 112.516044108 471.18196921 90 555 90 c 0
EndSplineSet
EndChar

StartChar: f
Encoding: 102 102 68
Width: 920
Flags: HW
LayerCount: 2
Fore
SplineSet
791 1247 m 1
 745.473427742 1276.13700624 695.498032224 1290 625 1290 c 0
 460.78204475 1290 457 1152.29470774 457 985 c 1
 778 985 l 1
 778 879 l 1
 457 879 l 1
 457 102 l 1
 711 102 l 1
 711 0 l 1
 195 0 l 1
 195 102 l 1
 334 102 l 1
 334 879 l 1
 139 879 l 1
 139 985 l 1
 334 985 l 1
 334 1230.30602633 376.674064163 1403 621 1403 c 0
 676.043205959 1403 718.129642458 1390.05199183 760 1382 c 1
 786.287239674 1375.42819008 814.987621369 1359.01303014 834 1339 c 1
 791 1247 l 1
EndSplineSet
EndChar

StartChar: g
Encoding: 103 103 69
Width: 1067
Flags: HW
LayerCount: 2
Fore
SplineSet
516 111 m 0
 636.100356161 111 732.815641148 154.169458798 799 213 c 1
 799 479 l 2
 799 605.501822301 795.774594179 698.300141679 789 805 c 1
 722.850637238 848.251506421 643.744370822 889 537 889 c 0
 303.671403516 889 240 736.774773448 240 498 c 256
 240 266.61813851 290.566289083 111 516 111 c 0
514 -295 m 0
 705.939828403 -295 799 -207.956660407 799 -16 c 2
 799 121 l 1
 722.454886241 53.8758233191 631.29380347 -2 498 -2 c 0
 204.831690465 -2 109 194.997430815 109 494 c 0
 109 774.039115562 203.875370533 972.322255158 459 995 c 1
 614.774303428 1012.30825594 708.532458573 952.318800161 801 893 c 1
 809 985 l 1
 918 985 l 1
 922 51 l 2
 922 -50.5775019436 914.816100401 -147.21893851 882.5 -214.5 c 128
 862.166666667 -256.833333333 838.333333333 -289.666666667 811 -313 c 0
 745.084253572 -371.750991382 647.500325791 -408 518 -408 c 0
 358.856780202 -408 213.48902539 -360.611281738 141 -270 c 1
 195 -186 l 1
 264.892075385 -253.562339539 380.33562764 -295 514 -295 c 0
EndSplineSet
EndChar

StartChar: h
Encoding: 104 104 70
Width: 1069
Flags: HW
LayerCount: 2
Fore
SplineSet
281 895 m 1
 374.250442395 948.619004377 471.879263393 1001 606 1001 c 0
 832.581125297 1001 909.309656334 884.497216992 919.5 670.5 c 128
 921.166666667 635.5 922 595 922 549 c 2
 922 0 l 1
 799 0 l 1
 799 565 l 2
 799 667.86515853 801.314632746 771.915102803 752.5 828 c 128
 717.738374025 867.938889418 662.710924374 887 584 887 c 0
 463.030777471 887 381.653972151 849.839984947 295 803 c 1
 289.889212584 728.04178457 281 665.715784495 281 575 c 2
 281 0 l 1
 160 0 l 1
 160 1386 l 1
 281 1386 l 1
 281 895 l 1
EndSplineSet
EndChar

StartChar: i
Encoding: 105 105 71
Width: 813
Flags: HW
LayerCount: 2
Fore
SplineSet
197 0 m 1
 197 102 l 1
 369 102 l 1
 369 875 l 1
 207 889 l 1
 207 985 l 1
 492 985 l 1
 492 102 l 1
 654 102 l 1
 654 0 l 1
 197 0 l 1
334 1264 m 0
 334 1321.17701934 366.771242754 1356 424 1356 c 0
 483.047704268 1356 512 1324.27869398 512 1266 c 0
 512 1206 482.666666667 1176 424 1176 c 0
 368.156313995 1176 334 1208.10457609 334 1264 c 0
EndSplineSet
EndChar

StartChar: j
Encoding: 106 106 72
Width: 846
Flags: HW
LayerCount: 2
Fore
SplineSet
268 -228 m 0
 399.695000503 -228 438 -144.435339002 438 -10 c 2
 438 871 l 1
 198 889 l 1
 198 985 l 1
 561 985 l 1
 561 -10 l 2
 561 -208.951225821 466.54625767 -335 271 -335 c 0
 214.333333333 -335 152.666666667 -323.666666667 86 -301 c 1
 109 -204 l 1
 160.845252142 -216.397777686 211.248692267 -228 268 -228 c 0
575 1262 m 0
 575 1198.67890612 548.646608931 1174 485 1174 c 0
 425 1174 395 1204.66666667 395 1266 c 0
 395 1326 425 1356 485 1356 c 0
 549.499403888 1356 575 1324.55133386 575 1262 c 0
EndSplineSet
EndChar

StartChar: k
Encoding: 107 107 73
Width: 1016
Flags: HW
LayerCount: 2
Fore
SplineSet
301 475 m 1
 450.41268247 642.232543682 599.789858584 814.673399709 745 991 c 1
 891 991 l 1
 822.798960391 897.223570537 734.250928361 802.456919933 656 715 c 0
 602.666666667 655 545.333333333 592 484 526 c 1
 625.662258535 355.171982355 770.605365198 174.544681105 911 0 c 1
 761 0 l 1
 658.805326082 143.072543485 523.059272804 297.09040813 417.5 438.5 c 128
 399.833333333 462.166666667 389.666666667 477.333333333 387 484 c 1
 309 426 l 1
 309 0 l 1
 186 0 l 1
 186 1386 l 1
 309 1386 l 1
 309 984 l 1
 301 475 l 1
EndSplineSet
EndChar

StartChar: l
Encoding: 108 108 74
Width: 852
Flags: HW
LayerCount: 2
Fore
SplineSet
199 102 m 1
 371 102 l 1
 371 1249 l 1
 203 1317 l 1
 203 1386 l 1
 494 1386 l 1
 494 102 l 1
 664 102 l 1
 664 0 l 1
 199 0 l 1
 199 102 l 1
EndSplineSet
EndChar

StartChar: m
Encoding: 109 109 75
Width: 1249
Flags: HW
LayerCount: 2
Fore
SplineSet
895 1001 m 0
 1070.61674144 1001 1141 906.576388598 1141 733 c 0
 1141 703.350669203 1151.23758492 675.234082867 1154.5 640 c 128
 1156.16666667 622 1157 600.333333333 1157 575 c 2
 1157 0 l 1
 1034 0 l 1
 1034 641 l 2
 1034 719.769890794 1024.96113324 765.701053579 1006 815 c 0
 987.71748255 860.003119878 952.420390551 889 887 889 c 0
 803.619055482 889 751.629230486 858.346538275 698 823 c 1
 702.108063525 744.946793027 690 668.111642104 690 573 c 2
 690 211 l 1
 567 211 l 1
 567 635 l 2
 567 725.568352818 561.026892464 793.316557254 528 838 c 1
 506.761323553 872.892111306 476.081196489 889 416 889 c 0
 339.555234113 889 292.690737313 861.809707301 246 829 c 1
 229.875163045 741.925880444 221 649.675730014 221 543 c 2
 221 0 l 1
 98 0 l 1
 98 985 l 1
 209 985 l 1
 217 897 l 1
 271.6448442 942.141393035 331.572805136 1001 428 1001 c 0
 544.564062914 1001 612.814869285 959.248865279 651 885 c 1
 713.507985954 940.007027639 779.236800724 1001 895 1001 c 0
EndSplineSet
EndChar

StartChar: n
Encoding: 110 110 76
Width: 1067
Flags: HW
LayerCount: 2
Fore
SplineSet
274 883 m 1
 366.302011206 939.801237666 464.659903914 1001 610 1001 c 0
 833.639894422 1001 910.51086648 877.608806706 916.5 662 c 128
 917.5 626 918 590.333333333 918 555 c 2
 918 0 l 1
 795 0 l 1
 795 639 l 2
 795 799.559202525 755.164881707 886 595 886 c 0
 468.647297555 886 369.6526846 844.043753246 286 799 c 1
 280.72278457 709.287337684 279 612.81035856 279 510 c 2
 279 0 l 1
 156 0 l 1
 156 985 l 1
 268 985 l 1
 274 883 l 1
EndSplineSet
EndChar

StartChar: o
Encoding: 111 111 77
Width: 1065
Flags: HW
LayerCount: 2
Fore
SplineSet
819 489 m 0
 819 725.637582503 768.209490879 889 532 889 c 256
 296.012252451 889 246 724.644665387 246 489 c 0
 246 252.723375256 298.005499601 92 535 92 c 0
 766.857859659 92 819 249.9771026 819 489 c 0
117 492 m 0
 117 801.230750425 221.455452141 1001 532 1001 c 256
 843.100683661 1001 948 801.750810014 948 492 c 0
 948 236.580287882 886.663185755 80.7732962728 711.5 9.5 c 128
 663.166666667 -10.1666666667 603.333333333 -20 532 -20 c 0
 220.499581196 -20 117 182.393264306 117 492 c 0
EndSplineSet
EndChar

StartChar: p
Encoding: 112 112 78
Width: 1067
Flags: HW
LayerCount: 2
Fore
SplineSet
537 92 m 0
 770.864721899 92 836 252.067654305 836 492 c 0
 836 677.927457888 802.992043166 806.82611223 684 865 c 128
 654 879.666666667 614.333333333 887 565 887 c 0
 446.480449397 887 368.79079688 842.106397326 301 784 c 1
 288.370493843 686.121327284 281 586.832479155 281 473 c 0
 281 343.6860326 295.561491388 239.296107503 324 145 c 1
 382.286931217 119.094697237 453.75331493 92 537 92 c 0
551 -20 m 0
 431.520013619 -20 352.795890382 25.281360098 281 74 c 1
 281 -389 l 1
 158 -389 l 1
 158 817 l 1
 145 987 l 1
 254 995 l 1
 270 866 l 1
 349.546353599 932.288627999 432.967687273 1001 578 1001 c 0
 870.077235006 1001 967 786.179099896 967 494 c 0
 967 329.20873147 936.770069774 198.77356017 862 111 c 1
 800.368126989 32.5594343498 695.231028888 -20 551 -20 c 0
EndSplineSet
EndChar

StartChar: q
Encoding: 113 113 79
Width: 1067
Flags: HW
LayerCount: 2
Fore
SplineSet
522 1001 m 0
 647.4607304 1001 724.826261549 944.351049697 799 893 c 1
 809 985 l 1
 918 985 l 1
 918 -385 l 1
 795 -385 l 1
 795 111 l 1
 720.243847725 31.8464270027 632.512449083 -20 498 -20 c 0
 274.042602823 -20 173.075650817 107.768500517 128.5 289.5 c 128
 115.5 342.5 109 410 109 492 c 0
 109 795.999500427 219.81550837 1001 522 1001 c 0
537 889 m 0
 304.813144632 889 238 732.318599033 238 494 c 0
 238 352.549770296 257.174739274 243.526654357 317 174 c 1
 357.312283096 123.60964613 419.519233831 92 514 92 c 1
 633.709337852 94.8502223298 708.376261654 136.890010359 776 197 c 1
 784.448045794 294.997331208 795 382.383922883 795 502 c 0
 795 616.395422193 787.089969148 704.290586184 782 801 c 1
 713.333333333 859.666666667 631.666666667 889 537 889 c 0
EndSplineSet
EndChar

StartChar: r
Encoding: 114 114 80
Width: 920
Flags: HW
LayerCount: 2
Fore
SplineSet
433 854 m 1
 502.641160026 912.034300022 603.379151487 958.276787305 705.5 985 c 128
 741.166666667 994.333333333 775.333333333 999.666666667 808 1001 c 1
 808 870 l 1
 697.531162705 870 591.176475084 832.885956675 513 793 c 128
 480.333333333 776.333333333 453 757 431 735 c 1
 431 102 l 1
 656 102 l 1
 656 0 l 1
 179 0 l 1
 179 102 l 1
 308 102 l 1
 308 879 l 1
 179 890 l 1
 179 985 l 1
 427 985 l 1
 433 854 l 1
EndSplineSet
EndChar

StartChar: s
Encoding: 115 115 81
Width: 1004
Flags: HW
LayerCount: 2
Fore
SplineSet
502 893 m 0
 384.264837844 893 285 858.182539143 285 745 c 1
 288.473920322 637.308470014 365.815947304 614.755215809 455 588 c 1
 556.094351018 554.301882994 660.642192202 531.633033028 744 484 c 128
 814.524449743 443.700314433 852 379.443993756 852 268 c 0
 852 123.073626229 779.539110911 52.6189250557 673.5 9 c 128
 626.5 -10.3333333333 567.333333333 -20 496 -20 c 0
 334.457522018 -20 231.52477313 34.6064201524 139 104 c 1
 199 195 l 1
 282.001150496 128.599079603 364.830069381 90 494 90 c 0
 624.446938309 90 725 133.80438478 725 260 c 0
 725 374.024858313 655.551675318 399.027160544 565 426 c 1
 461.25832833 460.580557223 353.478483639 483.155152206 268 532 c 128
 198.961290253 571.450691284 160 632.3584614 160 741 c 0
 160 807.462294478 183.019256976 859.56821279 213 895 c 1
 266.639490337 961.686933933 377.838203207 1004 504 1004 c 0
 655.343926794 1004 746.037290628 945.425148587 834 883 c 1
 776 803 l 1
 706.512570107 858.589943915 622.481289588 893 502 893 c 0
EndSplineSet
EndChar

StartChar: t
Encoding: 116 116 82
Width: 940
Flags: HW
LayerCount: 2
Fore
SplineSet
569 92 m 0
 657.409647419 92 716.250399845 105.174399811 758 156 c 1
 803 70 l 1
 776.893325509 10.3276011636 736.575471563 7.14386789069 670 -9.5 c 128
 642 -16.5 609 -20 571 -20 c 0
 468.457254434 -20 392.892496847 6.65760403626 352 59 c 1
 298.349312158 136.122863772 295 265.27316789 295 399 c 2
 295 868 l 1
 125 868 l 1
 125 975 l 1
 299 975 l 1
 299 1239 l 1
 418 1268 l 1
 418 975 l 1
 760 975 l 1
 760 868 l 1
 418 868 l 1
 418 397 l 2
 418 310.333333333 422 244.833333333 430 200.5 c 128
 438 156.166666667 451.666666667 128.333333333 471 117 c 1
 492.310451304 99.24129058 524.734318098 92 569 92 c 0
EndSplineSet
EndChar

StartChar: u
Encoding: 117 117 83
Width: 1067
Flags: HW
LayerCount: 2
Fore
SplineSet
793 104 m 1
 702.024724395 45.8769072524 602.843557335 -20 457 -20 c 0
 234.69371107 -20 152 116.060301041 152 336 c 2
 152 985 l 1
 274 985 l 1
 274 410 l 2
 274 216.825236847 292.642257214 92 483 92 c 0
 603.64631045 92 689.115503719 139.300673108 770 184 c 1
 780.194839201 251.965594677 788 309.328349915 788 397 c 2
 788 985 l 1
 911 985 l 1
 911 0 l 1
 799 0 l 1
 793 104 l 1
EndSplineSet
EndChar

StartChar: v
Encoding: 118 118 84
Width: 1006
Flags: HW
LayerCount: 2
Fore
SplineSet
90 985 m 1
 225 985 l 1
 418 365 l 1
 430.88676424 319.180393812 450.681699605 252.954901186 466 207 c 1
 475.333333333 175.666666667 485.333333333 144.333333333 496 113 c 1
 525 113 l 1
 546.422639745 191.549679067 565.616521613 260.927245913 586.5 337.5 c 128
 591 354 591 354 594 365 c 2
 782 985 l 1
 915 985 l 1
 606 0 l 1
 410 0 l 1
 90 985 l 1
EndSplineSet
EndChar

StartChar: w
Encoding: 119 119 85
Width: 1171
Flags: HW
LayerCount: 2
Fore
SplineSet
68 985 m 1
 190 985 l 1
 238.128328727 692.128328727 288.163266668 401.163266668 334 106 c 1
 377 188 l 1
 389.465352008 232.321251585 401.127077232 276.944770313 414 322 c 2
 522 727 l 1
 649 727 l 1
 795 188 l 1
 840 106 l 1
 981 985 l 1
 1104 985 l 1
 932 0 l 1
 727 0 l 1
 621 424 l 1
 588 567 l 1
 582 567 l 1
 536.669749666 375.996917 487.415359999 188.917973335 440 0 c 1
 238 0 l 1
 68 985 l 1
EndSplineSet
EndChar

StartChar: x
Encoding: 120 120 86
Width: 1006
Flags: HW
LayerCount: 2
Fore
SplineSet
109 985 m 1
 254 985 l 1
 504 596 l 1
 750 985 l 1
 891 985 l 1
 574 504 l 1
 913 0 l 1
 768 0 l 1
 504 410 l 1
 242 0 l 1
 96 0 l 1
 436 504 l 1
 109 985 l 1
EndSplineSet
EndChar

StartChar: y
Encoding: 121 121 87
Width: 971
Flags: HW
LayerCount: 2
Fore
SplineSet
184 -265 m 1
 235.505536464 -278.949416126 280.542060534 -292 335 -292 c 0
 420.494981685 -292 448.950846979 -224.670729624 474.5 -157 c 128
 486.833333333 -124.333333333 499.666666667 -84.3333333333 513 -37 c 1
 542 85 l 1
 357 86 l 1
 263.658172967 382.118899553 160.387151767 665.836165397 47 985 c 1
 187 985 l 1
 274.746144438 702.262423478 358.004921402 436.885906994 449 146 c 1
 557 143 l 1
 785 985 l 1
 918 985 l 1
 626 -66 l 2
 592.321495323 -190.610467307 551.160112618 -316.425986274 451 -370 c 128
 422.333333333 -385.333333333 388.666666667 -393 350 -393 c 0
 283.573151893 -393 222.513886397 -378.236367436 165 -358 c 1
 184 -265 l 1
EndSplineSet
EndChar

StartChar: z
Encoding: 122 122 88
Width: 983
Flags: HW
LayerCount: 2
Fore
SplineSet
160 985 m 1
 827 985 l 1
 838 893 l 1
 652.319739503 629.01359383 467.527293935 364.139372731 281 101 c 1
 844 101 l 1
 844 0 l 1
 150 0 l 1
 135 94 l 1
 571 719 l 1
 690 877 l 1
 160 877 l 1
 160 985 l 1
EndSplineSet
EndChar

StartChar: braceleft
Encoding: 123 123 89
Width: 881
Flags: HW
LayerCount: 2
Fore
SplineSet
332 1037 m 128
 332 1112.00386234 330 1193.148856 330 1265 c 128
 330 1318.4368469 328.749884867 1374.14951644 338 1413 c 1
 348.642058876 1596.57551562 502.114271351 1593 696 1593 c 1
 705 1491 l 1
 572.228498029 1491 455.401897145 1484.10434295 453 1352 c 1
 438.310454489 1161.03590836 460.481581704 945.336941333 455 748 c 1
 402.589576821 717.091288894 348.060258631 690.539655177 291 664 c 1
 301.501291511 642.997416977 340.172599085 626.402204388 364.5 614 c 128
 392.922982379 599.509852121 431.170502386 582.886331743 455 567 c 1
 460.295004966 392.264836107 448.673777133 202.969840931 450.5 24 c 128
 450.833333333 -8.66666666667 451.666666667 -35 453 -55 c 0
 455.420738781 -190.56137174 568.955992166 -195 705 -195 c 1
 696 -297 l 1
 505.780704661 -297 348.744784393 -304.347530774 338 -119 c 1
 315.918099188 -4.17411577658 331 151.556567366 331 284.5 c 128
 331 361.360312995 330.219123744 443.681270935 326 514 c 1
 273.821680697 547.447640579 220.184580797 574.569981487 164 604 c 1
 164 713 l 1
 219.912677239 739.625084399 274.085744857 770.383900813 326 801 c 1
 331.397540288 873.866793883 332 957.89598834 332 1037 c 128
EndSplineSet
EndChar

StartChar: bar
Encoding: 124 124 90
Width: 856
Flags: HW
LayerCount: 2
Fore
SplineSet
365 1526 m 1
 494 1526 l 1
 494 -436 l 1
 365 -436 l 1
 365 1526 l 1
EndSplineSet
EndChar

StartChar: braceright
Encoding: 125 125 91
Width: 881
Flags: HW
LayerCount: 2
Fore
SplineSet
567 664 m 1
 509.935310271 690.541716153 455.415443188 717.088328377 403 748 c 1
 398.198805254 920.84301085 410.462021436 1106.88009224 408.5 1281.5 c 128
 408.166666667 1311.16666667 407.333333333 1334.66666667 406 1352 c 0
 402.405222017 1450.85639453 335.307334498 1487.78846967 238 1490 c 128
 208.666666667 1490.66666667 180.666666667 1491 154 1491 c 1
 162 1593 l 1
 300.834581663 1593 429.210906408 1597.97414504 488 1518.5 c 128
 506 1494.16666667 516.666666667 1459 520 1413 c 1
 533.592654226 1341.63856531 528.241714786 1243.28062999 527.5 1156.5 c 128
 526.501747731 1039.70448449 523.810379605 911.559875331 532 801 c 1
 584.237459389 767.514449109 636.413110649 739.123829683 694 711 c 1
 694 604 l 1
 636.666461466 574.66656168 584.646909352 547.748018815 532 514 c 1
 526.430189224 444.377365294 525.870826548 361.888334548 526.5 284.5 c 128
 527 223 527 223 527.5 161.5 c 128
 528.280921752 65.4466245348 532.607969055 -37.0482011421 520 -119 c 1
 510.560685292 -247.374680025 435.655173139 -290.885775839 304 -295 c 128
 261.333333333 -296.333333333 214 -297 162 -297 c 1
 154 -195 l 1
 289.883243944 -195 401.233420965 -188.46421299 406 -55 c 1
 419.236203163 143.543047445 396.835067923 363.557241453 403 567 c 1
 443.181452796 591.108871677 499.952658236 615.208788432 540 640 c 128
 554 648.666666667 563 656.666666667 567 664 c 1
EndSplineSet
EndChar

StartChar: asciitilde
Encoding: 126 126 92
Width: 1063
Flags: HW
LayerCount: 2
Fore
SplineSet
74 530 m 1
 122.886706352 598.092198133 177.379718277 668.253907911 256.5 702.5 c 128
 278.833333333 712.166666667 302 717 326 717 c 0
 376.048032017 717 427.038863172 693.450152692 467.5 674.5 c 128
 540.920808406 640.113039101 617.638387732 594.744644907 692 565 c 128
 712 557 728.333333333 553 741 553 c 0
 768.333333333 553 794.5 564.166666667 819.5 586.5 c 128
 844.5 608.833333333 873 640 905 680 c 1
 989 621 l 1
 941.323693439 552.890990627 893.20132492 483.344643718 813 451.5 c 128
 790.333333333 442.5 765 438 737 438 c 0
 682.235197957 438 633.938766694 460.134268408 592 480 c 128
 521.815031213 513.245511531 455.208989427 558.830241589 383.5 588 c 128
 363.833333333 596 346.666666667 600 332 600 c 0
 305.333333333 600 278.5 589.5 251.5 568.5 c 128
 224.5 547.5 194 514.333333333 160 469 c 1
 74 530 l 1
EndSplineSet
EndChar

StartChar: exclamdown
Encoding: 161 161 93
Width: 854
Flags: HW
LayerCount: 2
Fore
SplineSet
475 1137 m 1
 475 946 l 1
 303 946 l 1
 303 1137 l 1
 475 1137 l 1
449 758 m 1
 451.669601219 497.713881125 457.027309963 228.549082389 461 -31 c 1
 461 -268 l 1
 330 -268 l 1
 330 -117 l 1
 342 758 l 1
 449 758 l 1
EndSplineSet
EndChar

StartChar: cent
Encoding: 162 162 94
Width: 1026
Flags: HW
LayerCount: 2
Fore
SplineSet
522 -16 m 1
 271.520870111 9.61718373865 166 206.627783755 166 485 c 0
 166 791 283.333333333 956.333333333 518 981 c 1
 518 1124 l 1
 627 1124 l 1
 627 983 l 1
 699.8758359 976.374924009 766.575193303 964.79882875 827 946 c 1
 801 844 l 1
 733.031331377 865.847072058 659.61774435 881 575 881 c 0
 357.63299748 881 283 707.432999485 283 487 c 256
 283 311.348857792 332.481207486 173.092223677 447.5 114 c 128
 483.833333333 95.3333333333 526.333333333 86 575 86 c 0
 667.41586236 86 747.365927793 113.056937111 831 143 c 1
 862 41 l 1
 789.100423817 13.0551624633 716.64484623 -6.98475302842 631 -16 c 1
 631 -147 l 1
 522 -147 l 1
 522 -16 l 1
EndSplineSet
EndChar

StartChar: sterling
Encoding: 163 163 95
Width: 1059
Flags: HW
LayerCount: 2
Fore
SplineSet
387 41 m 256
 292.699958012 41 229.935203369 12.4889562517 162 -16 c 1
 106 96 l 1
 208.329563101 177.091351891 311.62098845 255.670410967 315 428 c 0
 315 476 305 538.666666667 285 616 c 1
 113 616 l 1
 113 725 l 1
 260 725 l 1
 240 797 231 870.666666667 233 946 c 1
 235.585046677 1187.70186427 346.832871626 1318.74403113 578 1327 c 1
 600.666666667 1329 624.333333333 1329 649 1327 c 1
 772.05916683 1324.13815891 841.080661529 1290.50129828 903 1221 c 1
 856 1128 l 1
 804.545649681 1178.22924674 751.705169756 1211.11769379 662 1217 c 1
 584 1217 l 1
 418.300831588 1208.71504158 360.501951364 1122.6346441 358 950 c 1
 355.270118913 865.3736863 364.737414984 791.527988273 383 725 c 1
 764 725 l 1
 758 616 l 1
 408 616 l 1
 416.47022815 556.708402948 437.272049298 488.198767557 440 420 c 1
 436.710626907 286.780389718 376.397398527 207.797609457 295 133 c 1
 296.333333333 131.666666667 297 130.333333333 297 129 c 1
 323.820721009 139.97211314 352.269770741 147.024524613 385 150 c 1
 401.479100472 150 416.159308685 152.640115219 432 150 c 1
 490.774266681 146.734762962 549.930264952 125.576736411 606.5 112 c 128
 641.152805572 103.683326663 676.489801943 95.2510198057 714 91.5 c 128
 724 90.5 733 90.6666666667 741 92 c 1
 820.441423593 94.5626265675 887.15134997 126.863512478 934 162 c 1
 979 55 l 1
 912.314528957 8.44599191318 826.7413596 -23 717 -23 c 0
 660.792865919 -23 598.663816269 -4.24368433849 549 9 c 128
 501.132114327 21.7647695128 439.685311688 41 387 41 c 256
EndSplineSet
EndChar

StartChar: yen
Encoding: 165 165 96
Width: 1083
Flags: HW
LayerCount: 2
Fore
SplineSet
604 377 m 1
 604 0 l 1
 481 0 l 1
 481 377 l 1
 166 377 l 1
 166 481 l 1
 481 481 l 1
 481 582 l 1
 467 645 l 1
 166 645 l 1
 166 750 l 1
 416 750 l 1
 59 1366 l 1
 207 1366 l 1
 303.024501642 1191.28875396 397.975373086 1016.71147397 494 842 c 1
 541 754 l 1
 547 754 l 1
 654.207190303 962.12614303 770.1296378 1161.53702887 881 1366 c 1
 1020 1366 l 1
 668 750 l 1
 915 750 l 1
 915 645 l 1
 616 645 l 1
 604 582 l 1
 604 481 l 1
 915 481 l 1
 915 377 l 1
 604 377 l 1
EndSplineSet
EndChar

StartChar: section
Encoding: 167 167 97
Width: 1022
Flags: HW
LayerCount: 2
Fore
SplineSet
664 446 m 1
 702.660179445 490.607899359 762 536.141807013 762 618 c 1
 759.119220746 707.304156868 681.161318683 744.073720564 616 772 c 0
 543.074855549 803.433251919 453.38292229 828.258682105 383 860 c 1
 324.17898038 827.814913793 270 780.343292936 270 698 c 0
 270 600.945378057 327.246166864 569.584611045 401 545 c 1
 522 500 l 1
 570.538895458 483.394588396 619.66166333 465.398022293 664 446 c 1
844 201 m 0
 844 1.01168144563 705.528529695 -78 498 -78 c 0
 341.035833291 -78 236.732461435 -50.4403434305 147 27 c 1
 195 117 l 1
 277.682971062 63.9980954728 367.582008399 27 500 27 c 0
 627.659272281 27 719 67.2079361609 719 188 c 0
 719 285.029657951 670.574572186 310.593928256 600 340 c 1
 476.389010235 393.614405199 354.816472816 429.105980487 248.5 490.5 c 128
 181.987586607 528.908576748 147 579.955937487 147 684 c 0
 147 798.111538688 217.563990584 863.281995292 301 905 c 1
 222.869024009 950.293319415 174 1015.35669669 174 1126 c 0
 174 1328.65042604 317.021826003 1409 520 1409 c 0
 663.855144448 1409 764.787132035 1379.36045522 844 1315 c 1
 793 1227 l 1
 714.028427904 1274.61521259 636.169617232 1305 522 1305 c 0
 381.816177317 1305 297 1263.13185684 297 1135 c 0
 297 1027.35617977 374.126974094 992.246396373 455 961 c 0
 530.333333333 931 595 906.166666667 649 886.5 c 128
 781.896895378 838.099278844 883 793.02556281 883 618 c 0
 883 513.000248781 822.177747595 447.862764079 754 397 c 1
 813.276216087 355.869564348 844 295.088064928 844 201 c 0
EndSplineSet
EndChar

StartChar: copyright
Encoding: 169 169 98
Width: 1163
Flags: HW
LayerCount: 2
Fore
SplineSet
586 1098 m 0
 625.267232344 1098 656.00672261 1080.99327739 678 1059 c 1
 769.333333333 1053 839 1021 887 963 c 1
 875.240627084 972.79947743 860.047270247 955.391108079 854 948 c 1
 852 915.333333333 847.333333333 868 840 806 c 128
 832.666666667 744 829 667 829 575 c 0
 829 471.786622772 858.461299886 374.901371558 903 324 c 1
 923.666666667 302 943 293 961 297 c 1
 958.381094581 270.81094581 952.787654282 246.720493702 946 225 c 1
 869.192480358 121.370806833 751.143967527 59 580 59 c 0
 348.020763194 59 210.52414636 183.743488135 152.5 361.5 c 128
 131.5 425.833333333 121 498.666666667 121 580 c 0
 121 824.485172746 219.75479363 993.599306747 394 1063.5 c 128
 451.333333333 1086.5 515.333333333 1098 586 1098 c 0
883 719 m 1
 857.600673867 726.61979784 829.11442234 733 797 733 c 1
 704.91000134 634.770668096 630.090846543 525.688182124 567 395 c 1
 558.23285054 346.293614111 547.872447429 310.58419685 553 267 c 128
 555.471975565 245.988207701 563.987430873 238 586 238 c 0
 619.010781038 238 651.507792266 242.785319049 678 252 c 1
 684.563264155 233.622860366 689.894625897 215.526870514 694 195 c 1
 664.666666667 182.333333333 630 176 590 176 c 0
 339.812229738 176 213 325.935765716 213 578 c 0
 213 829.58878601 330.773190201 997 580 997 c 0
 621.198063615 997 660.031448724 987.541964189 694 977 c 1
 806.951462612 957.233494043 885.732559586 852.895419706 883 719 c 1
1018 578 m 0
 1018 344.975987983 928.951729666 180.819244551 765 112 c 128
 711 89.3333333333 650 78 582 78 c 256
 283.865953137 78 143 277.599853812 143 578 c 0
 143 814.326436659 231.218756693 979.631137762 397.5 1049 c 128
 451.833333333 1071.66666667 513.333333333 1083 582 1083 c 0
 879.982489715 1083 1018 878.798216535 1018 578 c 0
EndSplineSet
EndChar

StartChar: ordfeminine
Encoding: 170 170 99
Width: 979
Flags: HW
LayerCount: 2
Fore
SplineSet
487 1264 m 0
 408.595642288 1258.1922698 339.308390745 1245.07108438 299 1196 c 1
 252 1264 l 1
 314.975434129 1323.27099683 392.220652704 1352 508 1352 c 0
 607.273531278 1352 673.623326289 1324.91030119 709 1268 c 1
 732.776161085 1217.05108339 739 1151.33227737 739 1073 c 2
 739 844 l 2
 739 813.490808562 736.62667377 800.298660984 752 788 c 1
 760 692 l 1
 729.965875078 687.307167981 708.035023735 682 684 682 c 1
 660.975682835 699.268237874 650.329939545 728.700604551 647 762 c 1
 598.369405953 721.047920803 528.513124549 680 440 680 c 0
 308.490330032 680 231 751.734338552 231 881 c 0
 231 1031.22429169 328.216316858 1079.42061188 477 1085 c 1
 539.568564085 1085 585.151931593 1083 639 1083 c 1
 635.700118072 1200.14580845 625.591353931 1264 510.5 1264 c 128
 500 1264 500 1264 487 1264 c 0
463 768 m 256
 544.625135565 768 605.165768108 808.331908033 639 862 c 1
 639 1006 l 1
 537.167810629 998.726272188 394.421348313 1016.8053536 348 954 c 0
 337.333333333 939.333333333 332 916.333333333 332 885 c 256
 332 795.100879478 371.768741311 768 463 768 c 256
EndSplineSet
EndChar

StartChar: guillemotleft
Encoding: 171 171 100
Width: 1049
Flags: HW
LayerCount: 2
Fore
SplineSet
514 160 m 1
 117 520 l 1
 141 600 l 1
 514 936 l 1
 547 817 l 1
 242 545 l 1
 547 279 l 1
 514 160 l 1
895 160 m 1
 496 520 l 1
 520 600 l 1
 895 936 l 1
 926 817 l 1
 623 545 l 1
 926 279 l 1
 895 160 l 1
EndSplineSet
EndChar

StartChar: logicalnot
Encoding: 172 172 101
Width: 1141
Flags: HW
LayerCount: 2
Fore
SplineSet
913 322 m 1
 913 725 l 1
 98 725 l 1
 98 831 l 1
 1044 831 l 1
 1044 322 l 1
 913 322 l 1
EndSplineSet
EndChar

StartChar: registered
Encoding: 174 174 102
Width: 1143
Flags: HW
LayerCount: 2
Fore
SplineSet
1108 874 m 0
 1108 619.606734648 971.423808493 452.911964176 786.5 379.5 c 128
 720.166666667 353.166666667 647.666666667 340 569 340 c 0
 315.213571792 340 146.472906773 475.472281931 72.5 659 c 128
 46.1666666667 724.333333333 33 796 33 874 c 256
 33 1127.11487939 170.348372484 1292.91414823 354 1366 c 128
 419.333333333 1392 491 1405 569 1405 c 0
 824.359989009 1405 992.707908233 1271.02447368 1068 1087.5 c 128
 1094.66666667 1022.5 1108 951.333333333 1108 874 c 0
1008 872 m 0
 1008 1084.23302447 898.487609908 1224.73481588 745.5 1286.5 c 128
 691.833333333 1308.16666667 633 1319 569 1319 c 256
 359.96886651 1319 224.011314062 1205.2437568 163.5 1053.5 c 128
 141.833333333 999.166666667 131 939.333333333 131 874 c 256
 131 663.729784943 241.319954535 522.974428576 392.5 461 c 128
 446.166666667 439 505 428 569 428 c 0
 776.872557345 428 914.070073989 542.021546367 975 692.5 c 128
 997 746.833333333 1008 806.666666667 1008 872 c 0
547 1188 m 2
 701.287796716 1188 803 1154.10827646 803 1001 c 0
 803 899.619695118 749.040824416 840.008164883 664 823 c 1
 701.666313552 760.222810746 740.920213291 692.976471885 774 623 c 2
 797 573 l 1
 709 559 l 1
 670.702855741 646.159017968 625.649351646 729.784948615 580 809 c 1
 459 809 l 1
 459 565 l 1
 373 565 l 1
 373 1188 l 1
 547 1188 l 2
717 997 m 0
 717 1073.69078603 689.965949815 1103.045131 619.5 1109 c 128
 595.833333333 1111 566.666666667 1112 532 1112 c 2
 459 1112 l 1
 459 887 l 1
 526 887 l 2
 608.195472336 887 684.830085607 884.14964895 708 939.5 c 128
 714 953.833333333 717 973 717 997 c 0
EndSplineSet
EndChar

StartChar: degree
Encoding: 176 176 103
Width: 899
Flags: HW
LayerCount: 2
Fore
SplineSet
449 918 m 0
 324.487058305 918 241.714391717 979.112525317 205 1068 c 128
 192.333333333 1098.66666667 186 1132.33333333 186 1169 c 0
 186 1289.77290641 252.147464957 1367.54697621 341 1402 c 128
 373.666666667 1414.66666667 410.333333333 1421 451 1421 c 0
 575.681746716 1421 656.502221631 1357.50798946 692.5 1268 c 128
 704.833333333 1237.33333333 711 1204.33333333 711 1169 c 256
 711 1049.16281624 644.856885027 972.6228713 557.5 937.5 c 128
 525.166666667 924.5 489 918 449 918 c 0
600 1169 m 256
 600 1265.18268737 542.638477445 1329 446 1329 c 0
 351.013811055 1329 297 1266.09495791 297 1171 c 0
 297 1076.06214078 350.927809055 1012 446 1012 c 256
 539.774153344 1012 600 1075.44893397 600 1169 c 256
EndSplineSet
EndChar

StartChar: plusminus
Encoding: 177 177 104
Width: 1106
Flags: HW
LayerCount: 2
Fore
SplineSet
612 1042 m 1
 612 719 l 1
 1038 719 l 1
 1038 610 l 1
 612 610 l 1
 612 299 l 1
 494 299 l 1
 494 610 l 1
 68 610 l 1
 68 719 l 1
 494 719 l 1
 494 1042 l 1
 612 1042 l 1
68 188 m 1
 1038 188 l 1
 1038 82 l 1
 68 82 l 1
 68 188 l 1
EndSplineSet
EndChar

StartChar: mu
Encoding: 181 181 105
Width: 1069
Flags: HW
LayerCount: 2
Fore
SplineSet
129 -309 m 1
 152.138413309 -234.95707741 160 -165.444490386 160 -66 c 2
 160 985 l 1
 283 985 l 1
 283 344 l 2
 283 186.96712386 331.048692591 92 487 92 c 0
 607.816482311 92 685.787675244 130.571600473 772 180 c 1
 783.528193253 254.109813771 793 319.273418332 793 414 c 2
 793 985 l 1
 915 985 l 1
 915 0 l 1
 803 0 l 1
 797 100 l 1
 705.818741562 45.7841166043 612.381061699 -23 471 -23 c 0
 385.962339314 -23 310.737393983 9.58374498586 272 55 c 1
 279 -68 l 1
 279 -173.861030358 270.526651734 -257.289887534 238 -328 c 1
 129 -309 l 1
EndSplineSet
EndChar

StartChar: paragraph
Encoding: 182 182 106
Width: 1069
Flags: HW
LayerCount: 2
Fore
SplineSet
932 0 m 1
 860 0 l 1
 860 1434 l 1
 932 1434 l 1
 932 0 l 1
82 981 m 0
 82 1293.08759806 220.025817552 1434 532 1434 c 2
 604 1434 l 1
 604 0 l 1
 532 0 l 1
 532 541 l 1
 317.299386803 557.515431784 165.24205418 609.703232664 108.5 781 c 128
 90.8333333333 834.333333333 82 901 82 981 c 0
532 1368 m 1
 341.914899527 1363.77588666 228.414065831 1321.70129682 179.5 1174 c 128
 162.5 1122.66666667 154 1055.66666667 154 973 c 0
 154 781.433160062 211.479900541 675.404223625 359.5 634 c 128
 407.166666667 620.666666667 464.666666667 611.333333333 532 606 c 1
 532 1368 l 1
EndSplineSet
EndChar

StartChar: periodcentered
Encoding: 183 183 107
Width: 1024
Flags: HW
LayerCount: 2
Fore
SplineSet
600 614 m 0
 600 538.684150515 578.364068252 502 506 502 c 0
 444.666666667 502 414 540.666666667 414 618 c 0
 414 696 444.666666667 735 506 735 c 0
 568.666666667 735 600 694.666666667 600 614 c 0
EndSplineSet
EndChar

StartChar: ordmasculine
Encoding: 186 186 108
Width: 983
Flags: HW
LayerCount: 2
Fore
SplineSet
666 1016 m 0
 666 1172.18549586 636.987812661 1264 487 1264 c 0
 337.170698833 1264 311 1171.93801049 311 1016 c 0
 311 863.815440411 340.089658451 768 487 768 c 0
 639.597016109 768 666 857.605878468 666 1016 c 0
487 1350 m 0
 694.552345433 1350 768 1227.60230127 768 1018 c 0
 768 848.496247406 722.484893059 752.029385583 608.5 701.5 c 128
 576.166666667 687.166666667 535.666666667 680 487 680 c 0
 399.058820387 680 332.180093581 709.349188791 291 752 c 1
 234.096675825 805.827468814 209 897.231398003 209 1016 c 0
 209 1183.74538667 253.71382134 1279.43729684 367 1329 c 128
 399 1343 439 1350 487 1350 c 0
EndSplineSet
EndChar

StartChar: guillemotright
Encoding: 187 187 109
Width: 1049
Flags: HW
LayerCount: 2
Fore
SplineSet
514 279 m 1
 819 545 l 1
 514 817 l 1
 547 936 l 1
 913 608 l 1
 944 520 l 1
 547 160 l 1
 514 279 l 1
135 279 m 1
 438 545 l 1
 135 817 l 1
 166 936 l 1
 541 600 l 1
 565 520 l 1
 166 160 l 1
 135 279 l 1
EndSplineSet
EndChar

StartChar: questiondown
Encoding: 191 191 110
Width: 983
Flags: HW
LayerCount: 2
Fore
SplineSet
582 768 m 1
 590.154979616 732.118089689 594 677.066382089 594 629 c 1
 596.481261467 605.428016064 594.926073747 583.482516227 592 563 c 1
 587.106005238 494.484073334 537.789897509 439.05241581 498.5 394 c 128
 424.165277738 308.762851806 330.621361928 228.824653494 276.5 125 c 128
 260.166666667 93.6666666667 252 61.6666666667 252 29 c 0
 252 -64.7484278442 293.313813744 -112.661236785 358 -143.5 c 128
 386.666666667 -157.166666667 423 -164 467 -164 c 0
 587.567648192 -164 638.318355922 -128.121096052 710.5 -80 c 128
 735.5 -63.3333333333 761.333333333 -42 788 -16 c 1
 856 -106 l 1
 805.522521222 -164.890391907 741.483555391 -208.758222305 670 -244.5 c 128
 617.146932813 -270.926533593 553.113803716 -287 473 -287 c 0
 286.012720661 -287 162.279488299 -199.773850858 126.5 -49.5 c 128
 121.5 -28.5 119 -5.33333333333 119 20 c 0
 119 204.929845776 203.482088432 281.706635979 301 373 c 1
 339.666666667 407 370.333333333 435.166666667 393 457.5 c 128
 448.948008772 512.625243937 469 552.330058348 469 659 c 0
 469 694.46977509 467 729.282569862 467 766 c 1
 485.666666667 767.333333333 504.666666667 768 524 768 c 128
 553 768 553 768 582 768 c 1
612 909 m 1
 426 909 l 1
 426 1110 l 1
 612 1110 l 1
 612 909 l 1
EndSplineSet
EndChar

StartChar: Agrave
Encoding: 192 192 111
Width: 1120
Flags: HW
LayerCount: 2
Fore
SplineSet
575 1268 m 1
 535 1214 l 1
 303 440 l 1
 815 440 l 1
 575 1268 l 1
465 1374 m 1
 664 1374 l 1
 1090 0 l 1
 950 0 l 1
 850 328 l 1
 311 328 l 1
 166 0 l 1
 29 0 l 1
 465 1374 l 1
768 1632 m 1
 715 1565 l 1
 324 1788 l 1
 408 1876 l 1
 768 1632 l 1
EndSplineSet
EndChar

StartChar: Aacute
Encoding: 193 193 112
Width: 1120
Flags: HW
LayerCount: 2
Fore
SplineSet
575 1268 m 1
 535 1214 l 1
 303 440 l 1
 815 440 l 1
 575 1268 l 1
465 1374 m 1
 664 1374 l 1
 1090 0 l 1
 950 0 l 1
 850 328 l 1
 268 328 l 1
 166 0 l 1
 29 0 l 1
 465 1374 l 1
375 1632 m 1
 733 1874 l 1
 817 1786 l 1
 428 1563 l 1
 375 1632 l 1
EndSplineSet
EndChar

StartChar: Acircumflex
Encoding: 194 194 113
Width: 1120
Flags: HW
LayerCount: 2
Fore
SplineSet
575 1268 m 1
 535 1214 l 1
 303 440 l 1
 815 440 l 1
 575 1268 l 1
465 1374 m 1
 664 1374 l 1
 1090 0 l 1
 950 0 l 1
 850 328 l 1
 254 328 l 1
 166 0 l 1
 29 0 l 1
 465 1374 l 1
565 1761 m 1
 408 1548 l 1
 281 1548 l 1
 512 1837 l 1
 614 1837 l 1
 848 1548 l 1
 721 1548 l 1
 565 1761 l 1
EndSplineSet
EndChar

StartChar: Atilde
Encoding: 195 195 114
Width: 1120
Flags: HW
LayerCount: 2
Fore
SplineSet
575 1268 m 1
 535 1214 l 1
 303 440 l 1
 815 440 l 1
 575 1268 l 1
465 1374 m 1
 664 1374 l 1
 1090 0 l 1
 950 0 l 1
 850 328 l 1
 268 328 l 1
 166 0 l 1
 29 0 l 1
 465 1374 l 1
256 1679 m 1
 282.666666667 1727.66666667 312.333333333 1762 345 1782 c 128
 377.666666667 1802 409.333333333 1812 440 1812 c 0
 490.93164008 1812 543.794053766 1782.19751367 581 1762 c 128
 604.333333333 1749.33333333 625.666666667 1737.83333333 645 1727.5 c 128
 664.333333333 1717.16666667 679.333333333 1712 690 1712 c 0
 704.666666667 1712 720.333333333 1719 737 1733 c 128
 753.666666667 1747 772.333333333 1767.33333333 793 1794 c 1
 864 1749 l 1
 840.666666667 1701 814.166666667 1666.5 784.5 1645.5 c 128
 754.833333333 1624.5 725.333333333 1614 696 1614 c 0
 644.409067478 1614 591.643504176 1644.54415712 554.5 1665 c 128
 531.5 1677.66666667 509.833333333 1689.33333333 489.5 1700 c 128
 469.166666667 1710.66666667 452.666666667 1716 440 1716 c 0
 424 1716 407.166666667 1708.33333333 389.5 1693 c 128
 371.833333333 1677.66666667 352.666666667 1657.33333333 332 1632 c 1
 256 1679 l 1
EndSplineSet
EndChar

StartChar: Adieresis
Encoding: 196 196 115
Width: 1120
Flags: HW
LayerCount: 2
Fore
SplineSet
575 1268 m 1
 535 1214 l 1
 303 440 l 1
 815 440 l 1
 575 1268 l 1
465 1374 m 1
 664 1374 l 1
 1090 0 l 1
 950 0 l 1
 850 328 l 1
 268 328 l 1
 166 0 l 1
 29 0 l 1
 465 1374 l 1
279 1698 m 0
 279 1745.99272362 306.851646183 1780 356 1780 c 0
 408.512708346 1780 438 1748.0849351 438 1698 c 0
 438 1646.25165481 409.511044146 1616 356 1616 c 0
 305.855709167 1616 279 1648.33401964 279 1698 c 0
680 1698 m 0
 680 1747.29535385 707.877316478 1780 760 1780 c 256
 812.010219299 1780 842 1747.2582056 842 1698 c 0
 842 1648.99453309 810.709588462 1616 760 1616 c 0
 709.947953136 1616 680 1648.3440594 680 1698 c 0
EndSplineSet
EndChar

StartChar: Aring
Encoding: 197 197 116
Width: 1120
Flags: HW
LayerCount: 2
Fore
SplineSet
575 1268 m 1
 535 1214 l 1
 303 440 l 1
 815 440 l 1
 575 1268 l 1
465 1374 m 1
 664 1374 l 1
 1090 0 l 1
 950 0 l 1
 850 328 l 1
 268 328 l 1
 166 0 l 1
 29 0 l 1
 465 1374 l 1
557 1513 m 0
 439.510616101 1513 362 1580.87888566 362 1698 c 0
 362 1813.51733283 442.162214102 1880 559 1880 c 256
 675.850975662 1880 756 1813.52556411 756 1698 c 256
 756 1582.04069749 674.638814037 1513 557 1513 c 0
559 1804 m 256
 486.214231637 1804 444 1768.88435264 444 1698 c 0
 444 1628.50372527 487.611210213 1591 559 1591 c 0
 628.752112281 1591 672 1629.48499191 672 1698 c 0
 672 1768.90213968 631.866154237 1804 559 1804 c 256
EndSplineSet
EndChar

StartChar: AE
Encoding: 198 198 117
Width: 1284
Flags: HW
LayerCount: 2
Fore
SplineSet
592 1262 m 1
 309 442 l 1
 657 442 l 1
 618 1262 l 1
 592 1262 l 1
502 1374 m 1
 1190 1374 l 1
 1184 1262 l 1
 748 1262 l 1
 772 760 l 1
 1153 760 l 1
 1157 649 l 1
 778 649 l 1
 809 111 l 1
 1231 111 l 1
 1241 0 l 1
 682 0 l 1
 662 328 l 1
 270 328 l 1
 156 0 l 1
 16 0 l 1
 502 1374 l 1
EndSplineSet
EndChar

StartChar: Ccedilla
Encoding: 199 199 118
Width: 1147
Flags: HW
LayerCount: 2
Fore
SplineSet
1040 133 m 1
 1014.67846328 85.6597357039 982.6800932 55.4122184869 940 35 c 1
 851.594810287 4.39820356088 759.523522304 -27 637 -27 c 0
 468.366465676 -27 342.265737674 25.4811147912 266 117 c 1
 158.416204676 235.190648384 115 437.550353168 115 678 c 0
 115 1095.02170601 221.80984716 1397 637 1397 c 0
 781.542695051 1397 891.695987613 1360.15475503 993 1319 c 1
 1005.24566489 1236.341762 1022.39896098 1151.4100006 1032 1059 c 1
 907 1034 l 1
 899.857639812 1105.42360188 886.859349367 1174.2912794 870 1231 c 1
 810.608457006 1256.45351843 733.336829972 1278 639 1278 c 0
 510.789699802 1278 419.473160184 1235.80820234 365 1167 c 1
 279.773785796 1064.72854296 254 895.459930589 254 686 c 0
 254 504.726121545 278.743929085 355.776628533 336 252 c 0
 390.529241588 154.354613901 488.896441527 96 637 96 c 0
 716.480310575 96 783.445501976 113.359912578 836 135 c 1
 892.941141055 151.531299016 938.358016226 186.079912671 979 231 c 1
 1040 133 l 1
598 -119 m 1
 706.065974786 -119 786 -171.470966197 786 -281 c 0
 786 -385.263398683 724.801091604 -450.430862918 631 -461 c 1
 614.243345038 -461 599.391504812 -463.79845542 584 -461 c 1
 534.340273627 -457.896267102 496.855012416 -447.546147469 455 -432 c 1
 471 -352 l 1
 497.734063186 -365.367031593 529.608480635 -370.329177188 567 -373 c 0
 578 -373 578 -373 587.5 -373 c 128
 646.800532897 -373 680 -342.447910634 680 -285 c 0
 680 -218.119471036 637.44200733 -199 569 -199 c 1
 545.819164238 -192.182107129 521.634050137 -188.631814299 494 -186 c 1
 496 -90 l 1
 530.023847383 -83.6992875217 568.782418141 -80 608 -80 c 1
 603.689228714 -92.9323138591 601.814222183 -105.014518663 598 -119 c 1
EndSplineSet
EndChar

StartChar: Egrave
Encoding: 200 200 119
Width: 1069
Flags: HW
LayerCount: 2
Fore
SplineSet
176 1374 m 1
 926 1374 l 1
 920 1260 l 1
 307 1260 l 1
 307 762 l 1
 864 762 l 1
 864 649 l 1
 307 649 l 1
 307 115 l 1
 924 115 l 1
 930 0 l 1
 176 0 l 1
 176 1374 l 1
756 1632 m 1
 702 1565 l 1
 311 1788 l 1
 395 1876 l 1
 756 1632 l 1
EndSplineSet
EndChar

StartChar: Eacute
Encoding: 201 201 120
Width: 1069
Flags: HW
LayerCount: 2
Fore
SplineSet
176 1374 m 1
 926 1374 l 1
 920 1260 l 1
 307 1260 l 1
 307 762 l 1
 864 762 l 1
 864 649 l 1
 307 649 l 1
 307 115 l 1
 924 115 l 1
 930 0 l 1
 176 0 l 1
 176 1374 l 1
328 1632 m 1
 686 1874 l 1
 768 1786 l 1
 379 1563 l 1
 328 1632 l 1
EndSplineSet
EndChar

StartChar: Ecircumflex
Encoding: 202 202 121
Width: 1069
Flags: HW
LayerCount: 2
Fore
SplineSet
176 1374 m 1
 926 1374 l 1
 920 1260 l 1
 307 1260 l 1
 307 762 l 1
 864 762 l 1
 864 649 l 1
 307 649 l 1
 307 115 l 1
 924 115 l 1
 930 0 l 1
 176 0 l 1
 176 1374 l 1
563 1761 m 1
 406 1548 l 1
 279 1548 l 1
 510 1837 l 1
 612 1837 l 1
 846 1548 l 1
 719 1548 l 1
 563 1761 l 1
EndSplineSet
EndChar

StartChar: Edieresis
Encoding: 203 203 122
Width: 1069
Flags: HW
LayerCount: 2
Fore
SplineSet
176 1374 m 1
 926 1374 l 1
 920 1260 l 1
 307 1260 l 1
 307 762 l 1
 864 762 l 1
 864 649 l 1
 307 649 l 1
 307 115 l 1
 924 115 l 1
 930 0 l 1
 176 0 l 1
 176 1374 l 1
272 1698 m 0
 272 1747.03831873 301.191351297 1780 352 1780 c 0
 404.629923788 1780 432 1748.13122052 432 1698 c 0
 432 1646.75196149 404.710005248 1616 352 1616 c 0
 301.947953136 1616 272 1648.3440594 272 1698 c 0
676 1698 m 0
 676 1747.29535385 703.877316478 1780 756 1780 c 0
 806.317608926 1780 836 1746.22132672 836 1698 c 0
 836 1648.96168127 806.808648703 1616 756 1616 c 0
 705.947953136 1616 676 1648.3440594 676 1698 c 0
EndSplineSet
EndChar

StartChar: Igrave
Encoding: 204 204 123
Width: 920
Flags: HW
LayerCount: 2
Fore
SplineSet
186 1374 m 1
 737 1374 l 1
 735 1272 l 1
 530 1272 l 1
 530 102 l 1
 733 102 l 1
 733 0 l 1
 186 0 l 1
 186 102 l 1
 399 102 l 1
 399 1272 l 1
 186 1272 l 1
 186 1374 l 1
672 1632 m 1
 618 1565 l 1
 229 1788 l 1
 311 1876 l 1
 672 1632 l 1
EndSplineSet
EndChar

StartChar: Iacute
Encoding: 205 205 124
Width: 920
Flags: HW
LayerCount: 2
Fore
SplineSet
186 1374 m 1
 737 1374 l 1
 735 1272 l 1
 530 1272 l 1
 530 102 l 1
 733 102 l 1
 733 0 l 1
 186 0 l 1
 186 102 l 1
 399 102 l 1
 399 1272 l 1
 186 1272 l 1
 186 1374 l 1
244 1632 m 1
 602 1874 l 1
 686 1786 l 1
 297 1563 l 1
 244 1632 l 1
EndSplineSet
EndChar

StartChar: Icircumflex
Encoding: 206 206 125
Width: 920
Flags: HW
LayerCount: 2
Fore
SplineSet
186 1374 m 1
 737 1374 l 1
 735 1272 l 1
 530 1272 l 1
 530 102 l 1
 733 102 l 1
 733 0 l 1
 186 0 l 1
 186 102 l 1
 399 102 l 1
 399 1272 l 1
 186 1272 l 1
 186 1374 l 1
465 1761 m 1
 309 1548 l 1
 180 1548 l 1
 414 1837 l 1
 516 1837 l 1
 748 1548 l 1
 621 1548 l 1
 465 1761 l 1
EndSplineSet
EndChar

StartChar: Idieresis
Encoding: 207 207 126
Width: 920
Flags: HW
LayerCount: 2
Fore
SplineSet
186 1374 m 1
 737 1374 l 1
 735 1272 l 1
 530 1272 l 1
 530 102 l 1
 733 102 l 1
 733 0 l 1
 186 0 l 1
 186 102 l 1
 399 102 l 1
 399 1272 l 1
 186 1272 l 1
 186 1374 l 1
182 1698 m 0
 182 1747.03831873 211.191351297 1780 262 1780 c 256
 312.818277385 1780 342 1747.04823944 342 1698 c 0
 342 1647.28394824 313.816412742 1616 262 1616 c 0
 211.947953136 1616 182 1648.3440594 182 1698 c 0
584 1698 m 0
 584 1746.75177335 612.789248978 1780 664 1780 c 0
 716.073280691 1780 745 1747.28466396 745 1698 c 0
 745 1648.97820832 714.758974679 1616 664 1616 c 0
 613.06633373 1616 584 1647.81161161 584 1698 c 0
EndSplineSet
EndChar

StartChar: Ntilde
Encoding: 209 209 127
Width: 1196
Flags: HW
LayerCount: 2
Fore
SplineSet
133 1374 m 1
 276 1374 l 1
 493.844169577 1033.17750291 715.584025915 696.250692582 930 352 c 1
 934 352 l 1
 934 1374 l 1
 1063 1374 l 1
 1063 0 l 1
 924 0 l 1
 883 205 l 1
 717.738634446 460.888566019 552.000208504 713.139014416 389 971 c 1
 264 1167 l 1
 260 1167 l 1
 260 0 l 1
 133 0 l 1
 133 1374 l 1
295 1679 m 1
 329.171462246 1743.74592847 381.924214849 1812 475 1812 c 0
 526.930833037 1812 580.366222341 1782.42976502 618 1762 c 128
 641.333333333 1749.33333333 662.666666667 1737.83333333 682 1727.5 c 128
 701.333333333 1717.16666667 716.333333333 1712 727 1712 c 0
 742.333333333 1712 758 1719 774 1733 c 128
 790 1747 808.333333333 1767.33333333 829 1794 c 1
 901 1749 l 1
 877.666666667 1701 851.333333333 1666.5 822 1645.5 c 128
 792.666666667 1624.5 763 1614 733 1614 c 0
 681.207195722 1614 628.610961173 1644.58262108 591 1665 c 128
 567.666666667 1677.66666667 546 1689.33333333 526 1700 c 128
 506 1710.66666667 489.666666667 1716 477 1716 c 0
 460.333333333 1716 443.333333333 1708.33333333 426 1693 c 128
 408.666666667 1677.66666667 389.666666667 1657.33333333 369 1632 c 1
 295 1679 l 1
EndSplineSet
EndChar

StartChar: Ograve
Encoding: 210 210 128
Width: 1190
Flags: HW
LayerCount: 2
Fore
SplineSet
956 688 m 0
 956 1008.98259165 912.094082976 1278 596 1278 c 0
 381.80376739 1278 297.670612213 1163.0786171 257.5 986 c 128
 241.166666667 914 233 823.666666667 233 715 c 0
 233 581.666666667 241.666666667 473 259 389 c 128
 287.738253622 249.730001677 326.827762252 173.520960843 434.5 123.5 c 128
 476.833333333 103.833333333 530 94 594 94 c 0
 724.767182606 94 818.14523178 142.180381755 866 221 c 1
 936.893059487 330.562001026 956 491.490328715 956 688 c 0
594 -27 m 0
 185.833186107 -27 94 287.411452181 94 698 c 0
 94 1111.53496313 194.200135997 1397 596 1397 c 0
 793.485720644 1397 925.595719465 1319.24118098 995 1192 c 1
 1064.52628836 1076.12285273 1096 918.335241078 1096 729 c 0
 1096 463.921245035 1063.16931804 230.043335231 936 96 c 1
 858.517052534 21.4971658984 747.206616097 -27 594 -27 c 0
819 1632 m 1
 766 1565 l 1
 377 1788 l 1
 459 1876 l 1
 819 1632 l 1
EndSplineSet
EndChar

StartChar: Oacute
Encoding: 211 211 129
Width: 1190
Flags: HW
LayerCount: 2
Fore
SplineSet
956 688 m 0
 956 1008.98259165 912.094082976 1278 596 1278 c 0
 381.80376739 1278 297.670612213 1163.0786171 257.5 986 c 128
 241.166666667 914 233 823.666666667 233 715 c 0
 233 581.666666667 241.666666667 473 259 389 c 128
 287.738253622 249.730001677 326.827762252 173.520960843 434.5 123.5 c 128
 476.833333333 103.833333333 530 94 594 94 c 0
 724.767182606 94 818.14523178 142.180381755 866 221 c 1
 936.893059487 330.562001026 956 491.490328715 956 688 c 0
594 -27 m 0
 185.833186107 -27 94 287.411452181 94 698 c 0
 94 1111.53496313 194.200135997 1397 596 1397 c 0
 793.485720644 1397 925.595719465 1319.24118098 995 1192 c 1
 1064.52628836 1076.12285273 1096 918.335241078 1096 729 c 0
 1096 463.921245035 1063.16931804 230.043335231 936 96 c 1
 858.517052534 21.4971658984 747.206616097 -27 594 -27 c 0
395 1632 m 1
 758 1874 l 1
 840 1786 l 1
 451 1563 l 1
 395 1632 l 1
EndSplineSet
EndChar

StartChar: Ocircumflex
Encoding: 212 212 130
Width: 1190
Flags: HW
LayerCount: 2
Fore
SplineSet
956 688 m 0
 956 1008.98259165 912.094082976 1278 596 1278 c 0
 381.80376739 1278 297.670612213 1163.0786171 257.5 986 c 128
 241.166666667 914 233 823.666666667 233 715 c 0
 233 581.666666667 241.666666667 473 259 389 c 128
 287.738253622 249.730001677 326.827762252 173.520960843 434.5 123.5 c 128
 476.833333333 103.833333333 530 94 594 94 c 0
 724.767182606 94 818.14523178 142.180381755 866 221 c 1
 936.893059487 330.562001026 956 491.490328715 956 688 c 0
594 -27 m 0
 185.833186107 -27 94 287.411452181 94 698 c 0
 94 1111.53496313 194.200135997 1397 596 1397 c 0
 793.485720644 1397 925.595719465 1319.24118098 995 1192 c 1
 1064.52628836 1076.12285273 1096 918.335241078 1096 729 c 0
 1096 463.921245035 1063.16931804 230.043335231 936 96 c 1
 858.517052534 21.4971658984 747.206616097 -27 594 -27 c 0
600 1761 m 1
 442 1548 l 1
 315 1548 l 1
 547 1837 l 1
 649 1837 l 1
 883 1548 l 1
 756 1548 l 1
 600 1761 l 1
EndSplineSet
EndChar

StartChar: Otilde
Encoding: 213 213 131
Width: 1190
Flags: HW
LayerCount: 2
Fore
SplineSet
956 688 m 0
 956 1008.98259165 912.094082976 1278 596 1278 c 0
 381.80376739 1278 297.670612213 1163.0786171 257.5 986 c 128
 241.166666667 914 233 823.666666667 233 715 c 0
 233 581.666666667 241.666666667 473 259 389 c 128
 287.738253622 249.730001677 326.827762252 173.520960843 434.5 123.5 c 128
 476.833333333 103.833333333 530 94 594 94 c 0
 724.767182606 94 818.14523178 142.180381755 866 221 c 1
 936.893059487 330.562001026 956 491.490328715 956 688 c 0
594 -27 m 0
 185.833186107 -27 94 287.411452181 94 698 c 0
 94 1111.53496313 194.200135997 1397 596 1397 c 0
 793.485720644 1397 925.595719465 1319.24118098 995 1192 c 1
 1064.52628836 1076.12285273 1096 918.335241078 1096 729 c 0
 1096 463.921245035 1063.16931804 230.043335231 936 96 c 1
 858.517052534 21.4971658984 747.206616097 -27 594 -27 c 0
289 1679 m 1
 323.171462246 1743.74592847 375.924214849 1812 469 1812 c 0
 522.137143223 1812 574.908050382 1782.65484627 613.5 1762 c 128
 637.166666667 1749.33333333 658.666666667 1737.83333333 678 1727.5 c 128
 697.333333333 1717.16666667 712.333333333 1712 723 1712 c 0
 737.666666667 1712 752.833333333 1719 768.5 1733 c 128
 784.166666667 1747 802.333333333 1767.33333333 823 1794 c 1
 895 1749 l 1
 871.666666667 1701 845 1666.5 815 1645.5 c 128
 785 1624.5 755.666666667 1614 727 1614 c 0
 675.00511866 1614 622.579285185 1644.61953751 584.5 1665 c 128
 560.833333333 1677.66666667 539 1689.33333333 519 1700 c 128
 499 1710.66666667 483 1716 471 1716 c 0
 454.333333333 1716 437.166666667 1708.33333333 419.5 1693 c 128
 401.833333333 1677.66666667 382.666666667 1657.33333333 362 1632 c 1
 289 1679 l 1
EndSplineSet
EndChar

StartChar: Odieresis
Encoding: 214 214 132
Width: 1190
Flags: HW
LayerCount: 2
Fore
SplineSet
956 688 m 0
 956 1008.98259165 912.094082976 1278 596 1278 c 0
 381.80376739 1278 297.670612213 1163.0786171 257.5 986 c 128
 241.166666667 914 233 823.666666667 233 715 c 0
 233 581.666666667 241.666666667 473 259 389 c 128
 287.738253622 249.730001677 326.827762252 173.520960843 434.5 123.5 c 128
 476.833333333 103.833333333 530 94 594 94 c 0
 724.767182606 94 818.14523178 142.180381755 866 221 c 1
 936.893059487 330.562001026 956 491.490328715 956 688 c 0
594 -27 m 0
 185.833186107 -27 94 287.411452181 94 698 c 0
 94 1111.53496313 194.200135997 1397 596 1397 c 0
 793.485720644 1397 925.595719465 1319.24118098 995 1192 c 1
 1064.52628836 1076.12285273 1096 918.335241078 1096 729 c 0
 1096 463.921245035 1063.16931804 230.043335231 936 96 c 1
 858.517052534 21.4971658984 747.206616097 -27 594 -27 c 0
313 1698 m 0
 313 1745.98245995 341.892296653 1780 391 1780 c 0
 443.512708346 1780 473 1748.0849351 473 1698 c 0
 473 1646.25165481 444.511044146 1616 391 1616 c 0
 340.886515882 1616 313 1648.33740809 313 1698 c 0
715 1698 m 0
 715 1748.17193452 746.141202818 1780 797 1780 c 0
 847.317608926 1780 877 1746.22132672 877 1698 c 0
 877 1650.03768643 846.026940698 1616 797 1616 c 0
 745.620861593 1616 715 1646.96788368 715 1698 c 0
EndSplineSet
EndChar

StartChar: Oslash
Encoding: 216 216 133
Width: 1188
Flags: HW
LayerCount: 2
Fore
SplineSet
991 1280 m 1
 972.242010586 1250.52315949 956.758456331 1221.47757423 938 1192 c 1
 953.333333333 1163.33333333 956.666666667 1125.16666667 948 1077.5 c 128
 939.333333333 1029.83333333 919 967.666666667 887 891 c 1
 821.815825027 662.855387596 739.282427305 456.141213653 556 364.5 c 128
 524.666666667 348.833333333 491 335.333333333 455 324 c 0
 387.963418365 304.701590135 322.276119351 288.804904056 250 295 c 1
 235.253796162 269.52928428 223.746610497 244.471418132 209 219 c 1
 201.558065266 176.829036508 194 144.706775105 194 104 c 128
 194 99.3333333333 193.666666667 96 193 94 c 1
 209.309080144 127.977250301 229.738339047 160.389891156 248 193 c 1
 233.333333333 223 230.5 262.666666667 239.5 312 c 128
 248.5 361.333333333 269 425.333333333 301 504 c 1
 369.08276375 723.226499274 445.310329793 917.655164897 625 1007.5 c 128
 655 1022.5 687.666666667 1036.33333333 723 1049 c 1
 794.852530429 1070.13309719 858.902993491 1088.04881046 932 1092 c 1
 946.803992652 1114.87889773 957.544278519 1136.77970133 971 1161 c 1
 979.866929605 1200.26783111 985.711173312 1231.95642637 988.5 1271 c 128
 988.833333333 1275.66666667 989.666666667 1278.66666667 991 1280 c 1
205 438 m 1
 243.547571625 619.724266232 316.916821074 756.364977982 412.5 879 c 128
 470.403454919 953.291225179 543.571331993 1018.285666 633 1063 c 0
 696.333333333 1094.33333333 749.666666667 1119.33333333 793 1138 c 128
 836.333333333 1156.66666667 871.666666667 1176.66666667 899 1198 c 1
 883.053784912 1226.70318716 851.873775634 1169.85344089 842 1153.5 c 128
 831.333333333 1135.83333333 818.333333333 1113 803 1085 c 1
 736.7355106 978.97681696 655.548971467 895.562963315 582 801 c 1
 527.566622517 727.903750238 465.697800145 644.17827396 389 584 c 1
 342.906277149 542.758247975 306.324610032 502.551837054 276 451 c 1
 256.160816663 428.956462958 237.370576215 407.459959133 229 379 c 1
 217.034850036 357.063891733 203.808320603 361.258549747 202 392 c 128
 201.333333333 403.333333333 202.333333333 418.666666667 205 438 c 1
512 10 m 1
 457.333333333 6 420.333333333 30 401 82 c 1
 856 1231 l 1
 871.0086352 1146.576427 859.721653439 1061.83883237 848 967 c 1
 819.309291358 664.791202305 764.329379763 389.189439225 646 180 c 128
 608.666666667 114 564 57.3333333333 512 10 c 1
EndSplineSet
EndChar

StartChar: Ugrave
Encoding: 217 217 134
Width: 1180
Flags: HW
LayerCount: 2
Fore
SplineSet
592 90 m 0
 835.506797713 90 915 223.63025283 915 471 c 2
 915 1374 l 1
 1049 1374 l 1
 1049 668 l 2
 1049 497.815854499 1044.02801919 334.706436452 1002.5 209 c 128
 990.166666667 171.666666667 974 140.333333333 954 115 c 1
 884.446965136 20.1549524584 753.747274088 -29 588 -29 c 0
 371.810881606 -29 224.104614493 49.8396511786 172.5 213.5 c 128
 133.547729331 337.034344121 131 501.130543964 131 666 c 2
 131 1374 l 1
 264 1374 l 1
 264 674 l 2
 264 560.472367915 268.381620193 466.038937496 276 367 c 1
 285.366844362 176.540831299 388.828788924 90 592 90 c 0
799 1632 m 1
 745 1565 l 1
 356 1788 l 1
 438 1876 l 1
 799 1632 l 1
EndSplineSet
EndChar

StartChar: Uacute
Encoding: 218 218 135
Width: 1180
Flags: HW
LayerCount: 2
Fore
SplineSet
592 90 m 0
 835.506797713 90 915 223.63025283 915 471 c 2
 915 1374 l 1
 1049 1374 l 1
 1049 668 l 2
 1049 497.815854499 1044.02801919 334.706436452 1002.5 209 c 128
 990.166666667 171.666666667 974 140.333333333 954 115 c 1
 884.446965136 20.1549524584 753.747274088 -29 588 -29 c 0
 371.810881606 -29 224.104614493 49.8396511786 172.5 213.5 c 128
 133.547729331 337.034344121 131 501.130543964 131 666 c 2
 131 1374 l 1
 264 1374 l 1
 264 674 l 2
 264 560.472367915 268.381620193 466.038937496 276 367 c 1
 285.366844362 176.540831299 388.828788924 90 592 90 c 0
397 1632 m 1
 758 1874 l 1
 840 1786 l 1
 451 1563 l 1
 397 1632 l 1
EndSplineSet
EndChar

StartChar: Ucircumflex
Encoding: 219 219 136
Width: 1180
Flags: HW
LayerCount: 2
Fore
SplineSet
592 90 m 0
 835.506797713 90 915 223.63025283 915 471 c 2
 915 1374 l 1
 1049 1374 l 1
 1049 668 l 2
 1049 497.815854499 1044.02801919 334.706436452 1002.5 209 c 128
 990.166666667 171.666666667 974 140.333333333 954 115 c 1
 884.446965136 20.1549524584 753.747274088 -29 588 -29 c 0
 371.810881606 -29 224.104614493 49.8396511786 172.5 213.5 c 128
 133.547729331 337.034344121 131 501.130543964 131 666 c 2
 131 1374 l 1
 264 1374 l 1
 264 674 l 2
 264 560.472367915 268.381620193 466.038937496 276 367 c 1
 285.366844362 176.540831299 388.828788924 90 592 90 c 0
594 1761 m 1
 438 1548 l 1
 309 1548 l 1
 543 1837 l 1
 645 1837 l 1
 877 1548 l 1
 750 1548 l 1
 594 1761 l 1
EndSplineSet
EndChar

StartChar: Udieresis
Encoding: 220 220 137
Width: 1180
Flags: HW
LayerCount: 2
Fore
SplineSet
592 90 m 0
 835.506797713 90 915 223.63025283 915 471 c 2
 915 1374 l 1
 1049 1374 l 1
 1049 668 l 2
 1049 497.815854499 1044.02801919 334.706436452 1002.5 209 c 128
 990.166666667 171.666666667 974 140.333333333 954 115 c 1
 884.446965136 20.1549524584 753.747274088 -29 588 -29 c 0
 371.810881606 -29 224.104614493 49.8396511786 172.5 213.5 c 128
 133.547729331 337.034344121 131 501.130543964 131 666 c 2
 131 1374 l 1
 264 1374 l 1
 264 674 l 2
 264 560.472367915 268.381620193 466.038937496 276 367 c 1
 285.366844362 176.540831299 388.828788924 90 592 90 c 0
307 1698 m 0
 307 1745.96231357 337.973059302 1780 387 1780 c 0
 439.629923788 1780 467 1748.13122052 467 1698 c 0
 467 1647.28394824 438.816412742 1616 387 1616 c 0
 336.947953136 1616 307 1648.3440594 307 1698 c 0
711 1698 m 0
 711 1747.29535385 738.877316478 1780 791 1780 c 0
 841.263726063 1780 872 1746.20129016 872 1698 c 0
 872 1648.97820832 841.758974679 1616 791 1616 c 0
 740.06633373 1616 711 1647.81161161 711 1698 c 0
EndSplineSet
EndChar

StartChar: germandbls
Encoding: 223 223 138
Width: 1090
Flags: HW
LayerCount: 2
Fore
SplineSet
522 1286 m 0
 334.211394033 1286 268 1186.32195387 268 997 c 2
 268 0 l 1
 147 0 l 1
 147 1008 l 2
 147 1265.51938515 267.657903393 1397 526 1397 c 0
 766.591212724 1397 883.480587709 1306.31059666 897.5 1082 c 128
 899.833333333 1044.66666667 901 1005 901 963 c 1
 772.326743223 918.828583494 666.967851386 869.527129808 616 754 c 1
 628.706445217 709.527441739 681.080444276 683.031761202 723 660.5 c 128
 852.52373678 590.880991481 998.810961294 534.019051416 1002.5 338.5 c 128
 1007.40058838 78.7688156031 889.54395568 -32.2926373408 618 -16 c 0
 524.786814163 -10.3507160098 463.026267556 25.493049759 401 66 c 1
 444 156 l 1
 510.20933638 114.803079586 602.893971983 87.2519970509 705 98 c 1
 836.569139805 106.223071238 877 181.318174016 877 322 c 0
 877 358.285110379 874.745893138 384.41087022 860 401 c 1
 840.689788476 540.999033551 688.021021374 534.848133697 574.5 583.5 c 128
 506.530220058 612.629905689 457.644970175 653.803255484 440 731 c 1
 440 768 l 1
 485.497801583 862.951933739 576.775181178 902.059652965 670 950.5 c 128
 704 968.166666667 740 990.666666667 778 1018 c 1
 778 1153.16948632 754.653568543 1238.67739375 652 1270.5 c 128
 618.666666667 1280.83333333 575.333333333 1286 522 1286 c 0
EndSplineSet
EndChar

StartChar: agrave
Encoding: 224 224 139
Width: 1047
Flags: HW
LayerCount: 2
Fore
SplineSet
489 588 m 1
 587.472183503 588 663.678252485 584 754 584 c 1
 754 709.686420783 752.203992076 828.081669968 666 864 c 1
 628.311707122 882.844146439 584.974738603 889 520 889 c 0
 445.868109143 889 375.875406791 874.408195915 312 857.5 c 128
 270.533893532 846.5236777 237.289545708 823.766757897 213 793 c 1
 152 879 l 1
 218.766190984 970.494409866 359.462799275 1001 514 1001 c 0
 648.593324332 1001 757.510793797 979.297658529 813 903 c 1
 868.198897127 832.276413057 877 725.787359782 877 584 c 2
 877 211 l 2
 877 170.520774269 875.972507667 150.441867972 895 133 c 1
 907 -8 l 1
 875.556224892 -14.2887550216 846.419597168 -15.0939480724 813 -18 c 1
 779.534407665 9.48959370345 764.634487156 58.475812228 760 111 c 1
 708.53110932 59.5311093199 628.226987618 16.5270996463 545.5 -6.5 c 128
 513.166666667 -15.5 480 -20 446 -20 c 0
 236.467342368 -20 115 73.8261020042 115 279 c 0
 115 364.61079456 135.445935119 420.427129943 170 467 c 1
 232.444379304 543.494364648 342.541452956 584.456648055 489 588 c 1
244 287 m 0
 244 140.814627318 308.309819383 92 459 92 c 0
 564.330312063 92 654.599694338 142.79971981 711 194.5 c 128
 731 212.833333333 745.333333333 230.666666667 754 248 c 1
 754 483 l 1
 557.245923429 483 293.658215569 519.085846878 251 351.5 c 128
 246.333333333 333.166666667 244 311.666666667 244 287 c 0
735 1247 m 1
 676 1182 l 1
 317 1415 l 1
 406 1507 l 1
 735 1247 l 1
EndSplineSet
EndChar

StartChar: aacute
Encoding: 225 225 140
Width: 1047
Flags: HW
LayerCount: 2
Fore
SplineSet
489 588 m 1
 587.472183503 588 663.678252485 584 754 584 c 1
 754 709.686420783 752.203992076 828.081669968 666 864 c 1
 628.311707122 882.844146439 584.974738603 889 520 889 c 0
 445.868109143 889 375.875406791 874.408195915 312 857.5 c 128
 270.533893532 846.5236777 237.289545708 823.766757897 213 793 c 1
 152 879 l 1
 218.766190984 970.494409866 359.462799275 1001 514 1001 c 0
 648.593324332 1001 757.510793797 979.297658529 813 903 c 1
 868.198897127 832.276413057 877 725.787359782 877 584 c 2
 877 211 l 2
 877 170.520774269 875.972507667 150.441867972 895 133 c 1
 907 -8 l 1
 875.556224892 -14.2887550216 846.419597168 -15.0939480724 813 -18 c 1
 779.534407665 9.48959370345 764.634487156 58.475812228 760 111 c 1
 708.53110932 59.5311093199 628.226987618 16.5270996463 545.5 -6.5 c 128
 513.166666667 -15.5 480 -20 446 -20 c 0
 236.467342368 -20 115 73.8261020042 115 279 c 0
 115 364.61079456 135.445935119 420.427129943 170 467 c 1
 232.444379304 543.494364648 342.541452956 584.456648055 489 588 c 1
244 287 m 0
 244 140.814627318 308.309819383 92 459 92 c 0
 564.330312063 92 654.599694338 142.79971981 711 194.5 c 128
 731 212.833333333 745.333333333 230.666666667 754 248 c 1
 754 483 l 1
 557.245923429 483 293.658215569 519.085846878 251 351.5 c 128
 246.333333333 333.166666667 244 311.666666667 244 287 c 0
299 1247 m 1
 629 1507 l 1
 717 1415 l 1
 358 1182 l 1
 299 1247 l 1
EndSplineSet
EndChar

StartChar: acircumflex
Encoding: 226 226 141
Width: 1047
Flags: HW
LayerCount: 2
Fore
SplineSet
489 588 m 1
 587.472183503 588 663.678252485 584 754 584 c 1
 754 709.686420783 752.203992076 828.081669968 666 864 c 1
 628.311707122 882.844146439 584.974738603 889 520 889 c 0
 445.868109143 889 375.875406791 874.408195915 312 857.5 c 128
 270.533893532 846.5236777 237.289545708 823.766757897 213 793 c 1
 152 879 l 1
 218.766190984 970.494409866 359.462799275 1001 514 1001 c 0
 648.593324332 1001 757.510793797 979.297658529 813 903 c 1
 868.198897127 832.276413057 877 725.787359782 877 584 c 2
 877 211 l 2
 877 170.520774269 875.972507667 150.441867972 895 133 c 1
 907 -8 l 1
 875.556224892 -14.2887550216 846.419597168 -15.0939480724 813 -18 c 1
 779.534407665 9.48959370345 764.634487156 58.475812228 760 111 c 1
 708.53110932 59.5311093199 628.226987618 16.5270996463 545.5 -6.5 c 128
 513.166666667 -15.5 480 -20 446 -20 c 0
 236.467342368 -20 115 73.8261020042 115 279 c 0
 115 364.61079456 135.445935119 420.427129943 170 467 c 1
 232.444379304 543.494364648 342.541452956 584.456648055 489 588 c 1
244 287 m 0
 244 140.814627318 308.309819383 92 459 92 c 0
 564.330312063 92 654.599694338 142.79971981 711 194.5 c 128
 731 212.833333333 745.333333333 230.666666667 754 248 c 1
 754 483 l 1
 557.245923429 483 293.658215569 519.085846878 251 351.5 c 128
 246.333333333 333.166666667 244 311.666666667 244 287 c 0
526 1440 m 1
 362 1182 l 1
 236 1182 l 1
 471 1516 l 1
 582 1516 l 1
 817 1182 l 1
 690 1182 l 1
 526 1440 l 1
EndSplineSet
EndChar

StartChar: atilde
Encoding: 227 227 142
Width: 1047
Flags: HW
LayerCount: 2
Fore
SplineSet
489 588 m 1
 587.472183503 588 663.678252485 584 754 584 c 1
 754 709.686420783 752.203992076 828.081669968 666 864 c 1
 628.311707122 882.844146439 584.974738603 889 520 889 c 0
 445.868109143 889 375.875406791 874.408195915 312 857.5 c 128
 270.533893532 846.5236777 237.289545708 823.766757897 213 793 c 1
 152 879 l 1
 218.766190984 970.494409866 359.462799275 1001 514 1001 c 0
 648.593324332 1001 757.510793797 979.297658529 813 903 c 1
 868.198897127 832.276413057 877 725.787359782 877 584 c 2
 877 211 l 2
 877 170.520774269 875.972507667 150.441867972 895 133 c 1
 907 -8 l 1
 875.556224892 -14.2887550216 846.419597168 -15.0939480724 813 -18 c 1
 779.534407665 9.48959370345 764.634487156 58.475812228 760 111 c 1
 708.53110932 59.5311093199 628.226987618 16.5270996463 545.5 -6.5 c 128
 513.166666667 -15.5 480 -20 446 -20 c 0
 236.467342368 -20 115 73.8261020042 115 279 c 0
 115 364.61079456 135.445935119 420.427129943 170 467 c 1
 232.444379304 543.494364648 342.541452956 584.456648055 489 588 c 1
244 287 m 0
 244 140.814627318 308.309819383 92 459 92 c 0
 564.330312063 92 654.599694338 142.79971981 711 194.5 c 128
 731 212.833333333 745.333333333 230.666666667 754 248 c 1
 754 483 l 1
 557.245923429 483 293.658215569 519.085846878 251 351.5 c 128
 246.333333333 333.166666667 244 311.666666667 244 287 c 0
811 1380 m 1
 777.678339088 1309.43648277 727.468085995 1245 643 1245 c 0
 592.124539805 1245 538.926577561 1276.92662107 502 1297.5 c 128
 478.666666667 1310.5 456.833333333 1322.5 436.5 1333.5 c 128
 416.166666667 1344.5 399.666666667 1350 387 1350 c 0
 370.333333333 1350 353.666666667 1342.33333333 337 1327 c 128
 320.333333333 1311.66666667 301.666666667 1290.66666667 281 1264 c 1
 205 1313 l 1
 231.666666667 1360.33333333 261.166666667 1394.33333333 293.5 1415 c 128
 325.833333333 1435.66666667 357 1446 387 1446 c 0
 438.930833037 1446 492.366222341 1416.42976502 530 1396 c 128
 553.333333333 1383.33333333 574.666666667 1371.83333333 594 1361.5 c 128
 613.333333333 1351.16666667 628.333333333 1346 639 1346 c 0
 653.666666667 1346 669.166666667 1352.83333333 685.5 1366.5 c 128
 701.833333333 1380.16666667 720.333333333 1400.33333333 741 1427 c 1
 811 1380 l 1
EndSplineSet
EndChar

StartChar: adieresis
Encoding: 228 228 143
Width: 1047
Flags: HW
LayerCount: 2
Fore
SplineSet
489 588 m 1
 587.472183503 588 663.678252485 584 754 584 c 1
 754 709.686420783 752.203992076 828.081669968 666 864 c 1
 628.311707122 882.844146439 584.974738603 889 520 889 c 0
 445.868109143 889 375.875406791 874.408195915 312 857.5 c 128
 270.533893532 846.5236777 237.289545708 823.766757897 213 793 c 1
 152 879 l 1
 218.766190984 970.494409866 359.462799275 1001 514 1001 c 0
 648.593324332 1001 757.510793797 979.297658529 813 903 c 1
 868.198897127 832.276413057 877 725.787359782 877 584 c 2
 877 211 l 2
 877 170.520774269 875.972507667 150.441867972 895 133 c 1
 907 -8 l 1
 875.556224892 -14.2887550216 846.419597168 -15.0939480724 813 -18 c 1
 779.534407665 9.48959370345 764.634487156 58.475812228 760 111 c 1
 708.53110932 59.5311093199 628.226987618 16.5270996463 545.5 -6.5 c 128
 513.166666667 -15.5 480 -20 446 -20 c 0
 236.467342368 -20 115 73.8261020042 115 279 c 0
 115 364.61079456 135.445935119 420.427129943 170 467 c 1
 232.444379304 543.494364648 342.541452956 584.456648055 489 588 c 1
244 287 m 0
 244 140.814627318 308.309819383 92 459 92 c 0
 564.330312063 92 654.599694338 142.79971981 711 194.5 c 128
 731 212.833333333 745.333333333 230.666666667 754 248 c 1
 754 483 l 1
 557.245923429 483 293.658215569 519.085846878 251 351.5 c 128
 246.333333333 333.166666667 244 311.666666667 244 287 c 0
244 1331 m 0
 244 1380.57751828 272.290181388 1413 324 1413 c 0
 376.689139706 1413 403 1381.15479659 403 1331 c 0
 403 1280.29958076 375.875217955 1247 324 1247 c 0
 273.053984126 1247 244 1280.84593977 244 1331 c 0
647 1331 m 0
 647 1380.29535385 674.877316478 1413 727 1413 c 0
 777.317608926 1413 807 1379.22132672 807 1331 c 0
 807 1281.97001853 777.839332979 1247 727 1247 c 256
 675.159688864 1247 647 1280.30383934 647 1331 c 0
EndSplineSet
EndChar

StartChar: aring
Encoding: 229 229 144
Width: 1047
Flags: HW
LayerCount: 2
Fore
SplineSet
487 588 m 1
 585.230974401 588 663.827419174 584 754 584 c 1
 754 709.686420783 752.203992076 828.081669968 666 864 c 1
 628.311707122 882.844146439 584.974738603 889 520 889 c 0
 445.868109143 889 375.875406791 874.408195915 312 857.5 c 128
 270.533893532 846.5236777 237.289545708 823.766757897 213 793 c 1
 152 879 l 1
 218.766190984 970.494409866 359.462799275 1001 514 1001 c 0
 648.593324332 1001 757.510793797 979.297658529 813 903 c 1
 868.198897127 832.276413057 877 725.787359782 877 584 c 2
 877 211 l 2
 877 170.520774269 875.972507667 150.441867972 895 133 c 1
 907 -8 l 1
 875.556224892 -14.2887550216 846.419597168 -15.0939480724 813 -18 c 1
 779.534407665 9.48959370345 764.634487156 58.475812228 760 111 c 1
 708.53110932 59.5311093199 628.226987618 16.5270996463 545.5 -6.5 c 128
 513.166666667 -15.5 480 -20 446 -20 c 0
 236.467342368 -20 115 73.8261020042 115 279 c 0
 115 432.580130161 177.976294673 504.067608722 287 551.5 c 128
 338.333333333 573.833333333 405 586 487 588 c 1
244 287 m 0
 244 140.814627318 308.309819383 92 459 92 c 0
 564.330312063 92 654.599694338 142.79971981 711 194.5 c 128
 731 212.833333333 745.333333333 230.666666667 754 248 c 1
 754 483 l 1
 557.51221689 483 293.589321267 518.815190692 251 351.5 c 128
 246.333333333 333.166666667 244 311.666666667 244 287 c 0
524 1112 m 0
 407.3997267 1112 328 1179.94356729 328 1296 c 256
 328 1412.44061838 406.868552705 1479 524 1479 c 0
 643.557000497 1479 723 1412.99616271 723 1294 c 0
 723 1176.98644406 641.877704785 1112 524 1112 c 0
524 1401 m 0
 452.833731641 1401 412 1365.92541175 412 1296 c 256
 412 1226.59686695 453.697101379 1190 524 1190 c 0
 594.920636978 1190 637 1225.32105483 637 1294 c 0
 637 1365.33333333 599.333333333 1401 524 1401 c 0
EndSplineSet
EndChar

StartChar: ae
Encoding: 230 230 145
Width: 1249
Flags: HW
LayerCount: 2
Fore
SplineSet
389 571 m 1
 453.519581383 571 501.282377027 567.668733819 557 575 c 1
 556.333333333 641 554.833333333 693.166666667 552.5 731.5 c 128
 548.99269771 789.119966187 543.308817111 840.934392103 508.5 857 c 128
 495.5 863 478.333333333 866.666666667 457 868 c 1
 431.482433334 873.103513333 414.022269816 881.159066832 373 879 c 0
 321.88707199 877.174538285 284.983221151 868.992809065 250 854 c 1
 214.506094432 842.90815451 179.294290056 818.409447034 156 786 c 1
 90 868 l 1
 145.502924972 951.254387457 252.33597807 993 387 993 c 0
 516.933847187 993 610.953733052 962.161934318 639 864 c 1
 682.214768813 947.548553038 757.384612241 999 885 999 c 0
 1072.28697595 999 1140.3314777 905.47456638 1176.5 751.5 c 128
 1188.16666667 701.833333333 1194 639 1194 563 c 1
 1190 455 l 1
 680 455 l 1
 685.5264117 314.997570264 714.512799173 207.256437416 776 129 c 1
 799.00452351 102.456319026 836.893619848 88 893 88 c 0
 969.705350384 88 1019.29093588 106.014885773 1077 127 c 1
 1099.97453025 140.128302998 1113.3579731 158.417395849 1126 186 c 1
 1186 109 l 1
 1168.77152396 71.3127086676 1151.87745671 54.1553579729 1124 37 c 1
 1061.36694354 6.34978088249 993.939732847 -23 901 -23 c 0
 765.044153813 -23 677.623006481 36.1851373618 629 131 c 1
 575.090486632 36.0165716853 478.115833467 -23 332 -23 c 0
 182.749865075 -23 105.391773253 50.4863770536 70.5 165.5 c 128
 61.5 195.166666667 57 230.666666667 57 272 c 0
 57 416.571774591 107.495769715 486.597931861 206.5 535 c 128
 251.5 557 312.333333333 569 389 571 c 1
350 88 m 0
 457.852269037 88 527.82901593 144.76872454 557 223 c 1
 557 305 557 387 557 469 c 1
 499.908590568 460.844084367 459.388360003 465.399591579 391 463 c 0
 258.384409172 458.026915344 186 411.868943539 186 279 c 0
 186 152.557260164 223.521085175 88 350 88 c 0
1004 561 m 1
 1065 559 l 1
 1062.90691185 681.445656524 1051.96747476 782.520331303 1004 842 c 1
 976.692277977 870.74497055 939.208220675 887 881 887 c 0
 758.03314203 887 720.627639653 821.432930324 697.5 719.5 c 128
 688.5 679.833333333 683.333333333 627 682 561 c 1
 1004 561 l 1
EndSplineSet
EndChar

StartChar: ccedilla
Encoding: 231 231 146
Width: 1038
Flags: HW
LayerCount: 2
Fore
SplineSet
279 494 m 0
 279 255.576171072 339.487339039 90 578 90 c 0
 655.547590379 90 712.651781105 110.060712442 770 133 c 1
 800.825163431 149.319204169 818.362562857 163.974438045 840 197 c 1
 899 115 l 1
 879.458100069 75.9162001384 854.013455424 54.1130531403 821 35 c 1
 752.232139931 7.77938872263 677.565277134 -20 578 -20 c 0
 265.354889682 -20 150 178.947460678 150 496 c 0
 150 736.011948001 208.529145896 880.696754443 367 959 c 128
 423.666666667 987 494 1001 578 1001 c 0
 694.193704963 1001 783.197038494 973.970540666 860 940 c 1
 872.235687656 854.35018641 880.857775141 780.275597745 887 682 c 1
 770 672 l 1
 766.422996824 739.963060349 760.794449146 793.270310816 756 854 c 1
 700.559024535 872.480325155 647.781892168 889 575 889 c 0
 337.955110102 889 279 734.140465975 279 494 c 0
545 -119 m 1
 654.075582135 -119 733 -170.593163543 733 -281 c 0
 733 -385.773937947 672.703862252 -450.477348639 578 -461 c 1
 561.865672151 -461 546.189569801 -463.490703046 530 -461 c 1
 479.692447156 -457.855777947 446.169741671 -447.589073381 403 -432 c 1
 420 -352 l 1
 446.734063186 -365.367031593 478.608480635 -370.329177188 516 -373 c 0
 527 -373 527 -373 536.5 -373 c 128
 596.06644303 -373 629 -342.143541983 629 -285 c 0
 629 -218.145932723 584.347976947 -199 516 -199 c 1
 494.574091971 -191.858030657 467.161451027 -188.469222821 440 -186 c 1
 442 -90 l 1
 477.452557977 -83.6691860756 516.357390718 -80 557 -80 c 1
 552.71072544 -92.8678236814 548.805233672 -105.047476537 545 -119 c 1
EndSplineSet
EndChar

StartChar: egrave
Encoding: 232 232 147
Width: 1047
Flags: HW
LayerCount: 2
Fore
SplineSet
791 551 m 1
 784.165249903 756.042502908 737.448374354 891 535 891 c 0
 447.064638192 891 384.170022055 867.47395299 344 823 c 1
 288.089687585 765.445266632 263.690458337 672.499625078 258 553 c 1
 414.333333333 553 570.666666667 553 727 553 c 1
 791 551 l 1
555 90 m 0
 686.811700883 90 772.016299674 130.887793212 838 199 c 1
 899 119 l 1
 858.961948659 44.9296050199 790.294909632 22.1739749749 703 -2 c 128
 659.666666667 -14 609.666666667 -20 553 -20 c 0
 244.147382095 -20 129 176.047572327 129 492 c 0
 129 730.749840061 194.178662716 895.635599185 358.5 970 c 128
 404.166666667 990.666666667 461.333333333 1001 530 1001 c 0
 673.252412924 1001 770.574218897 953.574804489 831 872 c 1
 889.00254843 800.612248086 920 689.485247622 920 553 c 1
 917.540473067 525.945203732 915 475.438114788 915 446 c 1
 258 446 l 1
 260.041164577 311.283137932 298.068266455 212.065266852 369 150 c 1
 408.113693105 112.516044108 471.18196921 90 555 90 c 0
731 1247 m 1
 672 1182 l 1
 315 1415 l 1
 403 1507 l 1
 731 1247 l 1
EndSplineSet
EndChar

StartChar: eacute
Encoding: 233 233 148
Width: 1047
Flags: HW
LayerCount: 2
Fore
SplineSet
791 551 m 1
 784.165249903 756.042502908 737.448374354 891 535 891 c 0
 447.064638192 891 384.170022055 867.47395299 344 823 c 1
 288.089687585 765.445266632 263.690458337 672.499625078 258 553 c 1
 414.333333333 553 570.666666667 553 727 553 c 1
 791 551 l 1
555 90 m 0
 686.811700883 90 772.016299674 130.887793212 838 199 c 1
 899 119 l 1
 858.961948659 44.9296050199 790.294909632 22.1739749749 703 -2 c 128
 659.666666667 -14 609.666666667 -20 553 -20 c 0
 244.147382095 -20 129 176.047572327 129 492 c 0
 129 730.749840061 194.178662716 895.635599185 358.5 970 c 128
 404.166666667 990.666666667 461.333333333 1001 530 1001 c 0
 673.252412924 1001 770.574218897 953.574804489 831 872 c 1
 889.00254843 800.612248086 920 689.485247622 920 553 c 1
 917.540473067 525.945203732 915 475.438114788 915 446 c 1
 258 446 l 1
 260.041164577 311.283137932 298.068266455 212.065266852 369 150 c 1
 408.113693105 112.516044108 471.18196921 90 555 90 c 0
309 1247 m 1
 637 1507 l 1
 725 1415 l 1
 367 1182 l 1
 309 1247 l 1
EndSplineSet
EndChar

StartChar: ecircumflex
Encoding: 234 234 149
Width: 1047
Flags: HW
LayerCount: 2
Fore
SplineSet
791 551 m 1
 784.165249903 756.042502908 737.448374354 891 535 891 c 0
 447.064638192 891 384.170022055 867.47395299 344 823 c 1
 288.089687585 765.445266632 263.690458337 672.499625078 258 553 c 1
 414.333333333 553 570.666666667 553 727 553 c 1
 791 551 l 1
555 90 m 0
 686.811700883 90 772.016299674 130.887793212 838 199 c 1
 899 119 l 1
 858.961948659 44.9296050199 790.294909632 22.1739749749 703 -2 c 128
 659.666666667 -14 609.666666667 -20 553 -20 c 0
 244.147382095 -20 129 176.047572327 129 492 c 0
 129 730.749840061 194.178662716 895.635599185 358.5 970 c 128
 404.166666667 990.666666667 461.333333333 1001 530 1001 c 0
 673.252412924 1001 770.574218897 953.574804489 831 872 c 1
 889.00254843 800.612248086 920 689.485247622 920 553 c 1
 917.540473067 525.945203732 915 475.438114788 915 446 c 1
 258 446 l 1
 260.041164577 311.283137932 298.068266455 212.065266852 369 150 c 1
 408.113693105 112.516044108 471.18196921 90 555 90 c 0
524 1440 m 1
 360 1182 l 1
 233 1182 l 1
 469 1516 l 1
 578 1516 l 1
 813 1182 l 1
 686 1182 l 1
 524 1440 l 1
EndSplineSet
EndChar

StartChar: edieresis
Encoding: 235 235 150
Width: 1047
Flags: HW
LayerCount: 2
Fore
SplineSet
791 551 m 1
 784.165249903 756.042502908 737.448374354 891 535 891 c 0
 447.064638192 891 384.170022055 867.47395299 344 823 c 1
 288.089687585 765.445266632 263.690458337 672.499625078 258 553 c 1
 414.333333333 553 570.666666667 553 727 553 c 1
 791 551 l 1
555 90 m 0
 686.811700883 90 772.016299674 130.887793212 838 199 c 1
 899 119 l 1
 858.961948659 44.9296050199 790.294909632 22.1739749749 703 -2 c 128
 659.666666667 -14 609.666666667 -20 553 -20 c 0
 244.147382095 -20 129 176.047572327 129 492 c 0
 129 730.749840061 194.178662716 895.635599185 358.5 970 c 128
 404.166666667 990.666666667 461.333333333 1001 530 1001 c 0
 673.252412924 1001 770.574218897 953.574804489 831 872 c 1
 889.00254843 800.612248086 920 689.485247622 920 553 c 1
 917.540473067 525.945203732 915 475.438114788 915 446 c 1
 258 446 l 1
 260.041164577 311.283137932 298.068266455 212.065266852 369 150 c 1
 408.113693105 112.516044108 471.18196921 90 555 90 c 0
242 1331 m 0
 242 1380.57751828 270.290181388 1413 322 1413 c 0
 374.689139706 1413 401 1381.15479659 401 1331 c 0
 401 1280.29958076 373.875217955 1247 322 1247 c 0
 271.053984126 1247 242 1280.84593977 242 1331 c 0
643 1331 m 256
 643 1380.64804291 675.011832744 1413 725 1413 c 0
 775.317608926 1413 805 1379.22132672 805 1331 c 0
 805 1283.06347148 774.045625721 1247 725 1247 c 256
 675.002907964 1247 643 1281.39387575 643 1331 c 256
EndSplineSet
EndChar

StartChar: igrave
Encoding: 236 236 151
Width: 846
Flags: HW
LayerCount: 2
Fore
SplineSet
211 0 m 1
 211 117 l 1
 383 162 l 1
 383 868 l 1
 221 868 l 1
 221 985 l 1
 506 985 l 1
 506 162 l 1
 668 117 l 1
 668 0 l 1
 211 0 l 1
608 1386 m 1
 610 1309 l 1
 252 1290 l 1
 279 1368 l 1
 608 1386 l 1
EndSplineSet
EndChar

StartChar: iacute
Encoding: 237 237 152
Width: 846
Flags: HW
LayerCount: 2
Fore
SplineSet
211 0 m 1
 211 117 l 1
 383 162 l 1
 383 868 l 1
 221 868 l 1
 221 985 l 1
 506 985 l 1
 506 162 l 1
 668 117 l 1
 668 0 l 1
 211 0 l 1
215 1247 m 1
 545 1507 l 1
 631 1415 l 1
 274 1182 l 1
 215 1247 l 1
EndSplineSet
EndChar

StartChar: icircumflex
Encoding: 238 238 153
Width: 846
Flags: HW
LayerCount: 2
Fore
SplineSet
211 0 m 1
 211 117 l 1
 383 162 l 1
 383 868 l 1
 221 868 l 1
 221 985 l 1
 506 985 l 1
 506 162 l 1
 668 117 l 1
 668 0 l 1
 211 0 l 1
424 1440 m 1
 260 1182 l 1
 133 1182 l 1
 369 1516 l 1
 479 1516 l 1
 715 1182 l 1
 588 1182 l 1
 424 1440 l 1
EndSplineSet
EndChar

StartChar: idieresis
Encoding: 239 239 154
Width: 846
Flags: HW
LayerCount: 2
Fore
SplineSet
211 0 m 1
 211 117 l 1
 383 162 l 1
 383 868 l 1
 221 868 l 1
 221 985 l 1
 506 985 l 1
 506 162 l 1
 668 117 l 1
 668 0 l 1
 211 0 l 1
156 1268 m 256
 156 1318.15047933 185.057942666 1352 236 1352 c 0
 289.698297946 1352 315 1319.7991693 315 1268 c 0
 315 1218.94494813 286.85861591 1186 236 1186 c 0
 185.06633373 1186 156 1217.81161161 156 1268 c 256
545 1268 m 256
 545 1317.57787266 573.253637683 1352 625 1352 c 0
 675.750855795 1352 707 1317.00722323 707 1268 c 0
 707 1219.83067084 675.197309578 1186 625 1186 c 0
 575.077435423 1186 545 1219.4921704 545 1268 c 256
EndSplineSet
EndChar

StartChar: ntilde
Encoding: 241 241 155
Width: 1067
Flags: HW
LayerCount: 2
Fore
SplineSet
614 1001 m 0
 792.607267464 1001 896.721476881 900.520124224 903 731 c 1
 903 696.012598953 914.900818866 662.625417629 919 623 c 128
 921 603.666666667 922 581 922 555 c 2
 922 0 l 1
 797 0 l 1
 797 639 l 2
 797 786.994571964 751.081694551 870.860685375 621 885 c 0
 589.466267014 888.319340314 561.95534835 884.423787323 530 881 c 0
 433.068469057 870.078137359 367.455132146 837.550921363 297 799 c 1
 287.492406416 705.508663095 283 621.58048613 283 510 c 2
 283 0 l 1
 160 0 l 1
 160 985 l 1
 270 985 l 1
 276 883 l 1
 368.432050567 939.881261887 468.683564326 1001 614 1001 c 0
231 1313 m 1
 257 1360.33333333 286.166666667 1394.33333333 318.5 1415 c 128
 350.833333333 1435.66666667 382 1446 412 1446 c 0
 463.925897825 1446 518.428952377 1416.39571157 556 1396 c 128
 579.333333333 1383.33333333 600.833333333 1371.83333333 620.5 1361.5 c 128
 640.166666667 1351.16666667 655.333333333 1346 666 1346 c 0
 681.333333333 1346 697 1352.83333333 713 1366.5 c 128
 729 1380.16666667 747.333333333 1400.33333333 768 1427 c 1
 838 1380 l 1
 814.666666667 1332 788 1297.5 758 1276.5 c 128
 728 1255.5 698.666666667 1245 670 1245 c 0
 619.124539805 1245 565.926577561 1276.92662107 529 1297.5 c 128
 505.666666667 1310.5 484 1322.5 464 1333.5 c 128
 444 1344.5 428 1350 416 1350 c 0
 399.333333333 1350 382.166666667 1342.33333333 364.5 1327 c 128
 346.833333333 1311.66666667 327.666666667 1290.66666667 307 1264 c 1
 231 1313 l 1
EndSplineSet
EndChar

StartChar: ograve
Encoding: 242 242 156
Width: 1065
Flags: HW
LayerCount: 2
Fore
SplineSet
819 489 m 0
 819 725.637582503 768.209490879 889 532 889 c 256
 296.012252451 889 246 724.644665387 246 489 c 0
 246 252.723375256 298.005499601 92 535 92 c 0
 766.857859659 92 819 249.9771026 819 489 c 0
117 492 m 0
 117 801.230750425 221.455452141 1001 532 1001 c 256
 843.100683661 1001 948 801.750810014 948 492 c 0
 948 236.580287882 886.663185755 80.7732962728 711.5 9.5 c 128
 663.166666667 -10.1666666667 603.333333333 -20 532 -20 c 0
 220.499581196 -20 117 182.393264306 117 492 c 0
741 1247 m 1
 682 1182 l 1
 324 1415 l 1
 412 1507 l 1
 741 1247 l 1
EndSplineSet
EndChar

StartChar: oacute
Encoding: 243 243 157
Width: 1065
Flags: HW
LayerCount: 2
Fore
SplineSet
819 489 m 0
 819 725.637582503 768.209490879 889 532 889 c 256
 296.012252451 889 246 724.644665387 246 489 c 0
 246 252.723375256 298.005499601 92 535 92 c 0
 766.857859659 92 819 249.9771026 819 489 c 0
117 492 m 0
 117 801.230750425 221.455452141 1001 532 1001 c 256
 843.100683661 1001 948 801.750810014 948 492 c 0
 948 236.580287882 886.663185755 80.7732962728 711.5 9.5 c 128
 663.166666667 -10.1666666667 603.333333333 -20 532 -20 c 0
 220.499581196 -20 117 182.393264306 117 492 c 0
330 1247 m 1
 657 1507 l 1
 745 1415 l 1
 389 1182 l 1
 330 1247 l 1
EndSplineSet
EndChar

StartChar: ocircumflex
Encoding: 244 244 158
Width: 1065
Flags: HW
LayerCount: 2
Fore
SplineSet
819 489 m 0
 819 725.637582503 768.209490879 889 532 889 c 256
 296.012252451 889 246 724.644665387 246 489 c 0
 246 252.723375256 298.005499601 92 535 92 c 0
 766.857859659 92 819 249.9771026 819 489 c 0
117 492 m 0
 117 801.230750425 221.455452141 1001 532 1001 c 256
 843.100683661 1001 948 801.750810014 948 492 c 0
 948 236.580287882 886.663185755 80.7732962728 711.5 9.5 c 128
 663.166666667 -10.1666666667 603.333333333 -20 532 -20 c 0
 220.499581196 -20 117 182.393264306 117 492 c 0
532 1440 m 1
 369 1182 l 1
 242 1182 l 1
 477 1516 l 1
 588 1516 l 1
 823 1182 l 1
 696 1182 l 1
 532 1440 l 1
EndSplineSet
EndChar

StartChar: otilde
Encoding: 245 245 159
Width: 1065
Flags: HW
LayerCount: 2
Fore
SplineSet
819 489 m 0
 819 725.637582503 768.209490879 889 532 889 c 256
 296.012252451 889 246 724.644665387 246 489 c 0
 246 252.723375256 298.005499601 92 535 92 c 0
 766.857859659 92 819 249.9771026 819 489 c 0
117 492 m 0
 117 801.230750425 221.455452141 1001 532 1001 c 256
 843.100683661 1001 948 801.750810014 948 492 c 0
 948 236.580287882 886.663185755 80.7732962728 711.5 9.5 c 128
 663.166666667 -10.1666666667 603.333333333 -20 532 -20 c 0
 220.499581196 -20 117 182.393264306 117 492 c 0
231 1313 m 1
 258.333333333 1360.33333333 288.166666667 1394.33333333 320.5 1415 c 128
 352.833333333 1435.66666667 384 1446 414 1446 c 0
 465.930833037 1446 519.366222341 1416.42976502 557 1396 c 128
 580.333333333 1383.33333333 601.666666667 1371.83333333 621 1361.5 c 128
 640.333333333 1351.16666667 655.333333333 1346 666 1346 c 0
 680 1346 695.166666667 1352.83333333 711.5 1366.5 c 128
 727.833333333 1380.16666667 746.666666667 1400.33333333 768 1427 c 1
 838 1380 l 1
 814.666666667 1332 788.333333333 1297.5 759 1276.5 c 128
 729.666666667 1255.5 700 1245 670 1245 c 0
 619.124539805 1245 565.926577561 1276.92662107 529 1297.5 c 128
 505.666666667 1310.5 483.833333333 1322.5 463.5 1333.5 c 128
 443.166666667 1344.5 426.666666667 1350 414 1350 c 0
 397.333333333 1350 380.166666667 1342.33333333 362.5 1327 c 128
 344.833333333 1311.66666667 326.333333333 1290.66666667 307 1264 c 1
 231 1313 l 1
EndSplineSet
EndChar

StartChar: odieresis
Encoding: 246 246 160
Width: 1065
Flags: HW
LayerCount: 2
Fore
SplineSet
819 489 m 0
 819 725.637582503 768.209490879 889 532 889 c 256
 296.012252451 889 246 724.644665387 246 489 c 0
 246 252.723375256 298.005499601 92 535 92 c 0
 766.857859659 92 819 249.9771026 819 489 c 0
117 492 m 0
 117 801.230750425 221.455452141 1001 532 1001 c 256
 843.100683661 1001 948 801.750810014 948 492 c 0
 948 236.580287882 886.663185755 80.7732962728 711.5 9.5 c 128
 663.166666667 -10.1666666667 603.333333333 -20 532 -20 c 0
 220.499581196 -20 117 182.393264306 117 492 c 0
250 1331 m 0
 250 1378.96231357 280.973059302 1413 330 1413 c 0
 382.512708346 1413 412 1381.0849351 412 1331 c 0
 412 1280.32905827 381.7546977 1247 330 1247 c 0
 279.941733313 1247 250 1281.38735675 250 1331 c 0
653 1331 m 0
 653 1379.20901182 682.694218583 1413 733 1413 c 0
 785.010219299 1413 815 1380.2582056 815 1331 c 0
 815 1282.00299886 783.740469435 1247 733 1247 c 0
 682.941733313 1247 653 1281.38735675 653 1331 c 0
EndSplineSet
EndChar

StartChar: divide
Encoding: 247 247 161
Width: 1018
Flags: HW
LayerCount: 2
Fore
SplineSet
414 281 m 1
 414 346.333333333 433 390.666666667 471 414 c 1
 531 414 572.666666667 393.333333333 596 352 c 1
 596 286 577 241.666666667 539 219 c 1
 477.666666667 219 436 239.666666667 414 281 c 1
471 770 m 1
 432.200718875 786.628263339 414 822.322007723 414 879 c 0
 414 928.333333333 433 957.666666667 471 967 c 1
 539 967 l 1
 577 950.333333333 596 913.333333333 596 856 c 0
 596 806.666666667 577 778 539 770 c 1
 471 770 l 1
90 547 m 1
 90 645 l 1
 930 645 l 1
 930 547 l 1
 90 547 l 1
EndSplineSet
EndChar

StartChar: oslash
Encoding: 248 248 162
Width: 1065
Flags: HW
LayerCount: 2
Fore
SplineSet
117 492 m 0
 117 800.963451686 221.294924442 1001 532 1001 c 0
 596.952662573 1001 645.823454117 989.088272941 690 967 c 1
 745 1092 l 1
 844 1051 l 1
 782 915 l 1
 813.768101448 901.385099379 841.858866199 881.088715747 860 858 c 1
 919.857458022 768.213812967 948 645.02994581 948 492 c 0
 948 176.008093974 843.770800784 -20 532 -20 c 0
 474 -20 423.666666667 -10 381 10 c 1
 328 -109 l 1
 233 -66 l 1
 291 59 l 1
 255.528222623 73.8752614809 226.591626258 92.877831656 207 119 c 1
 145.603475702 207.863390431 117 328.177946624 117 492 c 0
643 862 m 1
 614.278828871 878.233705421 575.611031371 889 532 889 c 0
 296.012252451 889 246 724.644665387 246 489 c 0
 246 347.098614815 255.582444042 224.650533575 340 174 c 1
 643 862 l 1
535 92 m 0
 766.857859659 92 819 249.9771026 819 489 c 0
 819 620.080162551 805.352265971 714.482965199 760 786 c 1
 734.72869467 756.269052553 708.101994161 732.928533745 676 707 c 1
 428 117 l 1
 454.666666667 100.333333333 490.333333333 92 535 92 c 0
EndSplineSet
EndChar

StartChar: ugrave
Encoding: 249 249 163
Width: 1067
Flags: HW
LayerCount: 2
Fore
SplineSet
793 104 m 1
 702.024724395 45.8769072524 602.843557335 -20 457 -20 c 0
 234.69371107 -20 152 116.060301041 152 336 c 2
 152 985 l 1
 274 985 l 1
 274 410 l 2
 274 216.825236847 292.642257214 92 483 92 c 0
 603.64631045 92 689.115503719 139.300673108 770 184 c 1
 780.194839201 251.965594677 788 309.328349915 788 397 c 2
 788 985 l 1
 911 985 l 1
 911 0 l 1
 799 0 l 1
 793 104 l 1
741 1247 m 1
 682 1182 l 1
 324 1415 l 1
 412 1507 l 1
 741 1247 l 1
EndSplineSet
EndChar

StartChar: uacute
Encoding: 250 250 164
Width: 1067
Flags: HW
LayerCount: 2
Fore
SplineSet
793 104 m 1
 702.024724395 45.8769072524 602.843557335 -20 457 -20 c 0
 234.69371107 -20 152 116.060301041 152 336 c 2
 152 985 l 1
 274 985 l 1
 274 410 l 2
 274 216.825236847 292.642257214 92 483 92 c 0
 603.64631045 92 689.115503719 139.300673108 770 184 c 1
 780.194839201 251.965594677 788 309.328349915 788 397 c 2
 788 985 l 1
 911 985 l 1
 911 0 l 1
 799 0 l 1
 793 104 l 1
336 1247 m 1
 666 1507 l 1
 770 1415 l 1
 395 1182 l 1
 336 1247 l 1
EndSplineSet
EndChar

StartChar: ucircumflex
Encoding: 251 251 165
Width: 1067
Flags: HW
LayerCount: 2
Fore
SplineSet
793 104 m 1
 702.024724395 45.8769072524 602.843557335 -20 457 -20 c 0
 234.69371107 -20 152 116.060301041 152 336 c 2
 152 985 l 1
 274 985 l 1
 274 410 l 2
 274 216.825236847 292.642257214 92 483 92 c 0
 603.64631045 92 689.115503719 139.300673108 770 184 c 1
 780.194839201 251.965594677 788 309.328349915 788 397 c 2
 788 985 l 1
 911 985 l 1
 911 0 l 1
 799 0 l 1
 793 104 l 1
532 1440 m 1
 369 1182 l 1
 242 1182 l 1
 477 1516 l 1
 588 1516 l 1
 823 1182 l 1
 696 1182 l 1
 532 1440 l 1
EndSplineSet
EndChar

StartChar: udieresis
Encoding: 252 252 166
Width: 1067
Flags: HW
LayerCount: 2
Fore
SplineSet
793 104 m 1
 702.024724395 45.8769072524 602.843557335 -20 457 -20 c 0
 234.69371107 -20 152 116.060301041 152 336 c 2
 152 985 l 1
 274 985 l 1
 274 410 l 2
 274 216.825236847 292.642257214 92 483 92 c 0
 603.64631045 92 689.115503719 139.300673108 770 184 c 1
 780.194839201 251.965594677 788 309.328349915 788 397 c 2
 788 985 l 1
 911 985 l 1
 911 0 l 1
 799 0 l 1
 793 104 l 1
250 1331 m 0
 250 1378.96231357 280.973059302 1413 330 1413 c 0
 382.629923788 1413 410 1381.13122052 410 1331 c 0
 410 1280.30952669 381.83487312 1247 330 1247 c 0
 279.941733313 1247 250 1281.38735675 250 1331 c 0
653 1331 m 0
 653 1380.29535385 680.877316478 1413 733 1413 c 0
 783.317608926 1413 813 1379.22132672 813 1331 c 0
 813 1281.97001853 783.839332979 1247 733 1247 c 0
 682.941733313 1247 653 1281.38735675 653 1331 c 0
EndSplineSet
EndChar

StartChar: ydieresis
Encoding: 255 255 167
Width: 1067
Flags: HW
LayerCount: 2
Fore
SplineSet
272 -391 m 1
 234.266075817 -381.566518954 204.154097914 -366.123441975 182 -334 c 1
 209 -248 l 1
 230.333333333 -266.666666667 249 -278 265 -282 c 128
 281 -286 293 -287 301 -285 c 0
 354.811133863 -276.721364021 395.516769434 -269.770324696 440 -250 c 1
 494.076394008 -237.520832152 519.179713978 -204.700476704 543 -165 c 128
 553.556086872 -147.40652188 555 -118.240430326 555 -88 c 1
 588 31 l 1
 564.912732674 31 542.770612512 22.5347327375 512 24 c 128
 498 24.6666666667 481 27 461 31 c 1
 341.09541004 108.715937937 285.42178922 249.999613397 245 402.5 c 128
 237.666666667 430.166666667 231 460.666666667 225 494 c 1
 121 985 l 1
 254 985 l 1
 287.36682082 823.504587233 317.109406032 669.691564699 352 510 c 1
 367.325857588 421.581590836 387.271842672 363.820393321 414 297 c 0
 440.052622112 231.10219113 472.261648347 173.409615388 528 131 c 1
 598.761234736 131 622.843169632 199.993534203 645 248 c 1
 673.215818736 313.836910384 695.781132241 383.28050419 709 467 c 1
 811 985 l 1
 944 985 l 1
 784 197 l 1
 758.070030618 38.369599077 707.256661388 -77.4441567702 647.5 -195.5 c 128
 609.970087153 -269.644461966 562.729918833 -340.831922604 483 -371 c 1
 419.977191312 -390.694627715 353.00994397 -391 272 -391 c 1
262 1331 m 0
 262 1380.03831873 291.191351297 1413 342 1413 c 0
 394.629923788 1413 422 1381.13122052 422 1331 c 0
 422 1280.30952669 393.83487312 1247 342 1247 c 0
 291.941733313 1247 262 1281.38735675 262 1331 c 0
664 1331 m 0
 664 1379.22922451 692.639457392 1413 743 1413 c 0
 795.010219299 1413 825 1380.2582056 825 1331 c 0
 825 1281.46176055 794.63790506 1247 743 1247 c 0
 692.911062481 1247 664 1281.38403722 664 1331 c 0
EndSplineSet
EndChar

StartChar: dotlessi
Encoding: 305 305 168
Width: 846
Flags: HW
LayerCount: 2
Fore
SplineSet
211 0 m 1
 211 117 l 1
 383 162 l 1
 383 868 l 1
 221 868 l 1
 221 985 l 1
 506 985 l 1
 506 162 l 1
 668 117 l 1
 668 0 l 1
 211 0 l 1
EndSplineSet
EndChar

StartChar: OE
Encoding: 338 338 169
Width: 1352
Flags: HW
LayerCount: 2
Fore
SplineSet
721 1257 m 1
 709.424676907 1260.85844103 689.164856958 1261.97801907 674 1264 c 1
 492.141018495 1275.36618634 360.192261699 1218.3845234 303 1104 c 1
 250.060378525 1001.5362165 232.128572796 867.543064962 231 696 c 1
 231 494.817009782 254.398012002 334.381599657 330 225 c 1
 388.964241276 147.736511432 496.043632198 102.682707753 644.5 109 c 128
 669.601488394 110.068148442 699.48299722 111.206916435 721 113 c 1
 721 1257 l 1
608 1382 m 0
 660.670938755 1382 715.95340586 1374 766 1374 c 2
 1286 1374 l 1
 1278 1262 l 1
 850 1262 l 1
 850 760 l 1
 1225 760 l 1
 1225 649 l 1
 850 649 l 1
 850 113 l 1
 1284 113 l 1
 1290 0 l 1
 707 0 l 2
 640.207995302 0 557.870866535 -7.45756787679 496 4 c 1
 176.579528015 46.1876095074 92 335.843616695 92 698 c 0
 92 1104.25684035 202.487161253 1382 608 1382 c 0
EndSplineSet
EndChar

StartChar: oe
Encoding: 339 339 170
Width: 1286
Flags: HW
LayerCount: 2
Fore
SplineSet
1042 563 m 1
 1102 561 l 1
 1096.52108982 738.151429272 1090.38063662 891 913 891 c 0
 865.512849238 891 829.767476671 883.320131964 803 866 c 1
 738.444830456 793.203744983 718.927151066 697.832186608 715 563 c 1
 1042 563 l 1
389 889 m 0
 307.789537631 889 261.47410286 864.956383764 233 817 c 1
 219 790.333333333 208.333333333 751.5 201 700.5 c 128
 193.666666667 649.5 190 580 190 492 c 0
 190 344.784658957 190.332132573 219.014870307 250.5 142 c 128
 277.909457942 106.915893834 325.371887764 90 389 90 c 0
 439.31923845 90 479.429159645 101.000411752 508 121 c 1
 578.303940003 183.032888238 586 317.202336761 586 455 c 0
 586 573.393789429 586.810799691 682.407036438 562.5 772.5 c 128
 556.833333333 793.5 549.666666667 811 541 825 c 0
 511.591604505 868.338688099 467.488931649 889 389 889 c 0
1231 561 m 1
 1228.38272973 534.827297267 1227.34495696 481.967004996 1225 455 c 1
 713 455 l 1
 722.819971288 260.237236113 752.321301871 92 946 92 c 0
 1015.3896038 92 1065.27625933 107.51050373 1114 127 c 0
 1139.13136971 137.770587017 1149.42683144 160.025752726 1159 193 c 1
 1221 109 l 1
 1203.42599275 70.556859138 1184.12927182 42.6928129662 1151 27 c 0
 1093.60235575 1.322106521 1030.12428831 -23 942 -23 c 0
 796.315742199 -23 703.517492028 41.2538706829 668.5 149 c 128
 664.166666667 162.333333333 660.333333333 174 657 184 c 1
 642.340728625 47.1801338371 537.765438226 -25 385 -25 c 0
 183.830632445 -25 116.134777696 78.4096724601 79.5 245.5 c 128
 65.8333333333 307.833333333 59 389 59 489 c 0
 59 787.013113643 101.381377836 1004 393 1004 c 0
 546.21426427 1004 621.519770187 931.354061075 657 819 c 1
 666.275419235 857.426736832 679.473247716 894.823041564 702 920 c 1
 744.877823124 972.065928079 816.508735458 1004 918 1004 c 0
 1024.19149627 1004 1094.70505905 971.640258531 1141 913 c 1
 1204.65092043 836.618895486 1231 713.02595584 1231 561 c 1
EndSplineSet
EndChar

StartChar: Ydieresis
Encoding: 376 376 171
Width: 1063
Flags: HW
LayerCount: 2
Fore
SplineSet
1022 1374 m 1
 885.564237663 1113.16692494 731.357401284 848.65310251 598 588 c 1
 598 0 l 1
 465 0 l 1
 465 586 l 1
 326.541572636 844.857059855 175.927574539 1112.22669573 39 1374 c 1
 195 1374 l 1
 280.701073825 1199.91969379 383.006867331 1011.98593832 467 840 c 2
 530 711 l 1
 535 711 l 1
 600 840 l 1
 683.901736712 1011.79879422 788.788497038 1200.91413461 874 1374 c 1
 1022 1374 l 1
248 1698 m 0
 248 1746.49992324 278.085628327 1780 328 1780 c 0
 380.512708346 1780 410 1748.0849351 410 1698 c 0
 410 1647.30339561 379.736121249 1616 328 1616 c 0
 277.06633373 1616 248 1647.81161161 248 1698 c 0
651 1698 m 0
 651 1747.29535385 678.877316478 1780 731 1780 c 256
 783.010219299 1780 813 1747.2582056 813 1698 c 0
 813 1648.99453309 781.709588462 1616 731 1616 c 0
 680.947953136 1616 651 1648.3440594 651 1698 c 0
EndSplineSet
EndChar

StartChar: florin
Encoding: 402 402 172
Width: 954
Flags: HW
LayerCount: 2
Fore
SplineSet
348 -31 m 2
 314.950153157 -250.54541117 252.997474368 -412.195707079 9 -417.5 c 128
 -6.33333333333 -417.833333333 -21.6666666667 -417.333333333 -37 -416 c 1
 -27 -305 l 1
 22.7314223383 -307.925377785 61.4918277809 -296.745557109 92 -276 c 1
 182.169373459 -241.095726403 204.895439864 -145.627360814 223 -37 c 0
 268.312123596 221.926420551 301.863095656 494.377026807 350 840 c 1
 158 840 l 1
 176 952 l 1
 367 952 l 1
 398.24569128 1183.21811547 449.019817993 1387.14604066 690 1403 c 1
 716.479537294 1405.78731972 743.879499339 1403 772 1403 c 1
 814 1399 858.333333333 1391.33333333 905 1380 c 1
 874 1266 l 1
 812.666666667 1282 760.333333333 1290 717 1290 c 0
 628.154127741 1290 597.89438186 1254.19662887 569 1194 c 1
 531.666666667 1138.66666667 506 1058 492 952 c 1
 819 952 l 1
 799 840 l 1
 477 840 l 1
 348 -31 l 2
EndSplineSet
EndChar

StartChar: Delta
Encoding: 8710 8710 173
Width: 1024
Flags: HW
LayerCount: 2
Fore
SplineSet
985 0 m 1
 33 0 l 1
 422 1339 l 1
 618 1339 l 1
 985 0 l 1
180 102 m 1
 838 102 l 1
 532 1245 l 1
 506 1245 l 1
 180 102 l 1
EndSplineSet
EndChar

StartChar: Omega
Encoding: 937 937 174
Width: 1024
Flags: HW
LayerCount: 2
Fore
SplineSet
821 659 m 0
 821 955.448947016 807.975342736 1255 512 1255 c 0
 254.592340942 1255 201 1018.95908963 201 762 c 1
 207 569 l 1
 222.674601615 410.014755048 262.585386649 264.893546687 346 172 c 128
 375.333333333 139.333333333 411 116 453 102 c 1
 453 0 l 1
 111 0 l 1
 111 92 l 1
 301 92 l 1
 301 102 l 1
 137.909938912 213.972280747 82 400.520820487 82 674 c 0
 82 1054.57559005 136.985287089 1362 512 1362 c 0
 871.295976045 1362 942 1074.09758626 942 709 c 0
 942 487.264498078 916.490620031 310.348202721 820 191.5 c 128
 792.666666667 157.833333333 760.333333333 128 723 102 c 1
 926 102 l 1
 926 0 l 1
 571 0 l 1
 571 102 l 1
 735.854001865 155.82987816 797.807531931 360.202098051 816 558.5 c 128
 819.333333333 594.833333333 821 628.333333333 821 659 c 0
EndSplineSet
EndChar

StartChar: pi
Encoding: 960 960 175
Width: 1153
Flags: HW
LayerCount: 2
Fore
SplineSet
39 999 m 1
 133.407899806 1013.98538092 222.818639112 1018 338 1018 c 2
 1124 1018 l 1
 1118 909 l 1
 920 909 l 1
 920 279 l 2
 920 172.313114041 924.059491013 90.5218024494 932 0 c 1
 807 0 l 1
 798.736189078 84.2908714091 795 167.943084008 795 270 c 2
 795 909 l 1
 397 909 l 1
 391.313246487 599.071933516 370.169401148 283.675628303 338 0 c 1
 213 0 l 1
 247.045611897 283.713432476 266.357237432 598.648058742 272 909 c 1
 185.350942221 909 120.005458801 906.467394507 49 897 c 1
 39 999 l 1
EndSplineSet
EndChar

StartChar: endash
Encoding: 8211 8211 176
Width: 1008
Flags: HW
LayerCount: 2
Fore
SplineSet
137 547 m 1
 137 643 l 1
 870 643 l 1
 870 547 l 1
 137 547 l 1
EndSplineSet
EndChar

StartChar: emdash
Encoding: 8212 8212 177
Width: 1067
Flags: HW
LayerCount: 2
Fore
SplineSet
39 547 m 1
 39 643 l 1
 1028 643 l 1
 1028 547 l 1
 39 547 l 1
EndSplineSet
EndChar

StartChar: quoteleft
Encoding: 8216 8216 178
Width: 838
Flags: HW
LayerCount: 2
Fore
SplineSet
526 1364 m 1
 505.418162125 1308.13501148 482.453823389 1262.72294034 471 1194 c 1
 483 1147 l 1
 451 963 l 1
 305 987 l 1
 340 1128 l 1
 363.962343248 1230.15525279 409.56353588 1316.98475894 451 1397 c 1
 526 1364 l 1
EndSplineSet
EndChar

StartChar: quoteright
Encoding: 8217 8217 179
Width: 829
Flags: HW
LayerCount: 2
Fore
SplineSet
307 1006 m 1
 326.140271658 1056.05917203 345.817599448 1096.63279662 356 1159 c 1
 354 1239 l 1
 383 1407 l 1
 528 1382 l 1
 489 1233 l 1
 467.668371199 1133.87066616 422.469433494 1047.3589842 381 973 c 1
 307 1006 l 1
EndSplineSet
EndChar

StartChar: quotedblleft
Encoding: 8220 8220 180
Width: 934
Flags: HW
LayerCount: 2
Fore
SplineSet
410 1382 m 1
 389.808843107 1327.19543129 366.364076746 1284.36649885 356 1217 c 1
 367 1159 l 1
 334 981 l 1
 188 1006 l 1
 223 1145 l 1
 246.937440917 1247.04909022 292.6024745 1335.05995076 334 1415 c 1
 410 1382 l 1
657 1204 m 1
 657 1175.08121951 659 1151.25549151 659 1122 c 1
 631 956 l 1
 485 981 l 1
 514 1108 l 1
 539.621736436 1213.04911939 588.631527927 1307.80911486 633 1391 c 1
 707 1358 l 1
 687.8036397 1310.7474208 666.991931422 1263.95158853 657 1204 c 1
EndSplineSet
EndChar

StartChar: quotedblright
Encoding: 8221 8221 181
Width: 928
Flags: HW
LayerCount: 2
Fore
SplineSet
551 1130 m 1
 551 1162.2078225 553 1195.40291701 553 1227 c 1
 580 1384 l 1
 725 1362 l 1
 692 1229 l 1
 669.121160448 1124.77417537 623.474812818 1031.93755905 580 952 c 1
 504 985 l 1
 521.42291606 1031.46110949 543.311171088 1071.05231167 551 1130 c 1
254 1155 m 1
 254 1187.31771431 256 1219.30194003 256 1251 c 1
 283 1411 l 1
 428 1386 l 1
 395 1253 l 1
 371.772419241 1149.76630774 323.681318874 1058.23218753 281 977 c 1
 207 1010 l 1
 223.556580381 1056.6594538 244.037341321 1097.7147126 254 1155 c 1
EndSplineSet
EndChar

StartChar: dagger
Encoding: 8224 8224 182
Width: 981
Flags: HW
LayerCount: 2
Fore
SplineSet
428 1511 m 1
 555 1511 l 1
 555 1081 l 1
 895 1081 l 1
 895 977 l 1
 555 977 l 1
 555 -238 l 1
 430 -238 l 1
 430 975 l 1
 86 975 l 1
 86 1081 l 1
 428 1081 l 1
 428 1511 l 1
EndSplineSet
EndChar

StartChar: daggerdbl
Encoding: 8225 8225 183
Width: 1004
Flags: HW
LayerCount: 2
Fore
SplineSet
440 1513 m 1
 563 1513 l 1
 563 1087 l 1
 907 1087 l 1
 907 981 l 1
 563 981 l 1
 563 322 l 1
 907 322 l 1
 907 217 l 1
 563 217 l 1
 563 -238 l 1
 440 -238 l 1
 440 217 l 1
 98 217 l 1
 98 322 l 1
 440 322 l 1
 440 981 l 1
 98 981 l 1
 98 1087 l 1
 440 1087 l 1
 440 1513 l 1
EndSplineSet
EndChar

StartChar: bullet
Encoding: 8226 8226 184
Width: 969
Flags: HW
LayerCount: 2
Fore
SplineSet
526 469 m 1
 439.735959061 469 367.933348073 510.339969048 340 569 c 1
 340 655.589352217 384.406800326 725.832133504 442 756 c 1
 526.878909174 756 600.588480415 713.692265745 627 655 c 1
 627 567.360249236 582.920843521 500.306463937 526 469 c 1
EndSplineSet
EndChar

StartChar: ellipsis
Encoding: 8230 8230 185
Width: 1270
Flags: HW
LayerCount: 2
Fore
SplineSet
117 184 m 1
 281 184 l 1
 281 0 l 1
 117 0 l 1
 117 184 l 1
539 184 m 1
 700 184 l 1
 700 0 l 1
 539 0 l 1
 539 184 l 1
961 184 m 1
 1124 184 l 1
 1124 0 l 1
 961 0 l 1
 961 184 l 1
EndSplineSet
EndChar

StartChar: perthousand
Encoding: 8240 8240 186
Width: 1403
Flags: HW
LayerCount: 2
Fore
SplineSet
1122 586 m 0
 1287.48274634 586 1378 464.735833479 1378 299 c 0
 1378 166.446721795 1319.70746714 72.9362356668 1227 32.5 c 128
 1195.66666667 18.8333333333 1160.66666667 12 1122 12 c 256
 955.437036562 12 864 131.873211771 864 299 c 0
 864 432.428438798 922.383999669 523.832926169 1015.5 565 c 128
 1047.16666667 579 1082.66666667 586 1122 586 c 0
1270 299 m 0
 1270 402.522595995 1222.048601 489 1120 489 c 0
 1019.61795431 489 970.374841777 405.381170695 973 303 c 1
 973 196.775469102 1015.45068499 109 1120 109 c 256
 1223.03875888 109 1270 194.507044777 1270 299 c 0
285 1358 m 0
 451.680731559 1358 545 1238.10208628 545 1071 c 256
 545 937.934875853 484.787918135 844.555256704 391 804.5 c 128
 359 790.833333333 323.666666667 784 285 784 c 0
 116.800693942 784 23 902.364471278 23 1071 c 0
 23 1204.82395381 82.7746775837 1297.46146166 177.5 1337.5 c 128
 209.833333333 1351.16666667 245.666666667 1358 285 1358 c 0
436 1071 m 256
 436 1174.41136057 387.042451874 1262 285 1262 c 0
 182.049576314 1262 133 1176.53820696 133 1073 c 0
 133 965.710171487 179.150099979 881 285 881 c 0
 386.60521855 881 436 968.049672708 436 1071 c 256
332 -23 m 1
 320.914524511 -17.4572622556 309.405149998 -14.5032187485 299 -8 c 1
 216.733051793 65.1261761837 187.698718219 210.790600274 209 367 c 1
 243.357753797 562.574906227 342.854777265 717.30705745 483 807 c 1
 493.574075902 803.034721537 505.426397497 798.965100938 516 795 c 1
 595.44857273 718.607141606 627.679181053 574.282594951 604 418 c 1
 569.758552897 223.087147262 471.696427984 66.4057139095 332 -23 c 1
285 563 m 1
 517.453895278 683.23477342 776.609895855 779.388395555 1071 838 c 1
 1128.37349277 812.648921797 1161 745.040516703 1161 662 c 1
 927.235176615 542.46116986 669.823454023 442.624584195 375 385 c 1
 314.825336937 410.40707996 285 477.198928661 285 563 c 1
393 303 m 0
 393 406.679749706 440.531958364 489 543 489 c 256
 644.29097621 489 690 401.505618998 690 299 c 256
 690 196.486853117 644.289317534 109 543 109 c 0
 439.00130365 109 393 194.970547665 393 303 c 0
EndSplineSet
EndChar

StartChar: guilsinglleft
Encoding: 8249 8249 187
Width: 901
Flags: HW
LayerCount: 2
Fore
SplineSet
600 934 m 1
 645 823 l 1
 348 526 l 1
 645 236 l 1
 600 123 l 1
 223 483 l 1
 223 573 l 1
 600 934 l 1
EndSplineSet
EndChar

StartChar: guilsinglright
Encoding: 8250 8250 188
Width: 901
Flags: HW
LayerCount: 2
Fore
SplineSet
651 573 m 1
 651 483 l 1
 276 123 l 1
 231 236 l 1
 528 526 l 1
 231 823 l 1
 276 934 l 1
 651 573 l 1
EndSplineSet
EndChar

StartChar: fraction
Encoding: 8260 8260 189
Width: 928
Flags: HW
LayerCount: 2
Fore
SplineSet
696 1452 m 1
 809 1446 l 1
 225 -6 l 1
 115 0 l 1
 696 1452 l 1
EndSplineSet
EndChar

StartChar: Euro
Encoding: 8364 8364 190
Width: 1153
Flags: HW
LayerCount: 2
Fore
SplineSet
137 679.5 m 130
 137 702.625645245 137.368884479 728.426613752 139 748 c 1
 49 748 l 1
 49 844 l 1
 145 844 l 1
 177.464144341 1151.16075031 305.359329051 1366 639 1366 c 0
 765.389386918 1366 864.795021303 1338.82559318 958 1309 c 1
 989.012745715 1291.04525248 1017.40797204 1264.17604504 1038 1231 c 1
 973 1141 l 1
 939.79887674 1175.38687766 899.582214068 1201.65089869 852 1217 c 1
 792.678733128 1231.42949735 727.737445846 1247 647 1247 c 0
 393.003614178 1247 311.363676608 1074.08299585 285 844 c 1
 768 844 l 1
 768 748 l 1
 279 748 l 1
 277.452869576 727.887304492 277 702.235248181 277 679 c 128
 277 652.64864741 277.683320664 623.016907378 279 598 c 1
 768 598 l 1
 768 500 l 1
 285 500 l 1
 312.771832985 272.775911937 392.089150522 119.265276207 616 98 c 1
 714.145473574 90.8186238848 797.071531787 109.318563504 870 131 c 0
 913.913391186 145.052285179 955.320085553 171.135263867 987 205 c 1
 1047 115 l 1
 1025.48924066 75.2050952242 993.922687117 46.1690748467 956 31 c 1
 870.310486788 0.849986091903 764.742492593 -25 639 -25 c 0
 300.765690319 -25 177.786173361 193.21509212 145 500 c 1
 49 500 l 1
 49 598 l 1
 137 598 l 1
 137 679.5 l 130
EndSplineSet
EndChar

StartChar: trademark
Encoding: 8482 8482 191
Width: 1104
Flags: HW
LayerCount: 2
Fore
SplineSet
928 655 m 1
 928 1057 l 1
 922 1057 l 1
 786 737 l 1
 727 737 l 1
 598 1057 l 1
 594 1057 l 1
 594 655 l 1
 516 655 l 1
 516 1268 l 1
 588 1268 l 1
 756 846 l 1
 758 846 l 1
 932 1268 l 1
 1004 1268 l 1
 1004 655 l 1
 928 655 l 1
295 1192 m 1
 295 655 l 1
 211 655 l 1
 211 1192 l 1
 61 1192 l 1
 61 1268 l 1
 440 1268 l 1
 440 1192 l 1
 295 1192 l 1
EndSplineSet
EndChar

StartChar: partialdiff
Encoding: 8706 8706 192
Width: 1024
Flags: HW
LayerCount: 2
Fore
SplineSet
489 -14 m 0
 241.203414505 -14 131 157.041662019 131 406 c 0
 131 677.333333333 249.666666667 813 487 813 c 0
 592.333333333 813 674.333333333 769.333333333 733 682 c 1
 681.827088287 855.987899825 629.291458933 993.26763333 499.5 1083 c 128
 438.110217436 1125.44231881 372.171456805 1154.8391573 297 1190 c 1
 342 1286 l 1
 600.740743071 1186.1999991 767.75517963 1034.82499451 825 738 c 128
 843 644.666666667 852 536 852 412 c 0
 852 128 731 -14 489 -14 c 0
481 713 m 0
 303.633394483 713 250 593.753553718 250 406 c 0
 250 192.666666667 329.666666667 86 489 86 c 0
 674.980204676 86 733 208.58278616 733 395 c 0
 733 577.233167562 660.862473567 713 481 713 c 0
EndSplineSet
EndChar

StartChar: product
Encoding: 8719 8719 193
Width: 1188
Flags: HW
LayerCount: 2
Fore
SplineSet
946 1260 m 1
 946 -96 l 1
 819 -96 l 1
 819 1260 l 1
 365 1260 l 1
 365 -96 l 1
 238 -96 l 1
 238 1260 l 1
 43 1260 l 1
 43 1372 l 1
 1145 1372 l 1
 1145 1260 l 1
 946 1260 l 1
EndSplineSet
EndChar

StartChar: summation
Encoding: 8721 8721 194
Width: 1059
Flags: HW
LayerCount: 2
Fore
SplineSet
88 -168 m 1
 88 -57 l 1
 549 635 l 1
 100 1264 l 1
 100 1374 l 1
 948 1374 l 1
 948 1264 l 1
 260 1264 l 1
 260 1260 l 1
 702 637 l 1
 246 -51 l 1
 246 -55 l 1
 958 -55 l 1
 958 -168 l 1
 88 -168 l 1
EndSplineSet
EndChar

StartChar: radical
Encoding: 8730 8730 195
Width: 1075
Flags: HW
LayerCount: 2
Fore
SplineSet
662 -8 m 1
 475 -8 l 1
 240 778 l 1
 49 756 l 1
 39 846 l 1
 330 885 l 1
 532 170 l 1
 586 98 l 1
 682.525939829 527.807393505 789.383247969 947.283418698 891 1372 c 1
 1006 1372 l 1
 662 -8 l 1
EndSplineSet
EndChar

StartChar: infinity
Encoding: 8734 8734 196
Width: 1296
Flags: HW
LayerCount: 2
Fore
SplineSet
989 954 m 0
 1183.08385429 954 1247 797.190933097 1247 600 c 256
 1247 441.696970942 1194.21410762 322.584332833 1087.5 273 c 128
 1054.5 257.666666667 1017.66666667 250 977 250 c 0
 845.830444198 250 779.272178389 308.696827012 722.5 387.5 c 128
 700.166666667 418.5 676.333333333 455.333333333 651 498 c 1
 583.623990285 375.880982392 506.061425293 250 322 250 c 0
 129.151574837 250 51 406.769531034 51 602 c 256
 51 804.154539895 134.922114825 956 334 956 c 0
 527.522771539 956 594.788728003 837.512684337 664 707 c 1
 726.704612725 834.648675904 802.064942832 954 989 954 c 0
158 600 m 0
 158 460.705030464 206.172905762 350 336 350 c 1
 445.64763989 347.616355655 498.938350468 418.717945428 542 491 c 128
 560.666666667 522.333333333 580.666666667 558.666666667 602 600 c 1
 563.173770405 679.871100882 530.143325947 748.856674053 477.5 801.5 c 128
 440.830362551 838.169637449 399.975797604 858 332 858 c 0
 201.265381026 858 158 732.026735135 158 600 c 0
1139 598 m 0
 1139 743.53043698 1099.49692705 858 971 858 c 0
 864.281254576 858 813.743750663 788.662273836 771.5 718 c 128
 753.166666667 687.333333333 733.666666667 652 713 612 c 1
 750.737476277 532.085344356 783.545857805 462.545030781 834.5 409 c 128
 869.097524882 372.643278938 906.283750275 350 971 350 c 0
 1093.72130921 350 1139 466.225180265 1139 598 c 0
EndSplineSet
EndChar

StartChar: integral
Encoding: 8747 8747 197
Width: 946
Flags: HW
LayerCount: 2
Fore
SplineSet
391 1153 m 0
 391 1432.31788575 431.386892347 1671 705 1671 c 0
 755.3703154 1671 803.62445823 1662.90965089 842 1651 c 1
 813 1548 l 1
 784.68958347 1557.8471014 747.846567323 1565 711 1565 c 0
 568.525036661 1565 531.500707579 1467.31948735 518 1334 c 128
 512.666666667 1281.33333333 510 1219 510 1147 c 0
 510 816.472005383 520 464.394178524 520 133 c 0
 520 -146.675521773 482.479914598 -387 211 -387 c 0
 159.357317335 -387 104.871208547 -379.063478515 66 -367 c 1
 94 -260 l 1
 123.388168712 -270.221971726 163.810748546 -279 203 -279 c 0
 339.237925377 -279 376.999332037 -186.405276906 393 -60 c 128
 399.666666667 -7.33333333333 403 57.6666666667 403 135 c 0
 403 466.733071833 391 821.862171436 391 1153 c 0
EndSplineSet
EndChar

StartChar: approxequal
Encoding: 8776 8776 198
Width: 1161
Flags: HW
LayerCount: 2
Fore
SplineSet
1079 758 m 1
 1022.22214649 689.86657579 968.758266037 622.431405499 880 592 c 128
 856.666666667 584 831.666666667 580 805 580 c 0
 712.387400226 580 640.333792854 624.902958988 573 664 c 1
 520.274103051 688.479880726 470.729091956 721.312949565 413.5 740 c 128
 397.166666667 745.333333333 381 748 365 748 c 0
 331 748 297.833333333 735.5 265.5 710.5 c 128
 233.166666667 685.5 197.333333333 650 158 604 c 1
 84 668 l 1
 130 726.666666667 177 771.333333333 225 802 c 128
 273 832.666666667 320.333333333 848 367 848 c 0
 418.971365676 848 470.189725408 823.804566485 512.5 805 c 128
 590.077823024 770.520967545 667.372621851 723.89397759 748.5 694.5 c 128
 771.5 686.166666667 791.666666667 682 809 682 c 0
 837.666666667 682 868.166666667 693.166666667 900.5 715.5 c 128
 932.833333333 737.833333333 968.666666667 773 1008 821 c 1
 1079 758 l 1
1079 383 m 1
 1022.22214649 314.86657579 968.758266037 247.431405499 880 217 c 128
 856.666666667 209 831.666666667 205 805 205 c 0
 695.688863077 205 618.680264022 261.825734811 545 303 c 1
 511.666666667 319.666666667 480 335.166666667 450 349.5 c 128
 420 363.833333333 391.666666667 371 365 371 c 0
 331 371 297.833333333 358.5 265.5 333.5 c 128
 233.166666667 308.5 197.333333333 273 158 227 c 1
 84 291 l 1
 130 349.666666667 177 394 225 424 c 128
 273 454 320.333333333 469 367 469 c 0
 399.666666667 469 435.833333333 461.166666667 475.5 445.5 c 128
 515.166666667 429.833333333 560.666666667 407.666666667 612 379 c 1
 669.916765044 344.642597008 737.204772119 305 811 305 c 0
 839.666666667 305 869.833333333 316.333333333 901.5 339 c 128
 933.166666667 361.666666667 968.666666667 396.666666667 1008 444 c 1
 1079 383 l 1
EndSplineSet
EndChar

StartChar: notequal
Encoding: 8800 8800 199
Width: 1155
Flags: HW
LayerCount: 2
Fore
SplineSet
795 807 m 1
 1073 807 l 1
 1073 715 l 1
 729 715 l 1
 528 428 l 1
 1073 428 l 1
 1073 334 l 1
 461 334 l 1
 264 53 l 1
 186 111 l 1
 348 334 l 1
 80 334 l 1
 80 428 l 1
 414 428 l 1
 608 715 l 1
 80 715 l 1
 80 807 l 1
 678 807 l 1
 874 1085 l 1
 954 1030 l 1
 795 807 l 1
EndSplineSet
EndChar

StartChar: lessequal
Encoding: 8804 8804 200
Width: 1141
Flags: HW
LayerCount: 2
Fore
SplineSet
88 680 m 1
 88 768 l 1
 1020 1161 l 1
 1044 1065 l 1
 215 725 l 1
 1044 369 l 1
 1020 274 l 1
 88 680 l 1
856 43 m 1
 141 43 l 1
 131 123 l 1
 274 129 l 1
 989 129 l 1
 999 49 l 1
 856 43 l 1
EndSplineSet
EndChar

StartChar: greaterequal
Encoding: 8805 8805 201
Width: 1139
Flags: HW
LayerCount: 2
Fore
SplineSet
1051 768 m 1
 1051 678 l 1
 117 274 l 1
 92 369 l 1
 922 723 l 1
 922 725 l 1
 92 1065 l 1
 117 1161 l 1
 1051 768 l 1
281 43 m 1
 135 49 l 1
 145 129 l 1
 860 129 l 1
 1004 123 l 1
 993 43 l 1
 281 43 l 1
EndSplineSet
EndChar

StartChar: lozenge
Encoding: 9674 9674 202
Width: 1096
Flags: HW
LayerCount: 2
Fore
SplineSet
530 -33 m 1
 373.023794822 216.023794822 220.977398065 469.977398065 66 721 c 1
 530 1477 l 1
 621 1399 l 1
 1036 721 l 1
 621 47 l 1
 530 -33 l 1
551 1305 m 1
 436.31084009 1108.35582658 316.081195563 917.252137771 199 723 c 1
 316.085331733 528.085331733 436.308019894 336.308019894 551 139 c 1
 667.240043745 334.759956255 785.7815938 528.2184062 903 723 c 1
 785.895427105 917.228760438 665.71130224 1108.37796891 551 1305 c 1
EndSplineSet
EndChar

StartChar: f_i
Encoding: 64257 64257 203
Width: 1024
Flags: HW
LayerCount: 2
Fore
SplineSet
207 973 m 1
 207 1221.80050697 307.733608692 1378 545 1378 c 0
 631.666666667 1378 715 1368 795 1348 c 1
 834 1337 l 1
 813 1237 l 1
 711.666666667 1264.33333333 621.666666667 1278 543 1278 c 256
 368.829208642 1278 315 1159.36596827 315 973 c 1
 866 973 l 1
 866 0 l 1
 758 0 l 1
 758 870 l 1
 315 870 l 1
 315 0 l 1
 207 0 l 1
 207 870 l 1
 12 870 l 1
 12 973 l 1
 207 973 l 1
EndSplineSet
EndChar

StartChar: f_l
Encoding: 64258 64258 204
Width: 1024
Flags: HW
LayerCount: 2
Fore
SplineSet
780 1262 m 1
 694.902307063 1271.45529922 611.376924604 1278 524 1278 c 0
 356.915815865 1278 305 1152.96636994 305 973 c 1
 635 973 l 1
 635 870 l 1
 305 870 l 1
 305 0 l 1
 197 0 l 1
 197 870 l 1
 2 870 l 1
 2 973 l 1
 197 973 l 1
 197 1222.35143434 296.846136993 1378 535 1378 c 0
 636.898396323 1378 734.368595385 1366.67479335 834 1356 c 2
 889 1350 l 1
 889 0 l 1
 780 0 l 1
 780 1262 l 1
EndSplineSet
EndChar

